<svg version="1.1" id="Layer_1" xmlns="http://www.w3.org/2000/svg" xmlns:xlink="http://www.w3.org/1999/xlink" x="0px" y="0px"
	 width="100%" viewBox="0 0 2481 1269" enable-background="new 0 0 2481 1269" xml:space="preserve">
<path fill="#FFFFFF" opacity="1.000000" stroke="none" 
	d="
M1465.000000,1270.000000 
	C976.666687,1270.000000 488.833344,1270.000000 1.000000,1270.000000 
	C1.000000,847.000000 1.000000,424.000000 1.000000,1.000000 
	C828.000000,1.000000 1655.000000,1.000000 2482.000000,1.000000 
	C2482.000000,424.000000 2482.000000,847.000000 2482.000000,1270.000000 
	C2143.166748,1270.000000 1804.333374,1270.000000 1465.000000,1270.000000 
M1689.603882,409.285645 
	C1706.470215,421.898102 1725.894775,427.291870 1746.562622,429.543365 
	C1745.049927,430.251160 1743.528442,430.688019 1741.985474,431.025757 
	C1737.279785,432.055634 1732.467041,432.720612 1727.872070,434.110229 
	C1707.531372,440.261871 1695.808594,454.608673 1693.715332,475.541199 
	C1691.832642,494.367340 1700.126221,508.930664 1719.330444,518.890076 
	C1727.703491,523.232361 1736.747192,526.269165 1745.425537,530.038940 
	C1750.890747,532.413025 1756.550903,534.572571 1761.500854,537.787598 
	C1763.606201,539.155090 1765.463379,543.240845 1764.996948,545.612000 
	C1764.471802,548.281860 1761.645142,551.571838 1759.043701,552.570190 
	C1749.138306,556.371887 1740.915527,551.164734 1739.325928,540.796448 
	C1739.134521,539.547607 1738.984375,538.292419 1738.830444,537.153687 
	C1723.072021,537.153687 1707.669556,537.153687 1692.297852,537.153687 
	C1690.355469,561.575256 1700.914307,578.850830 1723.462524,586.531433 
	C1744.076538,593.553162 1765.067993,593.642090 1785.640747,586.078857 
	C1807.583252,578.012146 1819.712524,557.786621 1816.820312,534.861389 
	C1814.915405,519.762329 1805.815552,509.664734 1792.796875,503.247467 
	C1782.548828,498.196014 1771.614868,494.551697 1761.092163,490.034332 
	C1756.692871,488.145691 1752.169312,486.136322 1748.413208,483.255035 
	C1742.638550,478.825165 1744.489624,470.464447 1751.327881,468.211029 
	C1759.117188,465.644135 1766.308960,469.582520 1768.206665,477.591705 
	C1768.762695,479.938202 1768.882812,482.388031 1769.199707,484.768799 
	C1784.884521,484.768799 1800.320068,484.768799 1815.951538,484.768799 
	C1816.786499,474.083252 1815.769531,463.979980 1810.195312,454.799011 
	C1799.083008,436.496826 1780.747314,431.963776 1761.237915,429.649719 
	C1762.541260,429.165070 1763.691040,429.093506 1764.837402,428.985168 
	C1777.055420,427.830811 1788.697632,424.987701 1799.283691,418.354523 
	C1820.530640,405.041199 1828.227539,369.369293 1797.687622,353.425140 
	C1788.485962,348.621155 1778.334229,345.610962 1768.553101,341.951782 
	C1761.564697,339.337372 1754.356689,337.275330 1747.497681,334.373627 
	C1745.745850,333.632507 1743.736450,330.421539 1744.039062,328.740021 
	C1744.363159,326.938660 1747.138184,324.532745 1749.087036,324.281769 
	C1753.456787,323.719086 1758.303955,323.327698 1762.374268,324.653900 
	C1773.350830,328.230286 1784.022583,332.742004 1795.392212,337.103851 
	C1802.248535,329.518555 1809.907471,321.045319 1817.621216,312.511566 
	C1816.896362,311.616547 1816.540649,311.054749 1816.068481,310.619171 
	C1815.092651,309.719055 1814.080200,308.854065 1813.038452,308.030640 
	C1794.209595,293.147156 1772.382080,288.202881 1748.927002,288.868256 
	C1734.541748,289.276306 1720.870483,292.229034 1708.962646,300.953491 
	C1689.914062,314.909515 1685.098267,346.762787 1710.513184,361.892761 
	C1721.228882,368.272003 1733.487305,372.080536 1745.100464,376.923065 
	C1750.611572,379.221039 1756.424072,380.862091 1761.747070,383.510132 
	C1763.648926,384.456238 1765.866943,387.800598 1765.482666,389.491669 
	C1765.062134,391.342438 1761.900391,393.614929 1759.753662,393.819641 
	C1754.689819,394.302490 1749.389893,394.328064 1744.416748,393.355530 
	C1730.810425,390.694702 1718.924927,384.035339 1707.383179,375.669250 
	C1699.926025,385.443695 1692.577148,395.076111 1684.733154,405.080994 
	C1679.990601,411.531494 1675.247925,417.981964 1670.114502,424.963989 
	C1678.526367,424.963989 1685.808960,424.963989 1693.460815,424.963989 
	C1691.918823,419.448395 1690.456177,414.216705 1689.603882,409.285645 
M843.621155,537.921875 
	C852.008484,552.476257 860.475525,566.985779 868.708618,581.626892 
	C870.170654,584.226990 871.846130,584.932861 874.624756,584.895996 
	C884.955811,584.758972 895.289795,584.841187 905.622681,584.841187 
	C909.898193,584.841125 914.173706,584.841187 918.899536,584.841187 
	C918.899536,544.462036 918.899536,504.710114 918.899536,464.870392 
	C927.263794,464.870392 935.151917,464.870392 943.185242,464.870392 
	C943.185242,497.450836 943.185242,529.689758 943.185242,562.481934 
	C938.663513,562.481934 934.415833,562.481934 930.323975,562.481934 
	C930.323975,570.264832 930.323975,577.482178 930.323975,584.841187 
	C941.640930,584.841187 952.470032,585.041138 963.289062,584.798035 
	C983.589294,584.341919 1003.953674,584.477112 1024.163086,582.810608 
	C1049.842651,580.693054 1073.062012,560.406433 1079.599976,536.179810 
	C1082.859985,524.099548 1083.070435,511.738068 1081.410400,499.485321 
	C1080.258423,490.982391 1079.164795,481.972656 1075.527222,474.398682 
	C1064.483643,451.405029 1044.386841,440.789978 1019.825806,440.389923 
	C971.673950,439.605560 923.500305,440.158783 875.335693,440.158417 
	C873.713928,440.158417 872.092224,440.158417 870.339355,440.158417 
	C870.339355,448.490784 870.339355,456.352905 870.339355,464.716675 
	C877.922791,464.716675 885.172424,464.716675 892.475464,464.716675 
	C892.475464,483.595398 892.475464,501.965271 892.475464,521.711365 
	C890.850098,519.299011 889.926086,518.020447 889.096863,516.683167 
	C874.107178,492.508087 859.080750,468.355408 844.212341,444.105896 
	C842.456665,441.242615 840.647888,440.035461 837.169861,440.067200 
	C816.839111,440.252625 796.505737,440.157104 776.173279,440.156433 
	C774.589172,440.156372 773.005066,440.156403 771.501038,440.156403 
	C771.501038,449.004517 771.501038,457.073090 771.501038,465.739746 
	C778.721375,465.739746 785.614929,465.739746 792.501465,465.739746 
	C792.501465,498.257080 792.501465,530.165588 792.501465,562.468079 
	C790.193481,562.468079 788.156433,562.165161 786.243713,562.524292 
	C780.286804,563.642883 778.041260,560.806702 776.239685,555.377258 
	C763.943665,518.320984 751.242798,481.399139 738.788391,444.394958 
	C737.734375,441.263397 736.411255,439.982483 732.862732,440.054352 
	C719.868652,440.317444 706.862671,440.321808 693.868774,440.052917 
	C690.275452,439.978577 689.052979,441.353821 688.018738,444.458588 
	C675.415955,482.294128 662.647949,520.074646 650.055603,557.913696 
	C648.963318,561.195923 647.677612,563.000793 643.882080,562.542908 
	C640.805664,562.171692 637.648743,562.467590 634.346863,562.467590 
	C634.346863,570.019836 634.346863,576.962463 634.346863,584.373352 
	C654.558533,584.373352 674.606079,584.373352 694.796387,584.373352 
	C694.796387,577.151428 694.796387,570.051880 694.796387,562.457275 
	C689.667053,562.457275 684.727295,562.457275 679.071838,562.457275 
	C681.058411,555.867737 682.847229,549.934082 684.635010,544.004028 
	C696.827881,544.004028 708.490112,543.969421 720.151489,544.057678 
	C721.315186,544.066467 723.208374,544.523743 723.516052,545.280151 
	C725.729065,550.720642 727.619995,556.292175 729.918701,562.670288 
	C723.858948,562.670288 718.795593,562.670288 713.810669,562.670288 
	C713.810669,570.389771 713.810669,577.486816 713.810669,584.529541 
	C757.912964,584.529541 801.669800,584.529541 845.588196,584.529541 
	C845.588196,577.138550 845.588196,570.061401 845.588196,562.408447 
	C839.103760,562.408447 832.861206,562.408447 826.416443,562.408447 
	C826.416443,544.470886 826.416443,527.111206 826.416443,508.165192 
	C832.509766,518.741943 837.859802,528.028503 843.621155,537.921875 
M1539.477661,425.164856 
	C1542.592651,425.164856 1545.707764,425.164856 1548.936401,425.164856 
	C1548.936401,380.890533 1548.936401,337.158539 1548.936401,293.213043 
	C1524.936279,293.213043 1501.168823,293.213043 1477.152100,293.213043 
	C1471.557251,313.548462 1465.976929,333.831512 1460.326538,354.368530 
	C1459.906128,353.128601 1459.480957,352.057343 1459.177612,350.952637 
	C1454.294067,333.162750 1449.319946,315.396393 1444.644531,297.551758 
	C1443.718384,294.017303 1442.333984,292.849365 1438.621460,292.902222 
	C1422.628296,293.130035 1406.630127,292.999573 1390.633789,292.999573 
	C1383.510742,292.999573 1376.387695,292.999573 1369.219238,292.999573 
	C1369.219238,337.298981 1369.219238,381.149536 1369.219238,424.805023 
	C1384.670044,424.805023 1399.734741,424.805023 1415.083984,424.805023 
	C1415.083984,402.385254 1415.083984,380.325348 1415.083984,358.265442 
	C1415.234741,358.250702 1415.385498,358.235962 1415.536377,358.221222 
	C1421.698242,380.525696 1427.860107,402.830170 1433.990845,425.022156 
	C1448.615601,425.022156 1462.586792,425.022156 1476.978027,425.022156 
	C1483.442993,402.653809 1489.903198,380.301514 1496.363525,357.949219 
	C1496.640991,357.994720 1496.918579,358.040253 1497.196045,358.085754 
	C1497.196045,380.351257 1497.196045,402.616730 1497.196045,425.164856 
	C1511.209106,425.164856 1524.847168,425.164856 1539.477661,425.164856 
M811.049438,411.929077 
	C821.527649,409.934662 831.520203,406.812317 840.335022,399.747986 
	C830.041382,388.224274 822.138367,375.859528 818.269287,360.695709 
	C816.466370,361.453125 815.009338,362.120911 813.513245,362.684998 
	C801.702698,367.138306 790.408325,366.441559 780.838562,357.754822 
	C771.254333,349.054901 766.509277,338.184906 770.039795,325.018860 
	C773.988953,310.291229 785.977478,301.596466 799.319092,301.353729 
	C814.106750,301.084595 828.290649,314.719757 829.915466,329.875305 
	C830.728333,337.456909 829.616577,345.378479 831.282837,352.712921 
	C840.862305,394.879425 873.167053,411.432495 909.133057,412.653107 
	C922.657410,413.112091 934.973022,407.257538 946.181274,399.543060 
	C948.999146,397.603577 949.595764,396.445770 947.178955,393.415466 
	C942.747192,387.858551 938.349854,382.080353 935.162598,375.775452 
	C931.464355,368.459747 929.083679,360.477875 926.542786,353.857605 
	C920.489136,356.352783 914.361877,359.807617 907.785217,361.365997 
	C898.488281,363.569061 889.856384,361.691193 882.595276,354.394135 
	C875.263550,347.026184 874.275818,337.724670 873.005554,328.351227 
	C870.485901,309.758759 864.179138,292.754425 850.652283,279.345795 
	C834.131958,262.969879 814.501160,255.312164 790.818970,258.839844 
	C767.215088,262.355835 748.764282,273.549133 735.714355,293.490173 
	C726.553162,307.488983 723.373901,323.121582 723.966064,339.615265 
	C724.916809,366.094360 737.571411,385.884827 759.103516,400.541931 
	C774.612549,411.099091 791.905029,413.598785 811.049438,411.929077 
M1488.297852,564.801086 
	C1486.450317,572.025452 1484.602905,579.249756 1482.689819,586.730530 
	C1499.145386,586.730530 1515.212891,586.730530 1531.441406,586.730530 
	C1532.976074,580.221069 1534.600342,573.959290 1535.874390,567.627075 
	C1536.404541,564.992493 1537.448730,564.042053 1540.161743,564.113953 
	C1546.821533,564.290588 1553.497437,564.000183 1560.146973,564.315674 
	C1561.481445,564.379089 1563.543945,566.086609 1563.876953,567.391541 
	C1565.511230,573.797607 1566.674927,580.323669 1568.006958,586.818115 
	C1586.294189,586.818115 1604.242432,586.818115 1622.738525,586.818115 
	C1609.404175,535.763428 1596.149902,485.015289 1582.868164,434.161774 
	C1563.464111,434.161774 1544.478638,434.224548 1525.494263,434.100311 
	C1522.311646,434.079498 1522.221069,436.086548 1521.667603,438.194519 
	C1510.655884,480.143402 1499.616821,522.085205 1488.297852,564.801086 
M1423.166260,571.497192 
	C1423.166260,560.042969 1423.166260,548.588806 1423.166260,536.527527 
	C1425.407837,536.527527 1427.189087,536.557434 1428.968872,536.522400 
	C1437.286621,536.358643 1445.629272,536.529541 1453.916382,535.931580 
	C1473.975708,534.484253 1489.814941,521.048767 1492.675171,502.406891 
	C1493.977417,493.920197 1494.144775,485.116577 1493.651367,476.524200 
	C1492.235840,451.871643 1477.958862,436.346100 1453.183594,435.090149 
	C1425.451050,433.684265 1397.608643,434.440643 1369.813965,434.276489 
	C1369.537109,434.274841 1369.258789,434.550049 1368.810547,434.785645 
	C1368.810547,485.395630 1368.810547,536.080322 1368.810547,586.707886 
	C1387.066040,586.707886 1404.982056,586.707886 1423.166382,586.707886 
	C1423.166382,581.776794 1423.166382,577.136475 1423.166260,571.497192 
M1618.500000,292.998077 
	C1609.851196,292.998077 1601.202393,292.998077 1592.404785,292.998077 
	C1578.172974,337.051300 1564.016113,380.872528 1549.707642,425.163330 
	C1565.491699,425.163330 1580.636719,425.234772 1595.777710,425.019531 
	C1596.915771,425.003387 1598.599121,423.134705 1599.047852,421.797882 
	C1600.986938,416.020447 1602.560425,410.120392 1604.251099,404.319855 
	C1614.013550,404.319855 1623.318726,404.319855 1632.889282,404.319855 
	C1634.535522,410.578461 1636.162964,416.765167 1638.152344,424.327850 
	C1640.797241,416.910706 1642.899292,410.869141 1645.108765,404.867126 
	C1646.823730,400.209167 1647.434204,393.845703 1650.810059,391.462921 
	C1654.195801,389.073273 1660.398804,390.612335 1665.368530,390.545990 
	C1670.915894,390.471924 1676.464966,390.528992 1681.938843,390.528992 
	C1681.938843,389.296509 1682.022339,388.943390 1681.927002,388.647919 
	C1671.929321,357.660339 1661.955200,326.664917 1651.772095,295.738312 
	C1651.361206,294.490234 1648.981689,293.156921 1647.487305,293.118591 
	C1638.163330,292.879395 1628.830078,292.998016 1618.500000,292.998077 
M1152.785156,559.067505 
	C1152.579712,557.787537 1152.196167,556.507690 1152.194824,555.227539 
	C1152.162720,525.899780 1152.167725,496.572052 1152.190186,467.244293 
	C1152.191162,465.979584 1152.426025,464.715057 1152.603149,462.936096 
	C1159.473511,462.936096 1166.034424,462.936096 1172.550659,462.936096 
	C1172.550659,455.125397 1172.550659,447.871063 1172.550659,440.495605 
	C1143.540527,440.495605 1114.822021,440.495605 1086.219238,440.495605 
	C1086.219238,448.235931 1086.219238,455.633728 1086.219238,463.365234 
	C1093.730103,463.365234 1100.849854,463.365234 1108.213623,463.365234 
	C1108.213623,495.640106 1108.213623,527.565979 1108.213623,560.092041 
	C1100.743896,560.092041 1093.341309,560.092041 1086.151123,560.092041 
	C1086.151123,568.621521 1086.151123,576.547852 1086.151123,584.541687 
	C1115.542114,584.541687 1144.606079,584.541687 1173.791504,584.541687 
	C1173.791504,576.143066 1173.791504,568.044678 1173.791504,559.408813 
	C1166.955811,559.408813 1160.324951,559.408813 1152.785156,559.067505 
M1627.834473,484.499969 
	C1627.834473,518.567627 1627.834473,552.635315 1627.834473,586.614563 
	C1646.313232,586.614563 1664.178345,586.614563 1681.849854,586.614563 
	C1681.849854,535.667603 1681.849854,485.107330 1681.849854,434.416016 
	C1663.794189,434.416016 1646.055786,434.416016 1627.834473,434.416016 
	C1627.834473,450.943359 1627.834473,467.221649 1627.834473,484.499969 
M885.459961,319.058258 
	C893.361511,310.502258 902.864136,307.644287 913.934814,311.593201 
	C923.663757,315.063507 929.811584,324.448669 929.994751,335.291595 
	C930.389954,358.681274 939.280823,378.119751 956.919617,393.573792 
	C980.250549,414.014832 1014.177246,418.455231 1042.132202,404.338135 
	C1070.319580,390.103638 1088.820435,358.626556 1084.177856,325.066040 
	C1081.019043,302.229950 1069.867188,284.541779 1051.440552,271.344086 
	C1036.762085,260.830902 1020.182861,256.680481 1002.094116,257.851440 
	C990.038391,258.631897 978.954834,262.128571 968.481873,267.870605 
	C964.271240,270.179199 963.442810,274.638214 966.814819,277.725372 
	C976.440491,286.537994 982.258667,297.542053 986.090515,309.812225 
	C988.287231,316.846283 990.394592,317.529480 996.893982,313.651672 
	C1012.316528,304.449799 1033.327026,315.756714 1034.033813,333.638702 
	C1034.586182,347.613739 1024.418213,359.172516 1011.800964,360.221558 
	C993.994385,361.702026 984.190918,347.288910 983.849060,335.549500 
	C983.647339,328.625214 982.933777,321.564636 981.266602,314.859680 
	C972.769104,280.683075 939.594788,255.392715 902.390747,257.806213 
	C886.392639,258.844025 872.313782,263.980682 859.591736,273.529510 
	C856.526794,275.830048 856.212769,277.765717 858.894775,280.346588 
	C869.581848,290.630585 875.227295,303.594330 878.759338,317.688873 
	C880.112183,323.087006 880.775269,323.275177 885.459961,319.058258 
M1412.001343,737.521973 
	C1412.001343,733.437439 1412.001343,729.352905 1412.001343,724.046448 
	C1414.254395,726.752258 1415.717041,728.461548 1417.128906,730.211914 
	C1438.559814,756.781738 1459.974609,783.364441 1481.440796,809.905640 
	C1482.421509,811.118286 1483.784912,812.728638 1485.086548,812.844238 
	C1489.307495,813.219482 1493.582642,812.984436 1497.647583,812.984436 
	C1497.647583,772.594666 1497.647583,732.869568 1497.647583,693.376709 
	C1491.883789,693.376709 1486.479248,693.376709 1480.677490,693.376709 
	C1480.677490,722.781616 1480.677490,751.808960 1480.677490,781.663513 
	C1478.733765,779.305542 1477.354248,777.664185 1476.008667,775.995422 
	C1454.477783,749.291870 1432.967407,722.571777 1411.374268,695.918762 
	C1410.343384,694.646301 1408.657349,693.282166 1407.159180,693.132019 
	C1403.251465,692.740417 1399.278564,693.000244 1395.266113,693.000244 
	C1395.266113,733.230042 1395.266113,772.954834 1395.266113,812.710083 
	C1400.937134,812.710083 1406.334351,812.710083 1412.001221,812.710083 
	C1412.001221,787.784424 1412.001221,763.149902 1412.001343,737.521973 
M1089.356445,897.998474 
	C1071.285767,897.998474 1053.214966,897.998474 1035.343506,897.998474 
	C1035.343506,938.415161 1035.343506,978.126465 1035.343506,1017.099915 
	C1056.477905,1017.099915 1077.531860,1019.246033 1097.995850,1016.683044 
	C1151.703003,1009.956665 1159.768677,955.682739 1141.583618,926.001465 
	C1129.957397,907.025574 1111.636475,899.590698 1089.356445,897.998474 
M1282.702881,811.826172 
	C1290.578369,812.886353 1298.468140,814.955566 1306.327026,814.843872 
	C1359.719971,814.085388 1381.391602,760.508484 1360.226074,721.822754 
	C1346.957031,697.570007 1318.230103,686.007812 1289.263672,692.454285 
	C1262.007935,698.520081 1242.823730,720.316040 1241.071655,747.207336 
	C1239.086060,777.680054 1253.903198,800.993835 1282.702881,811.826172 
M1248.488525,913.000000 
	C1252.419800,913.000000 1256.351196,913.000000 1260.278687,913.000000 
	C1260.278687,907.714539 1260.278687,903.092834 1260.278687,898.238647 
	C1232.177612,898.238647 1204.279297,898.238647 1176.248779,898.238647 
	C1176.248779,938.198975 1176.248779,977.920227 1176.248779,1017.634827 
	C1205.200439,1017.634827 1233.900513,1017.634827 1262.600586,1017.634827 
	C1262.600586,1012.666321 1262.600586,1008.066284 1262.600586,1002.931091 
	C1239.327148,1002.931091 1216.282837,1002.931091 1193.153687,1002.931091 
	C1193.153687,989.934021 1193.153687,977.479248 1193.153687,964.543396 
	C1213.046753,964.543396 1232.794312,964.543396 1252.747070,964.543396 
	C1252.747070,959.491211 1252.747070,954.921204 1252.747070,949.904053 
	C1232.768433,949.904053 1213.037476,949.904053 1193.294189,949.904053 
	C1193.294189,937.390991 1193.294189,925.328674 1193.294189,913.000000 
	C1211.555786,913.000000 1229.524292,913.000000 1248.488525,913.000000 
M888.500000,798.000000 
	C878.074036,798.000000 867.648132,798.000000 857.161499,798.000000 
	C857.161499,784.920532 857.161499,772.466797 857.161499,759.528076 
	C877.059814,759.528076 896.805115,759.528076 916.740234,759.528076 
	C916.740234,754.472595 916.740234,749.903931 916.740234,744.889099 
	C896.753723,744.889099 877.023193,744.889099 857.301758,744.889099 
	C857.301758,732.375977 857.301758,720.313660 857.301758,707.781494 
	C879.826050,707.781494 902.052124,707.781494 924.268555,707.781494 
	C924.268555,702.687683 924.268555,698.070496 924.268555,693.247009 
	C896.157532,693.247009 868.260315,693.247009 840.257324,693.247009 
	C840.257324,733.215942 840.257324,772.937012 840.257324,812.627686 
	C869.216858,812.627686 897.916870,812.627686 926.594543,812.627686 
	C926.594543,807.650208 926.594543,803.050110 926.594543,798.000000 
	C914.071045,798.000000 901.785522,798.000000 888.500000,798.000000 
M917.499817,964.481873 
	C928.906189,964.481873 940.312561,964.481873 951.629272,964.481873 
	C951.629272,959.214050 951.629272,954.658020 951.629272,949.846069 
	C931.650085,949.846069 912.040588,949.846069 892.234863,949.846069 
	C892.234863,937.511230 892.234863,925.449951 892.234863,912.926392 
	C914.708557,912.926392 936.952393,912.926392 959.131470,912.926392 
	C959.131470,907.733459 959.131470,903.009583 959.131470,898.358337 
	C930.902954,898.358337 903.021484,898.358337 875.368469,898.358337 
	C875.368469,938.439026 875.368469,978.160645 875.368469,1017.696777 
	C904.322205,1017.696777 932.906738,1017.696777 961.489441,1017.696777 
	C961.489441,1012.662109 961.489441,1007.937805 961.489441,1002.866455 
	C938.216064,1002.866455 915.289001,1002.866455 892.294312,1002.866455 
	C892.294312,989.952515 892.294312,977.400146 892.294312,964.482056 
	C900.555847,964.482056 908.527832,964.482056 917.499817,964.481873 
M2037.061523,1001.339172 
	C2023.159790,970.637146 2008.832031,940.116638 1995.625122,909.118530 
	C1991.838501,900.231018 1987.411499,896.468384 1977.864136,897.792786 
	C1974.294189,898.287964 1972.424316,899.036926 1970.918823,902.414307 
	C1958.819702,929.556763 1946.493164,956.597778 1934.265747,983.683228 
	C1929.166748,994.978638 1924.140503,1006.306824 1918.908325,1018.006165 
	C1924.180054,1018.006165 1928.843140,1017.862976 1933.491577,1018.062805 
	C1936.057251,1018.173157 1937.266357,1017.276794 1938.245117,1014.887634 
	C1941.454712,1007.053040 1945.058228,999.380310 1948.294800,991.556213 
	C1949.403076,988.877136 1950.839478,987.901489 1953.829834,987.926941 
	C1972.311401,988.084106 1990.795288,988.073669 2009.277100,987.937500 
	C2012.206787,987.915955 2013.728638,988.750488 2014.858032,991.519104 
	C2018.055054,999.356445 2021.504883,1007.093811 2025.025391,1014.792725 
	C2025.606812,1016.064087 2026.995239,1017.790161 2028.100098,1017.858215 
	C2033.339966,1018.181274 2038.610840,1018.002563 2044.624878,1018.002563 
	C2041.996460,1012.224060 2039.679199,1007.129761 2037.061523,1001.339172 
M652.036499,1018.004333 
	C656.648254,1016.977966 652.901428,1014.481323 652.439026,1013.448120 
	C636.895264,978.715881 620.763977,944.239441 605.742371,909.285583 
	C601.830994,900.184204 597.305176,896.335327 587.545959,897.798889 
	C584.144592,898.309021 582.405334,899.082031 580.990784,902.253357 
	C568.808105,929.566040 556.429932,956.791504 544.128235,984.051147 
	C539.089844,995.215881 534.096191,1006.400818 528.889465,1018.006226 
	C534.130615,1018.006226 538.782349,1017.877258 543.422058,1018.057922 
	C545.935913,1018.155762 547.226440,1017.391052 548.222046,1014.945251 
	C551.354004,1007.251221 554.946899,999.744812 558.080322,992.051331 
	C559.314819,989.020142 560.836426,987.839417 564.294067,987.902832 
	C577.954163,988.153442 591.621826,987.955139 605.286133,988.028992 
	C611.239380,988.061157 618.460022,986.351990 622.777527,989.095886 
	C626.876953,991.701233 627.941895,999.086121 630.333252,1004.372803 
	C632.318665,1008.762268 633.178467,1014.908447 636.576538,1017.070129 
	C640.171631,1019.357117 646.177917,1017.853821 652.036499,1018.004333 
M1547.399170,740.850647 
	C1536.630737,764.726685 1525.862305,788.602722 1514.855835,813.006531 
	C1520.076782,813.006531 1524.705444,812.794983 1529.302490,813.083679 
	C1532.186523,813.264771 1533.347290,812.063538 1534.369141,809.603149 
	C1537.616455,801.783997 1541.207886,794.107727 1544.450073,786.286621 
	C1545.501587,783.750000 1546.858643,782.911133 1549.639404,782.932312 
	C1568.287231,783.074707 1586.937256,783.076721 1605.584961,782.929993 
	C1608.407715,782.907837 1609.711914,783.873962 1610.755005,786.355713 
	C1614.482544,795.225098 1618.409302,804.010681 1622.165161,812.609070 
	C1628.281860,812.609070 1634.120850,812.609070 1640.371338,812.609070 
	C1639.576050,810.781006 1639.005615,809.423950 1638.399414,808.083008 
	C1622.872314,773.740234 1606.905273,739.585510 1592.093384,704.937073 
	C1587.980347,695.315735 1583.123657,691.105042 1572.809937,692.828003 
	C1569.979614,693.300842 1568.458374,693.944214 1567.307495,696.556335 
	C1560.882935,711.139282 1554.299438,725.652222 1547.399170,740.850647 
M1643.553467,1007.030090 
	C1644.802612,1009.926514 1645.929688,1012.885620 1647.367554,1015.685120 
	C1647.868042,1016.659851 1649.110840,1017.859802 1650.057739,1017.898315 
	C1655.315918,1018.112549 1660.587402,1018.001099 1666.373413,1018.001099 
	C1665.623657,1016.084229 1665.156494,1014.709412 1664.560669,1013.392822 
	C1648.885620,978.752502 1632.813232,944.283569 1617.774780,909.369202 
	C1613.898804,900.370178 1609.500366,896.222656 1599.658203,897.811523 
	C1596.369751,898.342407 1594.478760,898.875793 1593.022095,902.137817 
	C1578.604126,934.425598 1563.986328,966.624146 1549.440186,998.854675 
	C1546.627930,1005.085938 1543.881104,1011.346741 1540.975830,1017.882568 
	C1547.365967,1017.882568 1553.008789,1017.882568 1558.870239,1017.882568 
	C1562.736450,1009.042297 1566.660400,1000.253052 1570.404907,991.388062 
	C1571.433960,988.951904 1572.660645,987.900085 1575.528564,987.924622 
	C1594.176392,988.084656 1612.826782,988.068054 1631.474976,987.937866 
	C1634.215576,987.918701 1635.696655,988.666992 1636.709473,991.257812 
	C1638.703003,996.357422 1641.011475,1001.333923 1643.553467,1007.030090 
M1720.204102,1019.404175 
	C1725.520020,1019.594238 1730.850708,1020.134338 1736.149414,1019.912964 
	C1757.488892,1019.021362 1773.324707,1006.771179 1778.536865,986.829712 
	C1780.035400,981.096191 1780.821167,975.025879 1780.894287,969.097107 
	C1781.165283,947.114319 1781.002319,925.126099 1781.002441,903.139954 
	C1781.002441,901.532654 1781.002563,899.925354 1781.002563,898.313232 
	C1775.248779,898.313232 1770.030640,898.313232 1764.472046,898.313232 
	C1764.472046,900.428345 1764.482422,902.240417 1764.470215,904.052368 
	C1764.314453,927.196716 1764.649536,950.358215 1763.845093,973.480042 
	C1763.167847,992.945923 1751.801270,1003.974121 1731.979370,1004.627747 
	C1715.874878,1005.158875 1702.829346,999.533142 1698.393921,979.419373 
	C1697.681519,976.188293 1697.241821,972.828918 1697.218628,969.525024 
	C1697.064087,947.541199 1697.057007,925.556335 1697.003052,903.571777 
	C1696.998779,901.804260 1697.002563,900.036682 1697.002563,898.308472 
	C1691.022095,898.308472 1685.625122,898.308472 1680.125122,898.308472 
	C1680.125122,923.747192 1679.389526,948.903320 1680.330688,973.996582 
	C1681.285156,999.446655 1696.162476,1015.739197 1720.204102,1019.404175 
M767.450806,760.964355 
	C774.979736,763.501465 782.899536,765.253967 789.944214,768.763123 
	C800.011292,773.777710 801.044189,786.528198 792.493774,793.721130 
	C790.150696,795.692139 787.128662,797.692078 784.233521,798.013123 
	C775.728455,798.956177 767.058228,799.956726 758.587036,799.271973 
	C747.717773,798.393433 738.070984,793.360657 729.301392,786.337891 
	C727.058350,791.129761 725.029663,795.463806 723.003723,799.792053 
	C723.460327,800.328491 723.727356,800.744629 724.087708,801.051086 
	C741.271179,815.663757 776.980713,819.771484 796.990784,809.330139 
	C809.367920,802.871704 815.614807,792.738037 815.025024,778.569824 
	C814.488892,765.693237 807.363281,757.628662 796.072998,752.899353 
	C790.279480,750.472534 784.144531,748.850464 778.139832,746.940491 
	C769.454285,744.177856 760.571350,741.930481 752.110107,738.604675 
	C746.420593,736.368408 742.881775,731.627625 742.919434,724.973755 
	C742.958008,718.155212 746.195312,713.276489 751.973206,709.952820 
	C758.405029,706.253052 765.474243,705.732910 772.693909,705.756104 
	C784.169128,705.792969 794.463867,709.682739 804.530762,715.539124 
	C806.501770,710.681152 808.340576,706.149231 810.402710,701.066650 
	C788.182373,689.618103 765.817688,686.427673 743.046326,697.190674 
	C730.555786,703.094421 725.337708,714.157166 725.980347,727.963745 
	C726.565735,740.540833 733.347473,748.825378 744.441833,753.512268 
	C751.592163,756.533020 759.224854,758.411804 767.450806,760.964355 
M1019.562317,691.892700 
	C1014.755737,691.593262 1009.936401,690.903381 1005.144714,691.060303 
	C981.213928,691.843628 962.057617,701.589111 951.061829,723.339111 
	C939.682495,745.847961 940.847290,768.596008 955.186584,789.592346 
	C969.480042,810.521606 996.965759,819.632446 1023.081482,813.420410 
	C1034.686646,810.659973 1044.718994,805.391785 1052.581909,796.480103 
	C1048.838379,792.443726 1045.363281,788.696716 1041.881348,784.942322 
	C1020.901550,806.776489 989.291992,801.666565 974.194092,786.107422 
	C957.495361,768.898560 956.634644,739.283447 972.695374,721.506775 
	C981.692688,711.548096 993.173096,706.817871 1006.318848,706.331604 
	C1020.080872,705.822510 1032.007812,710.551941 1041.483887,720.693237 
	C1045.382202,716.829346 1049.027222,713.216553 1052.757080,709.519531 
	C1044.051392,699.670532 1033.055176,694.333679 1019.562317,691.892700 
M1879.859009,1003.707214 
	C1849.965698,1009.165710 1826.797974,990.014282 1823.358643,964.010437 
	C1819.467773,934.592590 1843.953735,908.648499 1873.376221,911.422974 
	C1885.344482,912.551575 1895.285522,917.244934 1903.371704,925.471069 
	C1907.329590,921.687744 1911.028564,918.151917 1914.713989,914.628906 
	C1898.715942,896.189453 1867.961914,890.437317 1842.657349,901.004883 
	C1817.825439,911.375183 1803.946655,935.393127 1806.100586,964.267639 
	C1808.055298,990.471375 1826.286255,1011.803345 1852.146973,1018.113892 
	C1876.784912,1024.126099 1903.768433,1016.279358 1914.555298,1000.610291 
	C1910.929199,997.153870 1907.267334,993.663574 1903.546753,990.117126 
	C1896.902222,996.832520 1889.610352,1001.584900 1879.859009,1003.707214 
M1445.191528,953.966064 
	C1445.424805,952.486511 1445.661499,951.007507 1445.890625,949.527283 
	C1449.566284,925.798157 1471.398071,909.258301 1495.430542,911.429871 
	C1507.393311,912.510803 1517.307373,917.280029 1525.264771,925.360535 
	C1529.280029,921.599670 1533.006592,918.109131 1536.716064,914.634583 
	C1520.559448,896.058411 1489.498657,890.383606 1464.149414,901.193726 
	C1439.537720,911.689270 1425.590332,936.324036 1428.137939,964.799133 
	C1430.529541,991.530518 1448.862305,1012.419861 1475.632568,1018.450073 
	C1499.321045,1023.786011 1525.663696,1016.383728 1536.539062,1000.592773 
	C1532.915771,997.140442 1529.258301,993.655518 1525.607544,990.177063 
	C1509.362549,1006.822693 1487.629517,1007.773865 1471.008301,1000.067139 
	C1453.883057,992.126770 1444.268066,975.109253 1445.191528,953.966064 
M1087.647583,775.701904 
	C1077.186035,754.564636 1081.857910,730.294739 1099.091675,716.399170 
	C1107.741699,709.424683 1117.879150,706.339417 1128.759277,706.274475 
	C1141.940430,706.195801 1153.414917,710.900696 1162.493042,720.729553 
	C1166.366089,716.869812 1170.001221,713.247070 1173.629761,709.631042 
	C1158.586670,691.586426 1127.860352,685.532471 1102.679565,695.588379 
	C1077.385254,705.689697 1063.332397,729.244446 1065.043701,758.672852 
	C1066.540894,784.418335 1084.716919,806.416199 1110.084106,812.891541 
	C1134.950928,819.239319 1162.107544,811.798157 1173.588013,795.656982 
	C1169.957642,792.186096 1166.291138,788.680664 1162.624756,785.175354 
	C1140.001709,808.925293 1101.365601,801.664490 1087.647583,775.701904 
M440.754395,918.697449 
	C437.733459,911.866333 434.712524,905.035156 431.711456,898.248962 
	C425.513275,898.248962 419.449524,898.248962 412.986603,898.248962 
	C413.577881,899.638062 414.016876,900.695190 414.475739,901.743591 
	C429.730988,936.599731 445.368835,971.296509 459.987701,1006.417480 
	C463.828308,1015.644409 468.397949,1019.774841 478.379364,1018.191101 
	C481.545746,1017.688660 483.207581,1017.106384 484.532074,1014.044434 
	C499.371552,979.739685 514.380798,945.508362 529.343323,911.256836 
	C531.214661,906.973022 533.079956,902.686646 535.125305,897.994873 
	C530.136536,897.994873 525.957092,898.229858 521.818542,897.919067 
	C518.612305,897.678284 517.191772,898.935791 515.960632,901.784790 
	C507.261963,921.914246 498.391296,941.969421 489.552246,962.038086 
	C484.679840,973.100647 479.762451,984.143433 474.492950,996.035645 
	C463.076508,969.922363 452.036316,944.669678 440.754395,918.697449 
M1273.947021,368.500000 
	C1273.947144,316.183655 1273.947266,263.867310 1273.946777,211.550964 
	C1273.946777,210.218094 1274.352783,208.687317 1273.832275,207.602676 
	C1273.186279,206.256378 1271.943604,204.586823 1270.657104,204.266129 
	C1265.847290,203.067200 1265.890747,206.300095 1265.891968,209.798523 
	C1265.941284,347.587280 1265.932861,485.376068 1265.943970,623.164856 
	C1265.944092,624.935730 1266.098022,626.706543 1266.186401,628.611084 
	C1268.916504,628.611084 1271.150024,628.611084 1273.947021,628.611084 
	C1273.947021,542.018066 1273.947021,455.759033 1273.947021,368.500000 
M773.000000,974.500000 
	C773.000000,988.916077 773.000000,1003.332153 773.000000,1017.604675 
	C800.618835,1017.604675 827.637939,1017.604675 854.577026,1017.604675 
	C854.577026,1012.607178 854.577026,1008.008240 854.577026,1002.895996 
	C832.956116,1002.895996 811.588501,1002.895996 789.816589,1002.895996 
	C789.816589,967.666931 789.816589,932.960571 789.816589,898.319275 
	C784.000916,898.319275 778.607178,898.319275 773.000000,898.319275 
	C773.000000,923.591980 773.000000,948.546021 773.000000,974.500000 
M1355.498535,1018.000000 
	C1361.236206,1018.000000 1366.973877,1018.000000 1372.563721,1018.000000 
	C1372.563721,1012.574890 1372.563721,1007.975586 1372.563721,1002.865601 
	C1350.928101,1002.865601 1329.560059,1002.865601 1307.787109,1002.865601 
	C1307.787109,967.637695 1307.787109,932.931458 1307.787109,898.334961 
	C1301.969849,898.334961 1296.572632,898.334961 1291.314209,898.334961 
	C1291.314209,938.371277 1291.314209,978.071899 1291.314209,1018.000000 
	C1312.584961,1018.000000 1333.542114,1018.000000 1355.498535,1018.000000 
M673.731873,1017.991333 
	C700.310242,1017.991333 726.888550,1017.991333 753.505798,1017.991333 
	C753.505798,1012.693726 753.505798,1007.974487 753.505798,1002.914429 
	C731.924866,1002.914429 710.673889,1002.914429 688.831177,1002.914429 
	C688.831177,967.744385 688.831177,932.915894 688.831177,898.225708 
	C682.953918,898.225708 677.674988,898.225708 672.203003,898.225708 
	C672.123230,899.058533 672.010437,899.687622 672.010254,900.316772 
	C672.000916,938.445251 671.994568,976.573792 672.032288,1014.702209 
	C672.033386,1015.771912 672.515564,1016.841003 673.731873,1017.991333 
M1675.000000,786.482056 
	C1675.000000,755.415283 1675.000000,724.348511 1675.000000,693.306763 
	C1669.027954,693.306763 1663.633423,693.306763 1658.287354,693.306763 
	C1658.287354,733.315430 1658.287354,773.016357 1658.287354,812.616699 
	C1685.596313,812.616699 1712.616089,812.616699 1739.589600,812.616699 
	C1739.589600,807.632446 1739.589600,803.034180 1739.589600,797.919678 
	C1717.981567,797.919678 1696.613892,797.919678 1675.000000,797.919678 
	C1675.000000,794.090149 1675.000000,790.782837 1675.000000,786.482056 
M1198.000122,736.500000 
	C1198.000122,761.906311 1198.000122,787.312561 1198.000122,812.693604 
	C1203.973022,812.693604 1209.366577,812.693604 1214.713867,812.693604 
	C1214.713867,772.685608 1214.713867,732.984924 1214.713867,693.306152 
	C1209.028809,693.306152 1203.634399,693.306152 1198.000122,693.306152 
	C1198.000122,707.574097 1198.000122,721.537048 1198.000122,736.500000 
M1652.737305,260.246552 
	C1654.113159,258.461365 1655.488892,256.676208 1657.436768,254.148773 
	C1648.396851,254.148773 1640.321411,254.118515 1632.246094,254.160446 
	C1627.607056,254.184525 1621.904785,252.711578 1618.629883,254.869705 
	C1615.378418,257.012360 1614.515991,262.839050 1612.702881,267.091522 
	C1610.264160,272.811676 1607.918579,278.571564 1605.309937,284.851196 
	C1613.919800,284.851196 1621.572876,285.066437 1629.199585,284.711761 
	C1631.314941,284.613403 1633.938232,283.328674 1635.322388,281.721619 
	C1641.178589,274.922577 1646.655518,267.796906 1652.737305,260.246552 
z"/>
<path fill="#0F496D" opacity="1.000000" stroke="none" 
	d="
M843.415527,537.618408 
	C837.859802,528.028503 832.509766,518.741943 826.416443,508.165192 
	C826.416443,527.111206 826.416443,544.470886 826.416443,562.408447 
	C832.861206,562.408447 839.103760,562.408447 845.588196,562.408447 
	C845.588196,570.061401 845.588196,577.138550 845.588196,584.529541 
	C801.669800,584.529541 757.912964,584.529541 713.810669,584.529541 
	C713.810669,577.486816 713.810669,570.389771 713.810669,562.670288 
	C718.795593,562.670288 723.858948,562.670288 729.918701,562.670288 
	C727.619995,556.292175 725.729065,550.720642 723.516052,545.280151 
	C723.208374,544.523743 721.315186,544.066467 720.151489,544.057678 
	C708.490112,543.969421 696.827881,544.004028 684.635010,544.004028 
	C682.847229,549.934082 681.058411,555.867737 679.071838,562.457275 
	C684.727295,562.457275 689.667053,562.457275 694.796387,562.457275 
	C694.796387,570.051880 694.796387,577.151428 694.796387,584.373352 
	C674.606079,584.373352 654.558533,584.373352 634.346863,584.373352 
	C634.346863,576.962463 634.346863,570.019836 634.346863,562.467590 
	C637.648743,562.467590 640.805664,562.171692 643.882080,562.542908 
	C647.677612,563.000793 648.963318,561.195923 650.055603,557.913696 
	C662.647949,520.074646 675.415955,482.294128 688.018738,444.458588 
	C689.052979,441.353821 690.275452,439.978577 693.868774,440.052917 
	C706.862671,440.321808 719.868652,440.317444 732.862732,440.054352 
	C736.411255,439.982483 737.734375,441.263397 738.788391,444.394958 
	C751.242798,481.399139 763.943665,518.320984 776.239685,555.377258 
	C778.041260,560.806702 780.286804,563.642883 786.243713,562.524292 
	C788.156433,562.165161 790.193481,562.468079 792.501465,562.468079 
	C792.501465,530.165588 792.501465,498.257080 792.501465,465.739746 
	C785.614929,465.739746 778.721375,465.739746 771.501038,465.739746 
	C771.501038,457.073090 771.501038,449.004517 771.501038,440.156403 
	C773.005066,440.156403 774.589172,440.156372 776.173279,440.156433 
	C796.505737,440.157104 816.839111,440.252625 837.169861,440.067200 
	C840.647888,440.035461 842.456665,441.242615 844.212341,444.105896 
	C859.080750,468.355408 874.107178,492.508087 889.096863,516.683167 
	C889.926086,518.020447 890.850098,519.299011 892.475464,521.711365 
	C892.475464,501.965271 892.475464,483.595398 892.475464,464.716675 
	C885.172424,464.716675 877.922791,464.716675 870.339355,464.716675 
	C870.339355,456.352905 870.339355,448.490784 870.339355,440.158417 
	C872.092224,440.158417 873.713928,440.158417 875.335693,440.158417 
	C923.500305,440.158783 971.673950,439.605560 1019.825806,440.389923 
	C1044.386841,440.789978 1064.483643,451.405029 1075.527222,474.398682 
	C1079.164795,481.972656 1080.258423,490.982391 1081.410400,499.485321 
	C1083.070435,511.738068 1082.859985,524.099548 1079.599976,536.179810 
	C1073.062012,560.406433 1049.842651,580.693054 1024.163086,582.810608 
	C1003.953674,584.477112 983.589294,584.341919 963.289062,584.798035 
	C952.470032,585.041138 941.640930,584.841187 930.323975,584.841187 
	C930.323975,577.482178 930.323975,570.264832 930.323975,562.481934 
	C934.415833,562.481934 938.663513,562.481934 943.185242,562.481934 
	C943.185242,529.689758 943.185242,497.450836 943.185242,464.870392 
	C935.151917,464.870392 927.263794,464.870392 918.899536,464.870392 
	C918.899536,504.710114 918.899536,544.462036 918.899536,584.841187 
	C914.173706,584.841187 909.898193,584.841125 905.622681,584.841187 
	C895.289795,584.841187 884.955811,584.758972 874.624756,584.895996 
	C871.846130,584.932861 870.170654,584.226990 868.708618,581.626892 
	C860.475525,566.985779 852.008484,552.476257 843.415527,537.618408 
M997.528687,546.492737 
	C997.528687,549.823486 997.261475,553.186890 997.661865,556.468811 
	C997.819214,557.758911 999.304565,559.703003 1000.464233,559.931152 
	C1015.136658,562.817444 1029.796631,556.062744 1035.627441,542.395691 
	C1043.864624,523.088257 1045.053467,502.936462 1037.898804,483.017761 
	C1032.557495,468.147675 1012.506348,459.419952 997.528442,464.678711 
	C997.528442,491.554199 997.528442,518.524963 997.528687,546.492737 
M703.007996,490.554871 
	C700.226440,499.885651 697.444885,509.216431 694.590393,518.791992 
	C701.993042,518.791992 708.894287,518.791992 716.266663,518.791992 
	C712.654175,507.393463 709.149109,496.333862 705.267273,484.085388 
	C704.284424,486.790771 703.738037,488.294891 703.007996,490.554871 
z"/>
<path fill="#0E486C" opacity="1.000000" stroke="none" 
	d="
M1685.228271,404.708527 
	C1692.577148,395.076111 1699.926025,385.443695 1707.383179,375.669250 
	C1718.924927,384.035339 1730.810425,390.694702 1744.416748,393.355530 
	C1749.389893,394.328064 1754.689819,394.302490 1759.753662,393.819641 
	C1761.900391,393.614929 1765.062134,391.342438 1765.482666,389.491669 
	C1765.866943,387.800598 1763.648926,384.456238 1761.747070,383.510132 
	C1756.424072,380.862091 1750.611572,379.221039 1745.100464,376.923065 
	C1733.487305,372.080536 1721.228882,368.272003 1710.513184,361.892761 
	C1685.098267,346.762787 1689.914062,314.909515 1708.962646,300.953491 
	C1720.870483,292.229034 1734.541748,289.276306 1748.927002,288.868256 
	C1772.382080,288.202881 1794.209595,293.147156 1813.038452,308.030640 
	C1814.080200,308.854065 1815.092651,309.719055 1816.068481,310.619171 
	C1816.540649,311.054749 1816.896362,311.616547 1817.621216,312.511566 
	C1809.907471,321.045319 1802.248535,329.518555 1795.392212,337.103851 
	C1784.022583,332.742004 1773.350830,328.230286 1762.374268,324.653900 
	C1758.303955,323.327698 1753.456787,323.719086 1749.087036,324.281769 
	C1747.138184,324.532745 1744.363159,326.938660 1744.039062,328.740021 
	C1743.736450,330.421539 1745.745850,333.632507 1747.497681,334.373627 
	C1754.356689,337.275330 1761.564697,339.337372 1768.553101,341.951782 
	C1778.334229,345.610962 1788.485962,348.621155 1797.687622,353.425140 
	C1828.227539,369.369293 1820.530640,405.041199 1799.283691,418.354523 
	C1788.697632,424.987701 1777.055420,427.830811 1764.837402,428.985168 
	C1763.691040,429.093506 1762.541260,429.165070 1761.237915,429.649719 
	C1780.747314,431.963776 1799.083008,436.496826 1810.195312,454.799011 
	C1815.769531,463.979980 1816.786499,474.083252 1815.951538,484.768799 
	C1800.320068,484.768799 1784.884521,484.768799 1769.199707,484.768799 
	C1768.882812,482.388031 1768.762695,479.938202 1768.206665,477.591705 
	C1766.308960,469.582520 1759.117188,465.644135 1751.327881,468.211029 
	C1744.489624,470.464447 1742.638550,478.825165 1748.413208,483.255035 
	C1752.169312,486.136322 1756.692871,488.145691 1761.092163,490.034332 
	C1771.614868,494.551697 1782.548828,498.196014 1792.796875,503.247467 
	C1805.815552,509.664734 1814.915405,519.762329 1816.820312,534.861389 
	C1819.712524,557.786621 1807.583252,578.012146 1785.640747,586.078857 
	C1765.067993,593.642090 1744.076538,593.553162 1723.462524,586.531433 
	C1700.914307,578.850830 1690.355469,561.575256 1692.297852,537.153687 
	C1707.669556,537.153687 1723.072021,537.153687 1738.830444,537.153687 
	C1738.984375,538.292419 1739.134521,539.547607 1739.325928,540.796448 
	C1740.915527,551.164734 1749.138306,556.371887 1759.043701,552.570190 
	C1761.645142,551.571838 1764.471802,548.281860 1764.996948,545.612000 
	C1765.463379,543.240845 1763.606201,539.155090 1761.500854,537.787598 
	C1756.550903,534.572571 1750.890747,532.413025 1745.425537,530.038940 
	C1736.747192,526.269165 1727.703491,523.232361 1719.330444,518.890076 
	C1700.126221,508.930664 1691.832642,494.367340 1693.715332,475.541199 
	C1695.808594,454.608673 1707.531372,440.261871 1727.872070,434.110229 
	C1732.467041,432.720612 1737.279785,432.055634 1741.985474,431.025757 
	C1743.528442,430.688019 1745.049927,430.251160 1746.562622,429.543365 
	C1725.894775,427.291870 1706.470215,421.898102 1689.144287,408.783386 
	C1687.532593,407.090302 1686.380493,405.899414 1685.228271,404.708527 
z"/>
<path fill="#0D476C" opacity="1.000000" stroke="none" 
	d="
M1538.981445,425.164856 
	C1524.847168,425.164856 1511.209106,425.164856 1497.196045,425.164856 
	C1497.196045,402.616730 1497.196045,380.351257 1497.196045,358.085754 
	C1496.918579,358.040253 1496.640991,357.994720 1496.363525,357.949219 
	C1489.903198,380.301514 1483.442993,402.653809 1476.978027,425.022156 
	C1462.586792,425.022156 1448.615601,425.022156 1433.990845,425.022156 
	C1427.860107,402.830170 1421.698242,380.525696 1415.536377,358.221222 
	C1415.385498,358.235962 1415.234741,358.250702 1415.083984,358.265442 
	C1415.083984,380.325348 1415.083984,402.385254 1415.083984,424.805023 
	C1399.734741,424.805023 1384.670044,424.805023 1369.219238,424.805023 
	C1369.219238,381.149536 1369.219238,337.298981 1369.219238,292.999573 
	C1376.387695,292.999573 1383.510742,292.999573 1390.633789,292.999573 
	C1406.630127,292.999573 1422.628296,293.130035 1438.621460,292.902222 
	C1442.333984,292.849365 1443.718384,294.017303 1444.644531,297.551758 
	C1449.319946,315.396393 1454.294067,333.162750 1459.177612,350.952637 
	C1459.480957,352.057343 1459.906128,353.128601 1460.326538,354.368530 
	C1465.976929,333.831512 1471.557251,313.548462 1477.152100,293.213043 
	C1501.168823,293.213043 1524.936279,293.213043 1548.936401,293.213043 
	C1548.936401,337.158539 1548.936401,380.890533 1548.936401,425.164856 
	C1545.707764,425.164856 1542.592651,425.164856 1538.981445,425.164856 
z"/>
<path fill="#DDCEA3" opacity="1.000000" stroke="none" 
	d="
M810.590698,411.953674 
	C791.905029,413.598785 774.612549,411.099091 759.103516,400.541931 
	C737.571411,385.884827 724.916809,366.094360 723.966064,339.615265 
	C723.373901,323.121582 726.553162,307.488983 735.714355,293.490173 
	C748.764282,273.549133 767.215088,262.355835 790.818970,258.839844 
	C814.501160,255.312164 834.131958,262.969879 850.652283,279.345795 
	C864.179138,292.754425 870.485901,309.758759 873.005554,328.351227 
	C874.275818,337.724670 875.263550,347.026184 882.595276,354.394135 
	C889.856384,361.691193 898.488281,363.569061 907.785217,361.365997 
	C914.361877,359.807617 920.489136,356.352783 926.542786,353.857605 
	C929.083679,360.477875 931.464355,368.459747 935.162598,375.775452 
	C938.349854,382.080353 942.747192,387.858551 947.178955,393.415466 
	C949.595764,396.445770 948.999146,397.603577 946.181274,399.543060 
	C934.973022,407.257538 922.657410,413.112091 909.133057,412.653107 
	C873.167053,411.432495 840.862305,394.879425 831.282837,352.712921 
	C829.616577,345.378479 830.728333,337.456909 829.915466,329.875305 
	C828.290649,314.719757 814.106750,301.084595 799.319092,301.353729 
	C785.977478,301.596466 773.988953,310.291229 770.039795,325.018860 
	C766.509277,338.184906 771.254333,349.054901 780.838562,357.754822 
	C790.408325,366.441559 801.702698,367.138306 813.513245,362.684998 
	C815.009338,362.120911 816.466370,361.453125 818.269287,360.695709 
	C822.138367,375.859528 830.041382,388.224274 840.335022,399.747986 
	C831.520203,406.812317 821.527649,409.934662 810.590698,411.953674 
z"/>
<path fill="#0E486C" opacity="1.000000" stroke="none" 
	d="
M1488.440552,564.414734 
	C1499.616821,522.085205 1510.655884,480.143402 1521.667603,438.194519 
	C1522.221069,436.086548 1522.311646,434.079498 1525.494263,434.100311 
	C1544.478638,434.224548 1563.464111,434.161774 1582.868164,434.161774 
	C1596.149902,485.015289 1609.404175,535.763428 1622.738525,586.818115 
	C1604.242432,586.818115 1586.294189,586.818115 1568.006958,586.818115 
	C1566.674927,580.323669 1565.511230,573.797607 1563.876953,567.391541 
	C1563.543945,566.086609 1561.481445,564.379089 1560.146973,564.315674 
	C1553.497437,564.000183 1546.821533,564.290588 1540.161743,564.113953 
	C1537.448730,564.042053 1536.404541,564.992493 1535.874390,567.627075 
	C1534.600342,573.959290 1532.976074,580.221069 1531.441406,586.730530 
	C1515.212891,586.730530 1499.145386,586.730530 1482.689819,586.730530 
	C1484.602905,579.249756 1486.450317,572.025452 1488.440552,564.414734 
M1553.283203,534.181946 
	C1554.739502,534.099915 1556.195923,534.017944 1557.861450,533.924194 
	C1555.813354,520.824219 1553.824829,508.105927 1551.836426,495.387634 
	C1551.652222,495.401764 1551.468018,495.415924 1551.283813,495.430054 
	C1548.767944,508.194763 1546.252197,520.959473 1543.646240,534.182007 
	C1547.064941,534.182007 1549.704590,534.182007 1553.283203,534.181946 
z"/>
<path fill="#0E486C" opacity="1.000000" stroke="none" 
	d="
M1423.166260,571.996704 
	C1423.166382,577.136475 1423.166382,581.776794 1423.166382,586.707886 
	C1404.982056,586.707886 1387.066040,586.707886 1368.810547,586.707886 
	C1368.810547,536.080322 1368.810547,485.395630 1368.810547,434.785645 
	C1369.258789,434.550049 1369.537109,434.274841 1369.813965,434.276489 
	C1397.608643,434.440643 1425.451050,433.684265 1453.183594,435.090149 
	C1477.958862,436.346100 1492.235840,451.871643 1493.651367,476.524200 
	C1494.144775,485.116577 1493.977417,493.920197 1492.675171,502.406891 
	C1489.814941,521.048767 1473.975708,534.484253 1453.916382,535.931580 
	C1445.629272,536.529541 1437.286621,536.358643 1428.968872,536.522400 
	C1427.189087,536.557434 1425.407837,536.527527 1423.166260,536.527527 
	C1423.166260,548.588806 1423.166260,560.042969 1423.166260,571.996704 
M1423.143433,484.509155 
	C1423.143433,491.399475 1423.143433,498.289795 1423.143433,505.481659 
	C1426.967651,505.481659 1430.108276,505.658447 1433.221191,505.440155 
	C1437.877563,505.113647 1440.595581,502.404999 1440.749390,497.771606 
	C1440.963745,491.308441 1440.955933,484.826843 1440.726807,478.364380 
	C1440.600220,474.796417 1438.873779,471.674286 1435.032349,471.200592 
	C1431.205200,470.728760 1427.274658,471.097229 1423.143433,471.097229 
	C1423.143433,475.584015 1423.143433,479.548584 1423.143433,484.509155 
z"/>
<path fill="#0E486C" opacity="1.000000" stroke="none" 
	d="
M1619.000000,292.998077 
	C1628.830078,292.998016 1638.163330,292.879395 1647.487305,293.118591 
	C1648.981689,293.156921 1651.361206,294.490234 1651.772095,295.738312 
	C1661.955200,326.664917 1671.929321,357.660339 1681.927002,388.647919 
	C1682.022339,388.943390 1681.938843,389.296509 1681.938843,390.528992 
	C1676.464966,390.528992 1670.915894,390.471924 1665.368530,390.545990 
	C1660.398804,390.612335 1654.195801,389.073273 1650.810059,391.462921 
	C1647.434204,393.845703 1646.823730,400.209167 1645.108765,404.867126 
	C1642.899292,410.869141 1640.797241,416.910706 1638.152344,424.327850 
	C1636.162964,416.765167 1634.535522,410.578461 1632.889282,404.319855 
	C1623.318726,404.319855 1614.013550,404.319855 1604.251099,404.319855 
	C1602.560425,410.120392 1600.986938,416.020447 1599.047852,421.797882 
	C1598.599121,423.134705 1596.915771,425.003387 1595.777710,425.019531 
	C1580.636719,425.234772 1565.491699,425.163330 1549.707642,425.163330 
	C1564.016113,380.872528 1578.172974,337.051300 1592.404785,292.998077 
	C1601.202393,292.998077 1609.851196,292.998077 1619.000000,292.998077 
M1624.196777,366.150146 
	C1622.976440,360.065002 1621.756226,353.979858 1620.536011,347.894714 
	C1620.196045,347.875000 1619.856201,347.855286 1619.516357,347.835571 
	C1617.160278,357.425385 1614.804321,367.015198 1612.394531,376.823242 
	C1617.283691,376.823242 1621.554565,376.823242 1626.326538,376.823242 
	C1625.645264,373.363098 1625.017090,370.172302 1624.196777,366.150146 
z"/>
<path fill="#0E486D" opacity="1.000000" stroke="none" 
	d="
M1153.239746,559.238159 
	C1160.324951,559.408813 1166.955811,559.408813 1173.791504,559.408813 
	C1173.791504,568.044678 1173.791504,576.143066 1173.791504,584.541687 
	C1144.606079,584.541687 1115.542114,584.541687 1086.151123,584.541687 
	C1086.151123,576.547852 1086.151123,568.621521 1086.151123,560.092041 
	C1093.341309,560.092041 1100.743896,560.092041 1108.213623,560.092041 
	C1108.213623,527.565979 1108.213623,495.640106 1108.213623,463.365234 
	C1100.849854,463.365234 1093.730103,463.365234 1086.219238,463.365234 
	C1086.219238,455.633728 1086.219238,448.235931 1086.219238,440.495605 
	C1114.822021,440.495605 1143.540527,440.495605 1172.550659,440.495605 
	C1172.550659,447.871063 1172.550659,455.125397 1172.550659,462.936096 
	C1166.034424,462.936096 1159.473511,462.936096 1152.603149,462.936096 
	C1152.426025,464.715057 1152.191162,465.979584 1152.190186,467.244293 
	C1152.167725,496.572052 1152.162720,525.899780 1152.194824,555.227539 
	C1152.196167,556.507690 1152.579712,557.787537 1153.239746,559.238159 
z"/>
<path fill="#0D476C" opacity="1.000000" stroke="none" 
	d="
M1627.834473,483.999939 
	C1627.834473,467.221649 1627.834473,450.943359 1627.834473,434.416016 
	C1646.055786,434.416016 1663.794189,434.416016 1681.849854,434.416016 
	C1681.849854,485.107330 1681.849854,535.667603 1681.849854,586.614563 
	C1664.178345,586.614563 1646.313232,586.614563 1627.834473,586.614563 
	C1627.834473,552.635315 1627.834473,518.567627 1627.834473,483.999939 
z"/>
<path fill="#DED0A5" opacity="1.000000" stroke="none" 
	d="
M885.215515,319.331604 
	C880.775269,323.275177 880.112183,323.087006 878.759338,317.688873 
	C875.227295,303.594330 869.581848,290.630585 858.894775,280.346588 
	C856.212769,277.765717 856.526794,275.830048 859.591736,273.529510 
	C872.313782,263.980682 886.392639,258.844025 902.390747,257.806213 
	C939.594788,255.392715 972.769104,280.683075 981.266602,314.859680 
	C982.933777,321.564636 983.647339,328.625214 983.849060,335.549500 
	C984.190918,347.288910 993.994385,361.702026 1011.800964,360.221558 
	C1024.418213,359.172516 1034.586182,347.613739 1034.033813,333.638702 
	C1033.327026,315.756714 1012.316528,304.449799 996.893982,313.651672 
	C990.394592,317.529480 988.287231,316.846283 986.090515,309.812225 
	C982.258667,297.542053 976.440491,286.537994 966.814819,277.725372 
	C963.442810,274.638214 964.271240,270.179199 968.481873,267.870605 
	C978.954834,262.128571 990.038391,258.631897 1002.094116,257.851440 
	C1020.182861,256.680481 1036.762085,260.830902 1051.440552,271.344086 
	C1069.867188,284.541779 1081.019043,302.229950 1084.177856,325.066040 
	C1088.820435,358.626556 1070.319580,390.103638 1042.132202,404.338135 
	C1014.177246,418.455231 980.250549,414.014832 956.919617,393.573792 
	C939.280823,378.119751 930.389954,358.681274 929.994751,335.291595 
	C929.811584,324.448669 923.663757,315.063507 913.934814,311.593201 
	C902.864136,307.644287 893.361511,310.502258 885.215515,319.331604 
M1076.014893,326.787018 
	C1072.139282,300.948395 1058.641846,282.003235 1034.645630,271.552612 
	C1014.697571,262.865051 994.693665,263.960876 975.614380,273.704132 
	C981.990173,284.609375 988.076416,295.019287 994.273010,305.618073 
	C994.446533,305.554474 995.079651,305.372681 995.669983,305.098724 
	C1018.205139,294.639557 1043.449829,312.952911 1042.177612,336.707581 
	C1041.443481,350.415833 1032.905518,362.614349 1019.486877,367.010803 
	C1006.004944,371.428009 991.282471,366.678558 982.828613,355.934937 
	C976.876282,348.370361 975.646057,339.590820 975.093445,330.657135 
	C974.056091,313.888947 968.465454,299.149414 956.561401,287.189178 
	C939.134155,269.679749 918.027588,262.819519 893.712158,267.221619 
	C885.305969,268.743500 877.167847,271.803925 870.823792,277.026001 
	C876.415466,287.064636 881.793396,296.719604 887.261475,306.536407 
	C887.182373,306.563202 887.675598,306.472473 888.093262,306.243683 
	C908.434875,295.101593 932.086670,305.589142 937.174561,328.170654 
	C938.188477,332.670563 938.520996,337.350555 938.864746,341.970062 
	C940.065857,358.112396 946.702515,371.905365 957.914551,383.188934 
	C975.315063,400.700592 996.631653,407.274139 1020.900391,402.764038 
	C1036.024414,399.953400 1048.882202,392.533813 1059.097290,380.840820 
	C1072.423218,365.586700 1077.760742,347.781891 1076.014893,326.787018 
z"/>
<path fill="#0E486C" opacity="1.000000" stroke="none" 
	d="
M1412.001221,738.018677 
	C1412.001221,763.149902 1412.001221,787.784424 1412.001221,812.710083 
	C1406.334351,812.710083 1400.937134,812.710083 1395.266113,812.710083 
	C1395.266113,772.954834 1395.266113,733.230042 1395.266113,693.000244 
	C1399.278564,693.000244 1403.251465,692.740417 1407.159180,693.132019 
	C1408.657349,693.282166 1410.343384,694.646301 1411.374268,695.918762 
	C1432.967407,722.571777 1454.477783,749.291870 1476.008667,775.995422 
	C1477.354248,777.664185 1478.733765,779.305542 1480.677490,781.663513 
	C1480.677490,751.808960 1480.677490,722.781616 1480.677490,693.376709 
	C1486.479248,693.376709 1491.883789,693.376709 1497.647583,693.376709 
	C1497.647583,732.869568 1497.647583,772.594666 1497.647583,812.984436 
	C1493.582642,812.984436 1489.307495,813.219482 1485.086548,812.844238 
	C1483.784912,812.728638 1482.421509,811.118286 1481.440796,809.905640 
	C1459.974609,783.364441 1438.559814,756.781738 1417.128906,730.211914 
	C1415.717041,728.461548 1414.254395,726.752258 1412.001343,724.046448 
	C1412.001343,729.352905 1412.001343,733.437439 1412.001221,738.018677 
z"/>
<path fill="#0E496C" opacity="1.000000" stroke="none" 
	d="
M1089.834717,898.002197 
	C1111.636475,899.590698 1129.957397,907.025574 1141.583618,926.001465 
	C1159.768677,955.682739 1151.703003,1009.956665 1097.995850,1016.683044 
	C1077.531860,1019.246033 1056.477905,1017.099915 1035.343506,1017.099915 
	C1035.343506,978.126465 1035.343506,938.415161 1035.343506,897.998474 
	C1053.214966,897.998474 1071.285767,897.998474 1089.834717,898.002197 
M1052.000488,982.499878 
	C1052.000488,989.263245 1052.000488,996.026611 1052.000488,1002.030396 
	C1067.090820,1002.030396 1081.684204,1003.315125 1095.959229,1001.731445 
	C1117.756714,999.313354 1131.925293,982.213623 1132.868896,959.992432 
	C1133.817383,937.656677 1121.368774,919.215271 1099.802612,915.242126 
	C1084.317017,912.389282 1068.181641,913.064331 1052.000488,912.146484 
	C1052.000488,936.223877 1052.000488,958.861877 1052.000488,982.499878 
z"/>
<path fill="#104A6E" opacity="1.000000" stroke="none" 
	d="
M1282.332397,811.686157 
	C1253.903198,800.993835 1239.086060,777.680054 1241.071655,747.207336 
	C1242.823730,720.316040 1262.007935,698.520081 1289.263672,692.454285 
	C1318.230103,686.007812 1346.957031,697.570007 1360.226074,721.822754 
	C1381.391602,760.508484 1359.719971,814.085388 1306.327026,814.843872 
	C1298.468140,814.955566 1290.578369,812.886353 1282.332397,811.686157 
M1258.170044,749.860535 
	C1256.759888,782.610535 1284.208618,805.861938 1315.534668,798.453186 
	C1340.929565,792.447266 1355.699951,767.883484 1349.652222,741.714905 
	C1343.808838,716.430969 1319.149902,701.632019 1293.471436,707.542175 
	C1277.463867,711.226562 1260.496704,724.557434 1258.170044,749.860535 
z"/>
<path fill="#0D486C" opacity="1.000000" stroke="none" 
	d="
M1247.990723,913.000000 
	C1229.524292,913.000000 1211.555786,913.000000 1193.294189,913.000000 
	C1193.294189,925.328674 1193.294189,937.390991 1193.294189,949.904053 
	C1213.037476,949.904053 1232.768433,949.904053 1252.747070,949.904053 
	C1252.747070,954.921204 1252.747070,959.491211 1252.747070,964.543396 
	C1232.794312,964.543396 1213.046753,964.543396 1193.153687,964.543396 
	C1193.153687,977.479248 1193.153687,989.934021 1193.153687,1002.931091 
	C1216.282837,1002.931091 1239.327148,1002.931091 1262.600586,1002.931091 
	C1262.600586,1008.066284 1262.600586,1012.666321 1262.600586,1017.634827 
	C1233.900513,1017.634827 1205.200439,1017.634827 1176.248779,1017.634827 
	C1176.248779,977.920227 1176.248779,938.198975 1176.248779,898.238647 
	C1204.279297,898.238647 1232.177612,898.238647 1260.278687,898.238647 
	C1260.278687,903.092834 1260.278687,907.714539 1260.278687,913.000000 
	C1256.351196,913.000000 1252.419800,913.000000 1247.990723,913.000000 
z"/>
<path fill="#0D476C" opacity="1.000000" stroke="none" 
	d="
M889.000000,798.000000 
	C901.785522,798.000000 914.071045,798.000000 926.594543,798.000000 
	C926.594543,803.050110 926.594543,807.650208 926.594543,812.627686 
	C897.916870,812.627686 869.216858,812.627686 840.257324,812.627686 
	C840.257324,772.937012 840.257324,733.215942 840.257324,693.247009 
	C868.260315,693.247009 896.157532,693.247009 924.268555,693.247009 
	C924.268555,698.070496 924.268555,702.687683 924.268555,707.781494 
	C902.052124,707.781494 879.826050,707.781494 857.301758,707.781494 
	C857.301758,720.313660 857.301758,732.375977 857.301758,744.889099 
	C877.023193,744.889099 896.753723,744.889099 916.740234,744.889099 
	C916.740234,749.903931 916.740234,754.472595 916.740234,759.528076 
	C896.805115,759.528076 877.059814,759.528076 857.161499,759.528076 
	C857.161499,772.466797 857.161499,784.920532 857.161499,798.000000 
	C867.648132,798.000000 878.074036,798.000000 889.000000,798.000000 
z"/>
<path fill="#0D486C" opacity="1.000000" stroke="none" 
	d="
M916.999756,964.481934 
	C908.527832,964.482056 900.555847,964.482056 892.294312,964.482056 
	C892.294312,977.400146 892.294312,989.952515 892.294312,1002.866455 
	C915.289001,1002.866455 938.216064,1002.866455 961.489441,1002.866455 
	C961.489441,1007.937805 961.489441,1012.662109 961.489441,1017.696777 
	C932.906738,1017.696777 904.322205,1017.696777 875.368469,1017.696777 
	C875.368469,978.160645 875.368469,938.439026 875.368469,898.358337 
	C903.021484,898.358337 930.902954,898.358337 959.131470,898.358337 
	C959.131470,903.009583 959.131470,907.733459 959.131470,912.926392 
	C936.952393,912.926392 914.708557,912.926392 892.234863,912.926392 
	C892.234863,925.449951 892.234863,937.511230 892.234863,949.846069 
	C912.040588,949.846069 931.650085,949.846069 951.629272,949.846069 
	C951.629272,954.658020 951.629272,959.214050 951.629272,964.481873 
	C940.312561,964.481873 928.906189,964.481873 916.999756,964.481934 
z"/>
<path fill="#104A6D" opacity="1.000000" stroke="none" 
	d="
M2037.211670,1001.687317 
	C2039.679199,1007.129761 2041.996460,1012.224060 2044.624878,1018.002563 
	C2038.610840,1018.002563 2033.339966,1018.181274 2028.100098,1017.858215 
	C2026.995239,1017.790161 2025.606812,1016.064087 2025.025391,1014.792725 
	C2021.504883,1007.093811 2018.055054,999.356445 2014.858032,991.519104 
	C2013.728638,988.750488 2012.206787,987.915955 2009.277100,987.937500 
	C1990.795288,988.073669 1972.311401,988.084106 1953.829834,987.926941 
	C1950.839478,987.901489 1949.403076,988.877136 1948.294800,991.556213 
	C1945.058228,999.380310 1941.454712,1007.053040 1938.245117,1014.887634 
	C1937.266357,1017.276794 1936.057251,1018.173157 1933.491577,1018.062805 
	C1928.843140,1017.862976 1924.180054,1018.006165 1918.908325,1018.006165 
	C1924.140503,1006.306824 1929.166748,994.978638 1934.265747,983.683228 
	C1946.493164,956.597778 1958.819702,929.556763 1970.918823,902.414307 
	C1972.424316,899.036926 1974.294189,898.287964 1977.864136,897.792786 
	C1987.411499,896.468384 1991.838501,900.231018 1995.625122,909.118530 
	C2008.832031,940.116638 2023.159790,970.637146 2037.211670,1001.687317 
M1994.396240,945.121033 
	C1990.199341,935.553894 1986.002441,925.986816 1981.562622,915.865906 
	C1972.986938,935.459900 1964.684204,954.430359 1956.164551,973.896362 
	C1973.448486,973.896362 1989.982056,973.896362 2006.959839,973.896362 
	C2002.810913,964.326416 1998.791504,955.055298 1994.396240,945.121033 
z"/>
<path fill="#104A6D" opacity="1.000000" stroke="none" 
	d="
M651.583740,1018.005249 
	C646.177917,1017.853821 640.171631,1019.357117 636.576538,1017.070129 
	C633.178467,1014.908447 632.318665,1008.762268 630.333252,1004.372803 
	C627.941895,999.086121 626.876953,991.701233 622.777527,989.095886 
	C618.460022,986.351990 611.239380,988.061157 605.286133,988.028992 
	C591.621826,987.955139 577.954163,988.153442 564.294067,987.902832 
	C560.836426,987.839417 559.314819,989.020142 558.080322,992.051331 
	C554.946899,999.744812 551.354004,1007.251221 548.222046,1014.945251 
	C547.226440,1017.391052 545.935913,1018.155762 543.422058,1018.057922 
	C538.782349,1017.877258 534.130615,1018.006226 528.889465,1018.006226 
	C534.096191,1006.400818 539.089844,995.215881 544.128235,984.051147 
	C556.429932,956.791504 568.808105,929.566040 580.990784,902.253357 
	C582.405334,899.082031 584.144592,898.309021 587.545959,897.798889 
	C597.305176,896.335327 601.830994,900.184204 605.742371,909.285583 
	C620.763977,944.239441 636.895264,978.715881 652.439026,1013.448120 
	C652.901428,1014.481323 656.648254,1016.977966 651.583740,1018.005249 
M571.737915,961.224854 
	C569.922485,965.344666 568.107056,969.464478 566.128601,973.954163 
	C583.640259,973.954163 600.075745,973.954163 617.045837,973.954163 
	C608.539734,954.563965 600.196899,935.545959 591.569946,915.880310 
	C584.808594,931.301025 578.405273,945.905151 571.737915,961.224854 
z"/>
<path fill="#104A6D" opacity="1.000000" stroke="none" 
	d="
M1547.584717,740.519897 
	C1554.299438,725.652222 1560.882935,711.139282 1567.307495,696.556335 
	C1568.458374,693.944214 1569.979614,693.300842 1572.809937,692.828003 
	C1583.123657,691.105042 1587.980347,695.315735 1592.093384,704.937073 
	C1606.905273,739.585510 1622.872314,773.740234 1638.399414,808.083008 
	C1639.005615,809.423950 1639.576050,810.781006 1640.371338,812.609070 
	C1634.120850,812.609070 1628.281860,812.609070 1622.165161,812.609070 
	C1618.409302,804.010681 1614.482544,795.225098 1610.755005,786.355713 
	C1609.711914,783.873962 1608.407715,782.907837 1605.584961,782.929993 
	C1586.937256,783.076721 1568.287231,783.074707 1549.639404,782.932312 
	C1546.858643,782.911133 1545.501587,783.750000 1544.450073,786.286621 
	C1541.207886,794.107727 1537.616455,801.783997 1534.369141,809.603149 
	C1533.347290,812.063538 1532.186523,813.264771 1529.302490,813.083679 
	C1524.705444,812.794983 1520.076782,813.006531 1514.855835,813.006531 
	C1525.862305,788.602722 1536.630737,764.726685 1547.584717,740.519897 
M1590.477295,769.161499 
	C1594.515625,769.161499 1598.553833,769.161499 1603.139771,769.161499 
	C1594.472046,749.397888 1586.154419,730.432373 1577.565186,710.847839 
	C1568.960449,730.525208 1560.639648,749.553223 1552.065186,769.161560 
	C1565.203491,769.161560 1577.343628,769.161560 1590.477295,769.161499 
z"/>
<path fill="#104A6D" opacity="1.000000" stroke="none" 
	d="
M1643.371582,1006.695679 
	C1641.011475,1001.333923 1638.703003,996.357422 1636.709473,991.257812 
	C1635.696655,988.666992 1634.215576,987.918701 1631.474976,987.937866 
	C1612.826782,988.068054 1594.176392,988.084656 1575.528564,987.924622 
	C1572.660645,987.900085 1571.433960,988.951904 1570.404907,991.388062 
	C1566.660400,1000.253052 1562.736450,1009.042297 1558.870239,1017.882568 
	C1553.008789,1017.882568 1547.365967,1017.882568 1540.975830,1017.882568 
	C1543.881104,1011.346741 1546.627930,1005.085938 1549.440186,998.854675 
	C1563.986328,966.624146 1578.604126,934.425598 1593.022095,902.137817 
	C1594.478760,898.875793 1596.369751,898.342407 1599.658203,897.811523 
	C1609.500366,896.222656 1613.898804,900.370178 1617.774780,909.369202 
	C1632.813232,944.283569 1648.885620,978.752502 1664.560669,1013.392822 
	C1665.156494,1014.709412 1665.623657,1016.084229 1666.373413,1018.001099 
	C1660.587402,1018.001099 1655.315918,1018.112549 1650.057739,1017.898315 
	C1649.110840,1017.859802 1647.868042,1016.659851 1647.367554,1015.685120 
	C1645.929688,1012.885620 1644.802612,1009.926514 1643.371582,1006.695679 
M1609.056763,928.417542 
	C1607.312988,924.455811 1605.569092,920.494019 1603.543823,915.892822 
	C1594.912598,935.621155 1586.635864,954.539307 1578.151489,973.932007 
	C1595.452148,973.932007 1611.977783,973.932007 1629.044922,973.932007 
	C1622.389526,958.789612 1615.869751,943.955566 1609.056763,928.417542 
z"/>
<path fill="#0E496C" opacity="1.000000" stroke="none" 
	d="
M1719.771973,1019.315063 
	C1696.162476,1015.739197 1681.285156,999.446655 1680.330688,973.996582 
	C1679.389526,948.903320 1680.125122,923.747192 1680.125122,898.308472 
	C1685.625122,898.308472 1691.022095,898.308472 1697.002563,898.308472 
	C1697.002563,900.036682 1696.998779,901.804260 1697.003052,903.571777 
	C1697.057007,925.556335 1697.064087,947.541199 1697.218628,969.525024 
	C1697.241821,972.828918 1697.681519,976.188293 1698.393921,979.419373 
	C1702.829346,999.533142 1715.874878,1005.158875 1731.979370,1004.627747 
	C1751.801270,1003.974121 1763.167847,992.945923 1763.845093,973.480042 
	C1764.649536,950.358215 1764.314453,927.196716 1764.470215,904.052368 
	C1764.482422,902.240417 1764.472046,900.428345 1764.472046,898.313232 
	C1770.030640,898.313232 1775.248779,898.313232 1781.002563,898.313232 
	C1781.002563,899.925354 1781.002441,901.532654 1781.002441,903.139954 
	C1781.002319,925.126099 1781.165283,947.114319 1780.894287,969.097107 
	C1780.821167,975.025879 1780.035400,981.096191 1778.536865,986.829712 
	C1773.324707,1006.771179 1757.488892,1019.021362 1736.149414,1019.912964 
	C1730.850708,1020.134338 1725.520020,1019.594238 1719.771973,1019.315063 
z"/>
<path fill="#104A6D" opacity="1.000000" stroke="none" 
	d="
M767.046082,760.883362 
	C759.224854,758.411804 751.592163,756.533020 744.441833,753.512268 
	C733.347473,748.825378 726.565735,740.540833 725.980347,727.963745 
	C725.337708,714.157166 730.555786,703.094421 743.046326,697.190674 
	C765.817688,686.427673 788.182373,689.618103 810.402710,701.066650 
	C808.340576,706.149231 806.501770,710.681152 804.530762,715.539124 
	C794.463867,709.682739 784.169128,705.792969 772.693909,705.756104 
	C765.474243,705.732910 758.405029,706.253052 751.973206,709.952820 
	C746.195312,713.276489 742.958008,718.155212 742.919434,724.973755 
	C742.881775,731.627625 746.420593,736.368408 752.110107,738.604675 
	C760.571350,741.930481 769.454285,744.177856 778.139832,746.940491 
	C784.144531,748.850464 790.279480,750.472534 796.072998,752.899353 
	C807.363281,757.628662 814.488892,765.693237 815.025024,778.569824 
	C815.614807,792.738037 809.367920,802.871704 796.990784,809.330139 
	C776.980713,819.771484 741.271179,815.663757 724.087708,801.051086 
	C723.727356,800.744629 723.460327,800.328491 723.003723,799.792053 
	C725.029663,795.463806 727.058350,791.129761 729.301392,786.337891 
	C738.070984,793.360657 747.717773,798.393433 758.587036,799.271973 
	C767.058228,799.956726 775.728455,798.956177 784.233521,798.013123 
	C787.128662,797.692078 790.150696,795.692139 792.493774,793.721130 
	C801.044189,786.528198 800.011292,773.777710 789.944214,768.763123 
	C782.899536,765.253967 774.979736,763.501465 767.046082,760.883362 
z"/>
<path fill="#104A6D" opacity="1.000000" stroke="none" 
	d="
M1019.994995,691.941162 
	C1033.055176,694.333679 1044.051392,699.670532 1052.757080,709.519531 
	C1049.027222,713.216553 1045.382202,716.829346 1041.483887,720.693237 
	C1032.007812,710.551941 1020.080872,705.822510 1006.318848,706.331604 
	C993.173096,706.817871 981.692688,711.548096 972.695374,721.506775 
	C956.634644,739.283447 957.495361,768.898560 974.194092,786.107422 
	C989.291992,801.666565 1020.901550,806.776489 1041.881348,784.942322 
	C1045.363281,788.696716 1048.838379,792.443726 1052.581909,796.480103 
	C1044.718994,805.391785 1034.686646,810.659973 1023.081482,813.420410 
	C996.965759,819.632446 969.480042,810.521606 955.186584,789.592346 
	C940.847290,768.596008 939.682495,745.847961 951.061829,723.339111 
	C962.057617,701.589111 981.213928,691.843628 1005.144714,691.060303 
	C1009.936401,690.903381 1014.755737,691.593262 1019.994995,691.941162 
z"/>
<path fill="#104A6D" opacity="1.000000" stroke="none" 
	d="
M1880.260010,1003.571716 
	C1889.610352,1001.584900 1896.902222,996.832520 1903.546753,990.117126 
	C1907.267334,993.663574 1910.929199,997.153870 1914.555298,1000.610291 
	C1903.768433,1016.279358 1876.784912,1024.126099 1852.146973,1018.113892 
	C1826.286255,1011.803345 1808.055298,990.471375 1806.100586,964.267639 
	C1803.946655,935.393127 1817.825439,911.375183 1842.657349,901.004883 
	C1867.961914,890.437317 1898.715942,896.189453 1914.713989,914.628906 
	C1911.028564,918.151917 1907.329590,921.687744 1903.371704,925.471069 
	C1895.285522,917.244934 1885.344482,912.551575 1873.376221,911.422974 
	C1843.953735,908.648499 1819.467773,934.592590 1823.358643,964.010437 
	C1826.797974,990.014282 1849.965698,1009.165710 1880.260010,1003.571716 
z"/>
<path fill="#104A6D" opacity="1.000000" stroke="none" 
	d="
M1445.183838,954.413940 
	C1444.268066,975.109253 1453.883057,992.126770 1471.008301,1000.067139 
	C1487.629517,1007.773865 1509.362549,1006.822693 1525.607544,990.177063 
	C1529.258301,993.655518 1532.915771,997.140442 1536.539062,1000.592773 
	C1525.663696,1016.383728 1499.321045,1023.786011 1475.632568,1018.450073 
	C1448.862305,1012.419861 1430.529541,991.530518 1428.137939,964.799133 
	C1425.590332,936.324036 1439.537720,911.689270 1464.149414,901.193726 
	C1489.498657,890.383606 1520.559448,896.058411 1536.716064,914.634583 
	C1533.006592,918.109131 1529.280029,921.599670 1525.264771,925.360535 
	C1517.307373,917.280029 1507.393311,912.510803 1495.430542,911.429871 
	C1471.398071,909.258301 1449.566284,925.798157 1445.890625,949.527283 
	C1445.661499,951.007507 1445.424805,952.486511 1445.183838,954.413940 
z"/>
<path fill="#104A6D" opacity="1.000000" stroke="none" 
	d="
M1087.808716,776.038208 
	C1101.365601,801.664490 1140.001709,808.925293 1162.624756,785.175354 
	C1166.291138,788.680664 1169.957642,792.186096 1173.588013,795.656982 
	C1162.107544,811.798157 1134.950928,819.239319 1110.084106,812.891541 
	C1084.716919,806.416199 1066.540894,784.418335 1065.043701,758.672852 
	C1063.332397,729.244446 1077.385254,705.689697 1102.679565,695.588379 
	C1127.860352,685.532471 1158.586670,691.586426 1173.629761,709.631042 
	C1170.001221,713.247070 1166.366089,716.869812 1162.493042,720.729553 
	C1153.414917,710.900696 1141.940430,706.195801 1128.759277,706.274475 
	C1117.879150,706.339417 1107.741699,709.424683 1099.091675,716.399170 
	C1081.857910,730.294739 1077.186035,754.564636 1087.808716,776.038208 
z"/>
<path fill="#104A6D" opacity="1.000000" stroke="none" 
	d="
M440.875244,919.057190 
	C452.036316,944.669678 463.076508,969.922363 474.492950,996.035645 
	C479.762451,984.143433 484.679840,973.100647 489.552246,962.038086 
	C498.391296,941.969421 507.261963,921.914246 515.960632,901.784790 
	C517.191772,898.935791 518.612305,897.678284 521.818542,897.919067 
	C525.957092,898.229858 530.136536,897.994873 535.125305,897.994873 
	C533.079956,902.686646 531.214661,906.973022 529.343323,911.256836 
	C514.380798,945.508362 499.371552,979.739685 484.532074,1014.044434 
	C483.207581,1017.106384 481.545746,1017.688660 478.379364,1018.191101 
	C468.397949,1019.774841 463.828308,1015.644409 459.987701,1006.417480 
	C445.368835,971.296509 429.730988,936.599731 414.475739,901.743591 
	C414.016876,900.695190 413.577881,899.638062 412.986603,898.248962 
	C419.449524,898.248962 425.513275,898.248962 431.711456,898.248962 
	C434.712524,905.035156 437.733459,911.866333 440.875244,919.057190 
z"/>
<path fill="#DED0A6" opacity="1.000000" stroke="none" 
	d="
M1273.947021,369.000000 
	C1273.947021,455.759033 1273.947021,542.018066 1273.947021,628.611084 
	C1271.150024,628.611084 1268.916504,628.611084 1266.186401,628.611084 
	C1266.098022,626.706543 1265.944092,624.935730 1265.943970,623.164856 
	C1265.932861,485.376068 1265.941284,347.587280 1265.891968,209.798523 
	C1265.890747,206.300095 1265.847290,203.067200 1270.657104,204.266129 
	C1271.943604,204.586823 1273.186279,206.256378 1273.832275,207.602676 
	C1274.352783,208.687317 1273.946777,210.218094 1273.946777,211.550964 
	C1273.947266,263.867310 1273.947144,316.183655 1273.947021,369.000000 
z"/>
<path fill="#0D486C" opacity="1.000000" stroke="none" 
	d="
M773.000000,974.000000 
	C773.000000,948.546021 773.000000,923.591980 773.000000,898.319275 
	C778.607178,898.319275 784.000916,898.319275 789.816589,898.319275 
	C789.816589,932.960571 789.816589,967.666931 789.816589,1002.895996 
	C811.588501,1002.895996 832.956116,1002.895996 854.577026,1002.895996 
	C854.577026,1008.008240 854.577026,1012.607178 854.577026,1017.604675 
	C827.637939,1017.604675 800.618835,1017.604675 773.000000,1017.604675 
	C773.000000,1003.332153 773.000000,988.916077 773.000000,974.000000 
z"/>
<path fill="#0D486C" opacity="1.000000" stroke="none" 
	d="
M1354.998901,1018.000000 
	C1333.542114,1018.000000 1312.584961,1018.000000 1291.314209,1018.000000 
	C1291.314209,978.071899 1291.314209,938.371277 1291.314209,898.334961 
	C1296.572632,898.334961 1301.969849,898.334961 1307.787109,898.334961 
	C1307.787109,932.931458 1307.787109,967.637695 1307.787109,1002.865601 
	C1329.560059,1002.865601 1350.928101,1002.865601 1372.563721,1002.865601 
	C1372.563721,1007.975586 1372.563721,1012.574890 1372.563721,1018.000000 
	C1366.973877,1018.000000 1361.236206,1018.000000 1354.998901,1018.000000 
z"/>
<path fill="#0D476C" opacity="1.000000" stroke="none" 
	d="
M673.252686,1017.950867 
	C672.515564,1016.841003 672.033386,1015.771912 672.032288,1014.702209 
	C671.994568,976.573792 672.000916,938.445251 672.010254,900.316772 
	C672.010437,899.687622 672.123230,899.058533 672.203003,898.225708 
	C677.674988,898.225708 682.953918,898.225708 688.831177,898.225708 
	C688.831177,932.915894 688.831177,967.744385 688.831177,1002.914429 
	C710.673889,1002.914429 731.924866,1002.914429 753.505798,1002.914429 
	C753.505798,1007.974487 753.505798,1012.693726 753.505798,1017.991333 
	C726.888550,1017.991333 700.310242,1017.991333 673.252686,1017.950867 
z"/>
<path fill="#0D486C" opacity="1.000000" stroke="none" 
	d="
M1675.000000,786.978821 
	C1675.000000,790.782837 1675.000000,794.090149 1675.000000,797.919678 
	C1696.613892,797.919678 1717.981567,797.919678 1739.589600,797.919678 
	C1739.589600,803.034180 1739.589600,807.632446 1739.589600,812.616699 
	C1712.616089,812.616699 1685.596313,812.616699 1658.287354,812.616699 
	C1658.287354,773.016357 1658.287354,733.315430 1658.287354,693.306763 
	C1663.633423,693.306763 1669.027954,693.306763 1675.000000,693.306763 
	C1675.000000,724.348511 1675.000000,755.415283 1675.000000,786.978821 
z"/>
<path fill="#0D486C" opacity="1.000000" stroke="none" 
	d="
M1198.000122,736.000000 
	C1198.000122,721.537048 1198.000122,707.574097 1198.000122,693.306152 
	C1203.634399,693.306152 1209.028809,693.306152 1214.713867,693.306152 
	C1214.713867,732.984924 1214.713867,772.685608 1214.713867,812.693604 
	C1209.366577,812.693604 1203.973022,812.693604 1198.000122,812.693604 
	C1198.000122,787.312561 1198.000122,761.906311 1198.000122,736.000000 
z"/>
<path fill="#124B6F" opacity="1.000000" stroke="none" 
	d="
M1652.504272,260.518616 
	C1646.655518,267.796906 1641.178589,274.922577 1635.322388,281.721619 
	C1633.938232,283.328674 1631.314941,284.613403 1629.199585,284.711761 
	C1621.572876,285.066437 1613.919800,284.851196 1605.309937,284.851196 
	C1607.918579,278.571564 1610.264160,272.811676 1612.702881,267.091522 
	C1614.515991,262.839050 1615.378418,257.012360 1618.629883,254.869705 
	C1621.904785,252.711578 1627.607056,254.184525 1632.246094,254.160446 
	C1640.321411,254.118515 1648.396851,254.148773 1657.436768,254.148773 
	C1655.488892,256.676208 1654.113159,258.461365 1652.504272,260.518616 
z"/>
<path fill="#0E486D" opacity="1.000000" stroke="none" 
	d="
M1684.980713,404.894775 
	C1686.380493,405.899414 1687.532593,407.090302 1688.839111,408.633118 
	C1690.456177,414.216705 1691.918823,419.448395 1693.460815,424.963989 
	C1685.808960,424.963989 1678.526367,424.963989 1670.114502,424.963989 
	C1675.247925,417.981964 1679.990601,411.531494 1684.980713,404.894775 
z"/>
<path fill="#FEFEFE" opacity="1.000000" stroke="none" 
	d="
M997.528564,545.994263 
	C997.528442,518.524963 997.528442,491.554199 997.528442,464.678711 
	C1012.506348,459.419952 1032.557495,468.147675 1037.898804,483.017761 
	C1045.053467,502.936462 1043.864624,523.088257 1035.627441,542.395691 
	C1029.796631,556.062744 1015.136658,562.817444 1000.464233,559.931152 
	C999.304565,559.703003 997.819214,557.758911 997.661865,556.468811 
	C997.261475,553.186890 997.528687,549.823486 997.528564,545.994263 
z"/>
<path fill="#F7F9FA" opacity="1.000000" stroke="none" 
	d="
M703.099792,490.176941 
	C703.738037,488.294891 704.284424,486.790771 705.267273,484.085388 
	C709.149109,496.333862 712.654175,507.393463 716.266663,518.791992 
	C708.894287,518.791992 701.993042,518.791992 694.590393,518.791992 
	C697.444885,509.216431 700.226440,499.885651 703.099792,490.176941 
z"/>
<path fill="#F7F9FA" opacity="1.000000" stroke="none" 
	d="
M1552.813721,534.182007 
	C1549.704590,534.182007 1547.064941,534.182007 1543.646240,534.182007 
	C1546.252197,520.959473 1548.767944,508.194763 1551.283813,495.430054 
	C1551.468018,495.415924 1551.652222,495.401764 1551.836426,495.387634 
	C1553.824829,508.105927 1555.813354,520.824219 1557.861450,533.924194 
	C1556.195923,534.017944 1554.739502,534.099915 1552.813721,534.182007 
z"/>
<path fill="#F7F9FA" opacity="1.000000" stroke="none" 
	d="
M1423.143433,484.011169 
	C1423.143433,479.548584 1423.143433,475.584015 1423.143433,471.097229 
	C1427.274658,471.097229 1431.205200,470.728760 1435.032349,471.200592 
	C1438.873779,471.674286 1440.600220,474.796417 1440.726807,478.364380 
	C1440.955933,484.826843 1440.963745,491.308441 1440.749390,497.771606 
	C1440.595581,502.404999 1437.877563,505.113647 1433.221191,505.440155 
	C1430.108276,505.658447 1426.967651,505.481659 1423.143433,505.481659 
	C1423.143433,498.289795 1423.143433,491.399475 1423.143433,484.011169 
z"/>
<path fill="#F7F9FA" opacity="1.000000" stroke="none" 
	d="
M1624.292725,366.565857 
	C1625.017090,370.172302 1625.645264,373.363098 1626.326538,376.823242 
	C1621.554565,376.823242 1617.283691,376.823242 1612.394531,376.823242 
	C1614.804321,367.015198 1617.160278,357.425385 1619.516357,347.835571 
	C1619.856201,347.855286 1620.196045,347.875000 1620.536011,347.894714 
	C1621.756226,353.979858 1622.976440,360.065002 1624.292725,366.565857 
z"/>
<path fill="#FFFFFE" opacity="1.000000" stroke="none" 
	d="
M1076.031860,327.257355 
	C1077.760742,347.781891 1072.423218,365.586700 1059.097290,380.840820 
	C1048.882202,392.533813 1036.024414,399.953400 1020.900391,402.764038 
	C996.631653,407.274139 975.315063,400.700592 957.914551,383.188934 
	C946.702515,371.905365 940.065857,358.112396 938.864746,341.970062 
	C938.520996,337.350555 938.188477,332.670563 937.174561,328.170654 
	C932.086670,305.589142 908.434875,295.101593 888.093262,306.243683 
	C887.675598,306.472473 887.182373,306.563202 887.261475,306.536407 
	C881.793396,296.719604 876.415466,287.064636 870.823792,277.026001 
	C877.167847,271.803925 885.305969,268.743500 893.712158,267.221619 
	C918.027588,262.819519 939.134155,269.679749 956.561401,287.189178 
	C968.465454,299.149414 974.056091,313.888947 975.093445,330.657135 
	C975.646057,339.590820 976.876282,348.370361 982.828613,355.934937 
	C991.282471,366.678558 1006.004944,371.428009 1019.486877,367.010803 
	C1032.905518,362.614349 1041.443481,350.415833 1042.177612,336.707581 
	C1043.449829,312.952911 1018.205139,294.639557 995.669983,305.098724 
	C995.079651,305.372681 994.446533,305.554474 994.273010,305.618073 
	C988.076416,295.019287 981.990173,284.609375 975.614380,273.704132 
	C994.693665,263.960876 1014.697571,262.865051 1034.645630,271.552612 
	C1058.641846,282.003235 1072.139282,300.948395 1076.031860,327.257355 
z"/>
<path fill="#FEFEFF" opacity="1.000000" stroke="none" 
	d="
M1052.000488,981.999878 
	C1052.000488,958.861877 1052.000488,936.223877 1052.000488,912.146484 
	C1068.181641,913.064331 1084.317017,912.389282 1099.802612,915.242126 
	C1121.368774,919.215271 1133.817383,937.656677 1132.868896,959.992432 
	C1131.925293,982.213623 1117.756714,999.313354 1095.959229,1001.731445 
	C1081.684204,1003.315125 1067.090820,1002.030396 1052.000488,1002.030396 
	C1052.000488,996.026611 1052.000488,989.263245 1052.000488,981.999878 
z"/>
<path fill="#FEFEFE" opacity="1.000000" stroke="none" 
	d="
M1258.178223,749.413696 
	C1260.496704,724.557434 1277.463867,711.226562 1293.471436,707.542175 
	C1319.149902,701.632019 1343.808838,716.430969 1349.652222,741.714905 
	C1355.699951,767.883484 1340.929565,792.447266 1315.534668,798.453186 
	C1284.208618,805.861938 1256.759888,782.610535 1258.178223,749.413696 
z"/>
<path fill="#FCFDFD" opacity="1.000000" stroke="none" 
	d="
M1994.584229,945.452637 
	C1998.791504,955.055298 2002.810913,964.326416 2006.959839,973.896362 
	C1989.982056,973.896362 1973.448486,973.896362 1956.164551,973.896362 
	C1964.684204,954.430359 1972.986938,935.459900 1981.562622,915.865906 
	C1986.002441,925.986816 1990.199341,935.553894 1994.584229,945.452637 
z"/>
<path fill="#FCFDFD" opacity="1.000000" stroke="none" 
	d="
M571.869934,960.867065 
	C578.405273,945.905151 584.808594,931.301025 591.569946,915.880310 
	C600.196899,935.545959 608.539734,954.563965 617.045837,973.954163 
	C600.075745,973.954163 583.640259,973.954163 566.128601,973.954163 
	C568.107056,969.464478 569.922485,965.344666 571.869934,960.867065 
z"/>
<path fill="#FCFDFD" opacity="1.000000" stroke="none" 
	d="
M1589.980591,769.161499 
	C1577.343628,769.161560 1565.203491,769.161560 1552.065186,769.161560 
	C1560.639648,749.553223 1568.960449,730.525208 1577.565186,710.847839 
	C1586.154419,730.432373 1594.472046,749.397888 1603.139771,769.161499 
	C1598.553833,769.161499 1594.515625,769.161499 1589.980591,769.161499 
z"/>
<path fill="#FCFDFD" opacity="1.000000" stroke="none" 
	d="
M1609.203369,928.769531 
	C1615.869751,943.955566 1622.389526,958.789612 1629.044922,973.932007 
	C1611.977783,973.932007 1595.452148,973.932007 1578.151489,973.932007 
	C1586.635864,954.539307 1594.912598,935.621155 1603.543823,915.892822 
	C1605.569092,920.494019 1607.312988,924.455811 1609.203369,928.769531 
z"/>
</svg>