<svg version="1.1" id="Layer_1" xmlns="http://www.w3.org/2000/svg" xmlns:xlink="http://www.w3.org/1999/xlink" x="0px" y="0px"
	 width="100%" viewBox="0 0 2946 312" enable-background="new 0 0 2946 312" xml:space="preserve">
<path fill="#FFFFFF" opacity="1.000000" stroke="none" 
	d="
M2947.000000,285.000000 
	C2947.000000,294.332092 2947.000000,303.664154 2947.000000,312.998108 
	C1976.298462,313.000000 1005.596863,313.000000 34.553612,312.661804 
	C37.936596,310.559814 39.845707,307.798676 40.069962,303.503052 
	C40.497280,295.317719 41.428921,287.160126 41.975468,278.979309 
	C43.368546,258.127319 44.570980,237.262238 46.037510,216.415604 
	C46.831161,205.133896 47.706001,193.841125 49.115009,182.625046 
	C50.148258,174.400085 53.863594,170.230881 62.501175,168.990555 
	C68.779564,168.089035 75.062347,167.217697 81.338425,166.300446 
	C95.539543,164.224884 109.495178,159.629639 124.043617,161.121628 
	C131.736526,161.910568 139.314667,163.886047 146.917725,165.456161 
	C150.920914,166.282867 154.466507,164.561798 154.907135,160.746002 
	C155.808899,152.936478 156.425095,145.089264 156.963089,137.244156 
	C157.296326,132.385010 154.182495,129.464340 150.107162,128.147125 
	C139.350372,124.670334 128.225204,123.915161 117.161125,126.113159 
	C97.196663,130.079300 77.322296,134.498947 57.010345,138.814178 
	C57.690609,132.243454 57.652264,125.610741 59.166164,119.353600 
	C63.112209,103.044075 67.328407,86.771950 72.296776,70.751587 
	C74.267120,64.398277 77.743118,58.141834 81.888199,52.915672 
	C88.940170,44.024502 99.957260,43.880852 110.068428,43.161346 
	C121.678635,42.335167 133.296082,42.712624 144.577454,46.858334 
	C150.535538,49.047821 153.301178,46.440895 154.043442,40.102028 
	C154.838165,33.314983 156.402908,26.595551 156.841217,19.795662 
	C157.281387,12.966979 158.426620,5.543263 151.000000,1.000000 
	C1083.000000,1.000000 2015.000000,1.000000 2947.000000,1.000000 
	C2947.000000,26.444885 2947.000000,51.774811 2946.657227,77.644547 
	C2945.363770,78.794235 2944.416016,79.408905 2943.461914,80.013283 
	C2932.964355,86.663231 2921.502197,91.158463 2909.109131,90.775719 
	C2896.589111,90.389038 2884.852539,85.935417 2873.150879,81.277061 
	C2863.481689,77.427826 2853.115723,74.406700 2842.810791,73.274681 
	C2823.473633,71.150513 2805.363770,76.403069 2788.518311,86.092537 
	C2770.904541,96.223831 2757.311035,110.184387 2747.974609,128.234726 
	C2735.441650,152.465332 2732.110596,178.001617 2736.958740,204.783508 
	C2740.861572,226.343018 2750.549072,244.907074 2765.386963,260.838135 
	C2774.754395,270.895599 2786.048340,278.418182 2798.604980,283.800262 
	C2817.182129,291.762787 2836.702637,293.660522 2856.258545,289.042969 
	C2866.826904,286.547516 2876.844238,281.592926 2886.981201,277.433533 
	C2896.079102,273.700714 2905.353027,271.117737 2915.026611,274.048798 
	C2925.801270,277.313507 2936.351807,281.317657 2947.000000,285.000000 
M323.308868,202.175262 
	C321.173676,204.764130 319.038483,207.352997 316.984772,209.999527 
	C316.984772,209.999527 316.928345,209.917221 316.309387,210.174835 
	C313.174011,213.763855 310.038666,217.352875 306.984802,220.999695 
	C306.984802,220.999695 306.928162,220.917389 306.294403,221.188385 
	C301.802216,223.847977 297.309998,226.507568 292.466614,229.065170 
	C292.231415,229.120926 291.998383,229.184631 291.280487,228.843399 
	C290.520569,228.617828 289.760651,228.392242 288.314362,227.834686 
	C286.262543,226.712952 283.265564,226.108536 282.320129,224.381226 
	C277.884033,216.276352 277.238159,207.322250 276.794556,198.186844 
	C276.530029,192.740112 277.673950,186.247147 271.238861,181.771698 
	C266.580872,181.916809 261.922882,182.061935 256.535370,182.127228 
	C254.016037,184.805222 251.214462,187.272614 249.029816,190.200317 
	C242.212021,199.337006 235.627563,208.647781 228.331009,218.156036 
	C226.188431,220.751312 224.045868,223.346588 221.984802,225.999481 
	C221.984802,225.999481 221.928329,225.917206 221.309418,226.174850 
	C218.174042,229.763855 215.038681,233.352859 211.984802,236.999481 
	C211.984802,236.999481 211.928329,236.917206 211.309464,237.174774 
	C207.170868,241.099930 203.032257,245.025101 198.135635,248.994934 
	C196.544098,248.930954 193.885681,249.418640 193.523819,248.718826 
	C189.273178,240.498093 187.209167,231.726379 189.248398,222.520691 
	C190.877533,215.166245 192.846832,207.863220 195.115250,200.679504 
	C199.268646,187.526337 203.824463,174.500732 208.064148,161.374023 
	C209.573685,156.700302 210.141068,151.891159 207.246918,146.778351 
	C202.103592,145.272812 197.165436,145.435104 192.244171,148.681808 
	C192.244171,148.681808 192.007217,148.958603 191.406097,149.135406 
	C187.814941,152.712692 184.137192,156.208374 180.662415,159.895325 
	C178.258255,162.446289 176.134140,165.261169 173.265869,168.253479 
	C163.494797,181.466003 153.723709,194.678528 143.331223,208.155838 
	C140.849106,211.089935 138.367004,214.024017 135.250458,217.273148 
	C133.555862,222.182037 131.861252,227.090942 130.019684,232.918152 
	C130.019684,237.253311 130.019684,241.588486 130.019684,246.553375 
	C131.621414,245.628708 132.310287,245.231033 133.687851,244.758011 
	C139.663193,239.503510 145.602875,234.207581 151.633362,229.017136 
	C153.722382,227.219101 156.161346,224.994049 157.019669,230.871765 
	C157.700195,237.980957 158.272049,245.102905 159.103897,252.194351 
	C159.568497,256.155090 160.464859,260.065155 161.027847,264.723755 
	C162.319595,266.948303 163.242630,269.522675 164.965332,271.338318 
	C173.593124,280.431732 184.871414,279.618896 195.789719,278.451569 
	C199.989807,278.002502 204.744019,275.857086 207.793396,272.957306 
	C214.117645,266.943298 219.611328,260.023743 225.183090,253.259521 
	C230.939056,246.271652 236.379730,239.024185 241.967697,231.897629 
	C242.477325,231.247696 243.055328,230.651352 243.601593,230.030136 
	C244.223557,230.667938 245.134659,231.198486 245.417892,231.961975 
	C246.709396,235.443298 247.708435,239.034027 249.023163,242.505692 
	C254.809586,257.785431 264.974976,261.327332 279.030884,258.346649 
	C295.699127,254.811981 310.031860,246.598114 321.597748,233.891739 
	C328.699097,226.090210 336.153046,218.557144 342.614258,210.254211 
	C344.841400,207.392242 345.289337,205.356155 348.019897,209.901718 
	C347.773529,213.075089 347.527191,216.248474 347.054779,220.124374 
	C347.092194,220.367523 347.129608,220.610657 347.000366,221.298538 
	C346.744720,221.684326 346.489075,222.070099 346.049042,223.156830 
	C346.088379,223.395203 346.127747,223.633575 346.020081,224.427826 
	C345.756714,225.104401 345.493347,225.780991 345.048615,227.158096 
	C345.088104,227.396057 345.127594,227.634003 345.020081,228.427826 
	C344.756714,229.104401 344.493347,229.780991 344.048706,231.148926 
	C344.088135,231.383881 344.127563,231.618835 344.000336,232.298523 
	C343.744690,232.684296 343.489044,233.070084 343.049042,234.156830 
	C343.088379,234.395203 343.127747,234.633575 343.020050,235.427826 
	C342.756683,236.104401 342.493317,236.780975 342.048706,238.148926 
	C342.088135,238.383881 342.127563,238.618835 342.000336,239.298538 
	C341.744690,239.684311 341.489044,240.070099 341.049042,241.156830 
	C341.088379,241.395203 341.127747,241.633575 341.020081,242.427826 
	C340.756714,243.104401 340.493347,243.780991 340.048615,245.158096 
	C340.088104,245.396057 340.127594,245.634003 340.020081,246.427826 
	C339.756714,247.104401 339.493347,247.780991 339.048645,249.159302 
	C339.088135,249.397644 339.127655,249.635986 339.020752,250.506256 
	C338.758728,251.491562 338.496674,252.476883 338.049225,254.159821 
	C338.088531,254.397217 338.127838,254.634598 338.020081,255.427795 
	C337.756744,256.104340 337.493408,256.780884 337.048645,258.159241 
	C337.088196,258.397614 337.127716,258.635956 337.020752,259.506287 
	C336.758728,260.491608 336.496674,261.476959 336.049194,263.161072 
	C336.088562,263.398834 336.127899,263.636566 336.020752,264.506287 
	C335.758698,265.491608 335.496643,266.476959 335.049194,268.161072 
	C335.088562,268.398834 335.127899,268.636566 335.020752,269.506287 
	C334.758728,270.491608 334.496674,271.476959 334.049194,273.161743 
	C334.088562,273.399719 334.127930,273.637695 334.019836,274.592804 
	C333.767426,276.206970 333.515015,277.821136 333.052521,280.144684 
	C333.090759,280.388336 333.129028,280.631958 333.019226,281.597534 
	C333.401672,283.731049 333.784149,285.864532 334.235779,288.722015 
	C335.367004,289.772156 336.428101,290.912445 337.641846,291.856506 
	C342.334015,295.506226 354.893616,289.980560 359.173157,285.465942 
	C363.959076,280.417053 368.608734,275.239380 373.366425,270.163361 
	C376.151733,267.191681 379.216675,264.464264 381.831024,261.353943 
	C387.197144,254.969864 391.991028,248.070343 397.681824,242.003372 
	C403.366364,235.943054 409.999786,230.784805 415.955902,224.963715 
	C421.561859,219.484909 427.813049,219.282211 432.678772,225.293671 
	C435.932800,229.313950 438.568695,233.829773 441.564331,238.064987 
	C446.530914,245.086609 451.056274,252.507904 456.708435,258.933044 
	C462.724457,265.771820 471.508301,265.318634 479.408203,260.544281 
	C486.791351,256.082214 491.351807,248.917282 497.841644,243.722137 
	C500.953186,241.231293 504.378296,239.132126 507.661377,236.855560 
	C508.011597,237.233261 508.361847,237.610962 508.712067,237.988663 
	C508.309235,239.095200 507.906433,240.201721 507.068787,241.856918 
	C506.797180,242.719650 506.525543,243.582382 506.051575,245.139648 
	C506.090057,245.377716 506.128510,245.615768 506.000336,246.298523 
	C505.744690,246.684296 505.489044,247.070084 505.049133,248.147675 
	C505.088409,248.383041 505.127716,248.618423 505.000336,249.298538 
	C504.744690,249.684311 504.489044,250.070099 504.049133,251.147675 
	C504.088409,251.383041 504.127716,251.618423 504.000366,252.298538 
	C503.744720,252.684326 503.489075,253.070114 503.049042,254.156830 
	C503.088379,254.395203 503.127747,254.633575 503.020050,255.427780 
	C502.756714,256.104340 502.493378,256.780884 502.048645,258.159668 
	C502.088165,258.398193 502.127716,258.636719 502.020386,259.556061 
	C501.763611,260.852966 501.506866,262.149841 501.051056,264.151184 
	C501.089783,264.392120 501.128479,264.633026 501.019318,265.579163 
	C501.735077,268.385468 502.450836,271.191803 503.207184,274.687805 
	C506.623535,280.491455 513.968140,284.441986 519.330566,283.984985 
	C531.572815,282.941833 540.787903,275.787048 548.780762,267.840820 
	C559.505371,257.178802 569.036255,245.271713 578.629700,233.531464 
	C585.292053,225.378265 591.146301,216.568054 597.477661,208.138550 
	C598.943176,206.187363 600.181763,206.626129 601.461182,208.861420 
	C606.851685,218.278854 612.348938,227.639816 618.026733,236.886597 
	C621.919006,243.225388 625.903748,249.535828 632.753174,253.327332 
	C641.732178,258.297607 651.086426,257.561371 660.059082,254.265335 
	C668.247986,251.257202 675.925110,246.856201 683.495667,243.228241 
	C682.458374,248.648468 680.993591,254.964630 680.111755,261.361145 
	C679.480713,265.938629 679.377380,271.119659 683.855042,273.851135 
	C691.932129,278.778381 700.930969,280.421997 709.252441,275.063263 
	C718.661438,269.004181 727.486694,262.002472 736.325623,255.103058 
	C748.869812,245.311554 761.194580,235.238998 773.908325,225.049896 
	C777.705017,233.985413 780.880493,242.866196 785.252075,251.112976 
	C787.233704,254.851028 791.137695,258.185883 794.961243,260.202850 
	C802.825317,264.351196 811.360168,262.378113 818.426025,258.514740 
	C826.766846,253.954224 834.029541,247.421127 841.757202,241.739868 
	C843.427551,240.511856 845.087524,239.269623 847.451233,237.515182 
	C848.421570,244.409698 849.379456,250.000320 849.959900,255.629837 
	C850.795593,263.734283 853.880981,270.920227 860.985046,274.851746 
	C879.963318,285.354645 899.768494,286.832123 919.890991,277.995239 
	C944.408752,267.228149 965.309082,251.224319 984.595886,232.918427 
	C989.150146,228.595810 993.955078,224.526062 998.351013,220.051437 
	C1001.858826,216.480804 1003.520142,218.210953 1005.265137,221.634323 
	C1007.400024,225.822647 1009.357788,230.182693 1012.081360,233.973312 
	C1018.636353,243.096466 1025.193970,252.274307 1032.507690,260.778839 
	C1038.950684,268.270782 1047.346802,269.177490 1055.862061,263.934387 
	C1063.176514,259.430542 1070.169189,254.379150 1077.123779,249.321945 
	C1087.053223,242.101471 1096.818359,234.654831 1107.290894,226.828506 
	C1106.756104,232.924927 1106.812134,238.269272 1105.740845,243.377213 
	C1102.554321,258.570343 1108.671509,272.869354 1125.385376,276.741058 
	C1139.380005,279.982880 1153.576904,281.297913 1166.345215,273.687653 
	C1182.026733,264.341064 1197.035278,253.958908 1209.063110,239.701324 
	C1215.780884,231.738190 1221.405518,223.281891 1224.862671,213.624542 
	C1228.926270,202.273331 1230.634521,190.348175 1227.882568,178.424271 
	C1224.461548,163.600204 1215.224487,152.358261 1198.215820,153.163208 
	C1191.127563,153.498657 1184.124634,155.635544 1177.026001,156.963974 
	C1177.927612,155.202377 1178.796875,153.113144 1179.999268,151.237625 
	C1182.380127,147.524094 1179.937500,145.243408 1177.236572,144.253082 
	C1170.176147,141.664520 1163.388550,142.707062 1157.670410,147.889114 
	C1151.907837,153.111496 1146.348511,158.557343 1140.646484,163.847504 
	C1122.598267,180.592072 1104.805054,197.627731 1086.326782,213.884262 
	C1078.714722,220.581100 1069.779663,225.855194 1061.111694,231.237366 
	C1056.660156,234.001404 1051.533325,232.872513 1048.918701,229.278580 
	C1047.234253,226.963211 1045.592651,224.225784 1045.134155,221.476974 
	C1043.178711,209.754166 1041.353271,197.989914 1040.117554,186.174133 
	C1039.359497,178.927170 1034.082275,172.588821 1027.790527,170.483566 
	C1020.851501,168.161743 1013.404663,167.045670 1007.846130,173.726074 
	C999.383362,183.896744 991.688904,194.746445 982.784607,204.501312 
	C966.231079,222.636322 947.974548,238.777191 925.355896,249.289764 
	C915.822693,253.720551 906.183228,254.391953 896.480530,250.692429 
	C889.212952,247.921341 883.688354,241.728638 885.058228,233.239151 
	C886.552246,223.980469 890.202087,215.609238 897.839050,209.745499 
	C915.399048,196.262802 933.113831,182.981369 950.798279,169.661346 
	C957.937805,164.283813 964.819458,159.212051 963.183228,148.318115 
	C962.030212,140.640762 956.724487,136.100784 949.172058,138.366272 
	C947.336731,138.916809 945.601135,139.817810 943.846497,140.616547 
	C928.535400,147.586472 914.522095,156.741302 901.333313,167.037796 
	C882.536377,181.712555 864.203064,196.979660 845.568604,211.864716 
	C839.221924,216.934357 832.786926,221.957489 825.986633,226.377777 
	C818.803162,231.047134 810.630737,226.538940 809.066956,219.268463 
	C807.704712,212.935013 806.827026,206.481155 806.054382,200.042236 
	C805.447754,194.986664 805.584167,189.834167 804.828918,184.809143 
	C804.615540,183.389450 802.517273,181.300781 801.129517,181.171341 
	C794.387512,180.542740 787.624512,180.668915 782.036804,185.449738 
	C768.074890,197.395538 754.151855,209.386932 740.170776,221.310333 
	C734.427307,226.208481 728.991516,231.614410 720.391663,234.321640 
	C721.858887,231.502563 722.536377,229.294312 723.918640,227.695328 
	C731.665527,218.733536 739.508118,209.851273 747.462402,201.072693 
	C755.559570,192.136612 763.695435,183.228256 772.062866,174.547272 
	C777.107971,169.313202 782.582581,164.487534 787.944092,159.565460 
	C794.905396,153.174667 802.193604,147.117447 808.861023,140.437469 
	C812.960571,136.330185 813.408875,129.705460 810.965027,125.812180 
	C809.152527,122.924675 802.505188,120.866653 797.893372,122.136642 
	C794.802185,122.987892 791.778015,124.227150 788.883118,125.623032 
	C772.591919,133.478302 758.712097,144.889847 745.171204,156.546478 
	C730.777954,168.936890 716.908936,181.981262 703.388916,195.325577 
	C694.329346,204.267426 684.785461,212.468658 673.669617,218.519836 
	C668.004150,221.603973 661.833008,224.546158 654.848877,223.412430 
	C644.337219,221.706055 639.486084,214.080521 636.543884,205.070251 
	C634.247375,198.037155 633.461914,190.529709 632.001343,183.340561 
	C629.978149,173.382095 631.731384,164.210083 633.730164,155.179443 
	C635.831909,145.683899 640.561707,136.774384 644.095703,127.590546 
	C649.542664,113.435501 655.159058,99.340668 660.307556,85.077370 
	C664.556396,73.306580 668.305908,61.352638 672.136536,49.434818 
	C675.106140,40.195679 678.436890,31.011244 680.471252,21.558054 
	C681.528381,16.645592 680.125183,11.203679 679.761780,5.277829 
	C676.362000,4.245286 672.592896,1.735138 669.635925,2.474185 
	C662.509705,4.255269 657.631165,9.681797 653.252930,16.270056 
	C651.669800,19.616119 650.086670,22.962181 648.068787,26.856915 
	C647.797119,27.719687 647.525513,28.582457 647.051575,30.139734 
	C647.090027,30.377769 647.128479,30.615803 647.000366,31.298588 
	C646.744751,31.684336 646.489136,32.070084 646.049072,33.156761 
	C646.088440,33.395138 646.127747,33.633511 646.020142,34.427795 
	C645.756775,35.104389 645.493347,35.780983 645.048706,37.148949 
	C645.088135,37.383915 645.127563,37.618877 645.000305,38.298542 
	C644.744690,38.684292 644.489075,39.070042 644.049072,40.156754 
	C644.088440,40.395130 644.127747,40.633511 644.020081,41.427773 
	C643.756714,42.104366 643.493286,42.780960 643.048706,44.148949 
	C643.088135,44.383915 643.127563,44.618877 643.000305,45.298550 
	C642.744690,45.684299 642.489075,46.070049 642.049072,47.147633 
	C642.088379,47.383034 642.127686,47.618439 642.000244,48.298523 
	C641.744629,48.684273 641.489014,49.070023 641.049072,50.147633 
	C641.088379,50.383034 641.127686,50.618439 641.000305,51.298561 
	C640.744690,51.684311 640.489075,52.070061 640.049072,53.147633 
	C640.088379,53.383034 640.127686,53.618439 640.000305,54.298534 
	C639.744690,54.684284 639.489075,55.070034 639.049072,56.147633 
	C639.088379,56.383034 639.127686,56.618439 639.000366,57.298573 
	C638.744751,57.684322 638.489136,58.070072 638.049072,59.147633 
	C638.088379,59.383034 638.127686,59.618439 638.000305,60.298542 
	C637.744690,60.684292 637.489075,61.070042 637.049133,62.141674 
	C637.088379,62.375134 637.127686,62.608593 636.991272,63.318592 
	C636.716370,63.879353 636.441528,64.440117 635.833862,65.687057 
	C627.540161,83.421692 619.246460,101.156334 610.324829,119.161407 
	C606.181091,122.424362 602.037354,125.687317 597.295654,128.998779 
	C596.848022,129.296158 596.400391,129.593521 595.306152,130.174255 
	C579.511658,138.954819 568.092407,152.731583 555.463989,165.122864 
	C555.065674,165.513702 555.080872,166.326019 554.984924,166.999573 
	C554.984924,166.999573 554.928284,166.917252 554.309448,167.174820 
	C550.218079,171.271545 546.049683,175.295227 542.065613,179.493790 
	C539.852722,181.825806 537.947327,184.449585 535.984924,186.999573 
	C535.984924,186.999573 535.928284,186.917252 535.309448,187.174820 
	C521.622253,200.978699 508.291504,215.181641 491.143250,226.009399 
	C489.351410,226.691544 487.490265,227.234253 485.781464,228.083481 
	C481.622589,230.150299 478.266174,227.990128 476.702393,224.936752 
	C473.199463,218.097122 470.612518,210.787476 467.669586,203.662216 
	C464.721252,196.523926 461.220337,189.771332 454.767242,184.284271 
	C448.012207,179.088959 440.258820,178.697800 432.584412,182.123001 
	C431.707153,182.712326 430.829926,183.301651 429.314972,184.166946 
	C428.374359,184.778824 427.305908,185.258026 426.512421,186.022598 
	C415.810638,196.334106 405.132904,206.670807 394.504181,217.057465 
	C393.750610,217.793869 393.426880,218.970139 392.984772,219.999527 
	C392.984772,219.999527 392.928345,219.917221 392.309448,220.174774 
	C387.540253,224.838730 382.771088,229.502701 377.347595,233.857468 
	C377.317963,231.002167 376.519958,227.884491 377.390106,225.336456 
	C381.411621,213.560364 386.131744,202.022156 390.122650,190.236557 
	C392.296570,183.816727 394.455627,177.138870 394.920593,170.459015 
	C395.469452,162.573669 393.870941,154.679199 386.250854,148.781784 
	C381.667267,147.240036 377.299713,147.492798 372.495361,150.183228 
	C370.647766,151.419159 368.800201,152.655106 366.331604,154.155533 
	C362.522156,158.417648 358.712708,162.679764 354.984772,166.999527 
	C354.984772,166.999527 354.928345,166.917221 354.309265,167.174942 
	C351.507263,170.430588 348.705261,173.686234 345.984772,176.999527 
	C345.984772,176.999527 345.928345,176.917221 345.309143,177.175079 
	C342.840515,180.097351 340.371918,183.019623 337.984772,185.999527 
	C337.984772,185.999527 337.928345,185.917221 337.308868,186.175262 
	C335.173676,188.764145 333.038483,191.353012 330.984772,193.999527 
	C330.984772,193.999527 330.928345,193.917221 330.308868,194.175262 
	C328.173676,196.764130 326.038483,199.353012 323.984772,201.999527 
	C323.984772,201.999527 323.928345,201.917221 323.308868,202.175262 
M2146.073730,144.556183 
	C2146.327148,144.370773 2146.580322,144.185379 2146.980713,143.073013 
	C2146.931641,121.048851 2146.882568,99.024689 2146.959229,76.192833 
	C2144.811523,75.461929 2142.684082,74.179382 2140.512695,74.100731 
	C2133.207520,73.836128 2125.732910,73.064888 2118.612061,74.240326 
	C2110.000488,75.661858 2101.683838,78.870201 2092.490234,81.162773 
	C2068.533447,94.508873 2045.024048,94.831039 2022.212524,77.709213 
	C2022.212524,148.014435 2022.212524,217.285263 2022.212524,286.761719 
	C2040.819214,286.761719 2059.213135,286.761719 2078.000000,286.761719 
	C2078.000000,284.735992 2078.000000,282.942810 2078.000000,281.149658 
	C2078.000000,243.158142 2077.874023,205.166031 2078.049561,167.175323 
	C2078.147461,146.026016 2093.426514,131.956406 2113.735352,131.140854 
	C2126.078613,130.645187 2136.815918,135.632416 2146.073730,144.556183 
M2240.544678,97.971016 
	C2238.295410,99.880928 2235.957031,101.696060 2233.812256,103.716736 
	C2222.622070,114.259842 2214.096924,126.642303 2208.000977,140.774673 
	C2199.778809,159.836121 2197.853027,179.786179 2201.218018,199.922745 
	C2205.874023,227.785400 2219.679443,250.683594 2242.359375,267.818604 
	C2273.912354,291.657440 2308.945557,296.860168 2346.498535,286.040283 
	C2366.279541,280.340881 2382.840576,269.284271 2396.700928,253.912689 
	C2413.119629,235.703720 2422.265381,214.426361 2423.868164,190.185623 
	C2425.340332,167.923004 2420.998535,146.786346 2409.143066,127.399452 
	C2398.573975,110.115753 2384.588379,96.595879 2366.828125,87.001389 
	C2348.122314,76.896103 2328.219971,72.550629 2306.854492,73.822517 
	C2296.490967,74.439461 2286.499512,76.127625 2276.618896,78.997375 
	C2263.544922,82.794678 2251.996582,89.546005 2240.544678,97.971016 
M1857.496460,73.000000 
	C1849.399780,73.997894 1841.246094,74.666306 1833.217651,76.057846 
	C1812.324829,79.679062 1794.405762,89.493042 1778.921021,103.689476 
	C1768.593018,113.158333 1760.853149,124.564224 1754.850830,137.328964 
	C1745.413452,157.398605 1742.633301,178.473694 1746.259766,199.958344 
	C1750.576782,225.534042 1762.633911,247.159393 1782.663574,264.361053 
	C1800.556641,279.727783 1821.241943,288.526581 1844.247314,290.707855 
	C1863.019165,292.487793 1881.717651,290.744781 1899.716919,283.229187 
	C1925.089966,272.634521 1944.605957,255.927170 1957.046997,231.451874 
	C1966.859619,212.147476 1970.854858,191.678040 1968.147217,169.882126 
	C1966.749634,158.631638 1964.058472,147.937180 1959.286011,137.731216 
	C1952.719604,123.688881 1944.239746,110.966736 1931.812866,101.465424 
	C1923.843994,95.372810 1915.708740,89.215401 1906.847900,84.635078 
	C1891.805786,76.859550 1875.253540,74.032570 1857.496460,73.000000 
M2626.000000,193.500031 
	C2626.000000,224.590546 2626.000000,255.681076 2626.000000,286.839417 
	C2644.925537,286.839417 2663.213379,286.839417 2682.150879,286.839417 
	C2682.439209,282.523651 2682.951904,278.325287 2682.962646,274.125671 
	C2683.034668,245.961243 2683.312988,217.791580 2682.864746,189.634094 
	C2682.648193,176.018356 2681.637695,162.340729 2679.840820,148.843628 
	C2677.616943,132.138397 2670.639893,117.080658 2659.662842,104.297447 
	C2641.529053,83.179642 2617.638672,73.935028 2590.371582,73.120743 
	C2576.058350,72.693298 2562.507080,77.025925 2549.131592,81.894722 
	C2539.749512,85.309998 2530.272949,88.993156 2520.513672,90.703659 
	C2509.726562,92.594322 2499.150879,89.555931 2489.246094,84.708603 
	C2485.439697,82.845779 2481.479248,81.297859 2477.285645,79.474602 
	C2477.285645,149.204422 2477.285645,217.953308 2477.285645,286.685730 
	C2495.969482,286.685730 2514.365967,286.685730 2533.000000,286.685730 
	C2533.000000,284.560089 2533.000000,282.747040 2533.000000,280.933990 
	C2533.000000,243.270065 2532.916016,205.605713 2533.108154,167.942764 
	C2533.131836,163.306274 2533.784912,158.314133 2535.591309,154.107239 
	C2543.737793,135.133789 2559.007812,125.004349 2579.033936,123.205360 
	C2599.685791,121.350174 2615.417480,134.155441 2622.046631,152.994522 
	C2626.571045,165.852585 2626.052734,179.194839 2626.000000,193.500031 
M1517.515503,119.975594 
	C1515.333862,123.384521 1512.893188,126.657356 1511.017212,130.227005 
	C1504.554565,142.524368 1500.483521,155.509903 1498.861206,169.422043 
	C1497.164429,183.972183 1497.838379,198.208221 1501.710571,212.287994 
	C1508.435791,236.741776 1523.093994,255.863998 1542.802246,271.097626 
	C1557.272339,282.282288 1573.937500,289.310730 1592.263550,290.876892 
	C1618.563354,293.124512 1643.364136,288.053040 1665.438965,272.833008 
	C1675.873047,265.639069 1685.135010,257.205475 1691.075195,245.919556 
	C1690.764771,245.403214 1690.711182,245.219162 1690.588623,245.123535 
	C1680.052490,236.901413 1669.557861,228.623703 1658.864258,220.611542 
	C1658.157593,220.082016 1655.242554,221.117172 1654.515869,222.202194 
	C1641.746826,241.267319 1609.632324,249.163437 1588.185425,237.479141 
	C1568.067871,226.518982 1558.525024,208.332352 1557.115723,185.947266 
	C1556.247803,172.160187 1559.923096,159.211868 1566.935913,147.210403 
	C1572.283813,138.058319 1579.693848,130.860580 1589.130371,126.583870 
	C1607.490601,118.262840 1625.322021,121.083725 1642.035400,131.657715 
	C1646.833618,134.693283 1651.238037,138.416168 1655.529419,142.160446 
	C1657.695801,144.050552 1658.861694,144.274490 1661.303833,142.363632 
	C1671.287964,134.551407 1681.542236,127.084358 1692.383911,118.976471 
	C1689.775146,115.331062 1687.466675,111.445511 1684.529663,108.114227 
	C1670.865234,92.615761 1653.521729,83.093613 1633.866089,77.378792 
	C1619.524292,73.208969 1604.748779,72.983444 1590.215820,74.324799 
	C1577.205444,75.525627 1564.809937,80.062492 1553.303711,86.861458 
	C1539.145874,95.227173 1526.954224,105.512604 1517.515503,119.975594 
M1276.564941,209.957428 
	C1278.646606,208.675262 1280.728271,207.393097 1283.090088,205.938416 
	C1283.550781,207.219482 1284.047241,207.871582 1283.931519,208.386093 
	C1281.595093,218.780090 1279.416260,229.217453 1276.739258,239.524963 
	C1273.268555,252.888794 1269.127197,265.987488 1268.796387,280.082336 
	C1268.531738,291.354187 1277.961548,296.900635 1287.160156,291.033386 
	C1293.772827,286.815552 1299.630371,281.111084 1305.000854,275.307312 
	C1319.085571,260.086029 1332.617432,244.354172 1346.622192,229.056900 
	C1349.299683,226.132263 1353.081787,224.189789 1356.446655,221.931854 
	C1359.623657,219.800064 1362.527100,221.062927 1364.811035,223.419067 
	C1366.592041,225.256454 1367.889648,227.581741 1369.298462,229.757294 
	C1375.376343,239.142136 1380.914062,248.940033 1387.730469,257.750519 
	C1390.256714,261.015900 1395.682739,263.530914 1399.906250,263.720947 
	C1414.836304,264.392792 1425.308838,255.721664 1433.982910,244.738190 
	C1442.831665,233.533691 1444.281006,219.816132 1445.887573,206.287659 
	C1446.083008,204.641891 1444.748291,202.814407 1443.849365,200.309280 
	C1440.299805,205.511932 1437.690308,209.827042 1434.585815,213.750473 
	C1431.421265,217.749786 1427.823730,221.414810 1424.313965,225.130020 
	C1421.604248,227.998367 1418.141968,229.576050 1414.738525,226.984268 
	C1412.072510,224.953888 1409.532837,222.155579 1408.162720,219.141296 
	C1404.429810,210.928406 1401.591553,202.312164 1397.951660,194.052765 
	C1391.413208,179.215637 1375.842163,175.897293 1363.064209,186.438416 
	C1359.022705,189.772415 1354.841675,192.962479 1351.026489,196.540527 
	C1342.036011,204.972412 1333.161987,213.531586 1324.376099,222.176773 
	C1320.605835,225.886597 1317.171631,229.937973 1312.651489,234.847900 
	C1313.041504,231.208679 1312.946167,228.992233 1313.547852,226.984680 
	C1317.718994,213.066605 1322.303467,199.266449 1326.189453,185.271347 
	C1328.086182,178.440079 1329.557983,171.298065 1329.795654,164.248596 
	C1330.078979,155.845551 1322.958496,147.277130 1313.427734,147.843170 
	C1307.177124,148.214401 1302.958740,151.652390 1299.166626,155.503006 
	C1287.086548,167.769516 1275.347534,180.374374 1263.584106,192.948853 
	C1257.167358,199.808167 1250.877930,206.791992 1244.688721,213.857727 
	C1233.870972,226.207382 1223.256226,238.735657 1212.385498,251.037979 
	C1208.323364,255.635086 1203.958496,259.898407 1204.603027,268.018250 
	C1208.594971,266.609253 1212.631470,265.884308 1215.891602,263.889954 
	C1222.936523,259.580170 1229.857788,254.965454 1236.323853,249.837830 
	C1244.555176,243.310471 1252.629761,236.502609 1260.122314,229.153473 
	C1265.942261,223.445053 1270.767212,216.722092 1276.564941,209.957428 
M1043.011841,107.500481 
	C1052.960327,100.556152 1058.603882,90.522903 1061.787476,79.285385 
	C1063.315552,73.891182 1063.162354,67.842003 1062.803101,62.150524 
	C1062.535034,57.907055 1058.065063,55.346725 1054.207153,56.395443 
	C1031.519165,62.563095 1017.294495,76.984406 1012.067932,100.015427 
	C1010.983948,104.792000 1014.067688,111.141098 1018.785461,112.836319 
	C1027.510864,115.971596 1035.403564,113.667526 1043.011841,107.500481 
M1172.040161,94.453796 
	C1170.461182,95.287865 1168.683716,95.889328 1167.358643,97.020706 
	C1166.009399,98.172737 1164.251831,99.843025 1164.246216,101.292557 
	C1164.240356,102.750664 1165.894043,104.657883 1167.328857,105.559105 
	C1168.873535,106.529320 1171.224121,107.329086 1172.850586,106.873421 
	C1182.446655,104.184784 1192.390015,102.090714 1201.351807,97.933075 
	C1214.798828,91.694725 1227.581787,84.006538 1240.539917,76.743736 
	C1244.762573,74.377045 1249.284668,72.005676 1252.511597,68.553818 
	C1255.677612,65.167274 1256.891113,59.742832 1253.719971,55.854179 
	C1250.274170,51.628857 1245.407959,48.557034 1241.113892,45.039925 
	C1240.837646,44.813618 1240.004761,44.894413 1239.685425,45.150185 
	C1236.421631,47.765099 1232.973511,50.209152 1230.031006,53.154625 
	C1222.545044,60.648518 1215.745117,68.888168 1207.831543,75.879425 
	C1197.759521,84.777214 1185.251221,89.593735 1172.040161,94.453796 
z"/>
<path fill="#005295" opacity="1.000000" stroke="none" 
	d="
M2947.000000,284.531342 
	C2936.351807,281.317657 2925.801270,277.313507 2915.026611,274.048798 
	C2905.353027,271.117737 2896.079102,273.700714 2886.981201,277.433533 
	C2876.844238,281.592926 2866.826904,286.547516 2856.258545,289.042969 
	C2836.702637,293.660522 2817.182129,291.762787 2798.604980,283.800262 
	C2786.048340,278.418182 2774.754395,270.895599 2765.386963,260.838135 
	C2750.549072,244.907074 2740.861572,226.343018 2736.958740,204.783508 
	C2732.110596,178.001617 2735.441650,152.465332 2747.974609,128.234726 
	C2757.311035,110.184387 2770.904541,96.223831 2788.518311,86.092537 
	C2805.363770,76.403069 2823.473633,71.150513 2842.810791,73.274681 
	C2853.115723,74.406700 2863.481689,77.427826 2873.150879,81.277061 
	C2884.852539,85.935417 2896.589111,90.389038 2909.109131,90.775719 
	C2921.502197,91.158463 2932.964355,86.663231 2943.461914,80.013283 
	C2944.416016,79.408905 2945.363770,78.794235 2946.657227,78.092178 
	C2947.000000,146.687561 2947.000000,215.375122 2947.000000,284.531342 
M2806.042969,142.697311 
	C2799.444336,152.928787 2794.859375,164.121582 2794.173828,176.190323 
	C2792.929443,198.091736 2798.396484,217.772446 2816.056396,232.624756 
	C2823.843750,239.174133 2832.799316,243.051437 2842.742920,242.826050 
	C2858.637207,242.465790 2870.233154,233.845093 2878.968994,221.091736 
	C2890.371582,204.445969 2892.446533,185.867523 2888.702881,166.683380 
	C2885.678223,151.184509 2877.868164,138.012253 2864.453857,129.094284 
	C2850.866211,120.061150 2836.493652,118.704895 2822.495117,128.067184 
	C2816.638672,131.984039 2811.756104,137.357544 2806.042969,142.697311 
z"/>
<path fill="#005295" opacity="1.000000" stroke="none" 
	d="
M150.531342,1.000000 
	C158.426620,5.543263 157.281387,12.966979 156.841217,19.795662 
	C156.402908,26.595551 154.838165,33.314983 154.043442,40.102028 
	C153.301178,46.440895 150.535538,49.047821 144.577454,46.858334 
	C133.296082,42.712624 121.678635,42.335167 110.068428,43.161346 
	C99.957260,43.880852 88.940170,44.024502 81.888199,52.915672 
	C77.743118,58.141834 74.267120,64.398277 72.296776,70.751587 
	C67.328407,86.771950 63.112209,103.044075 59.166164,119.353600 
	C57.652264,125.610741 57.690609,132.243454 57.010345,138.814178 
	C77.322296,134.498947 97.196663,130.079300 117.161125,126.113159 
	C128.225204,123.915161 139.350372,124.670334 150.107162,128.147125 
	C154.182495,129.464340 157.296326,132.385010 156.963089,137.244156 
	C156.425095,145.089264 155.808899,152.936478 154.907135,160.746002 
	C154.466507,164.561798 150.920914,166.282867 146.917725,165.456161 
	C139.314667,163.886047 131.736526,161.910568 124.043617,161.121628 
	C109.495178,159.629639 95.539543,164.224884 81.338425,166.300446 
	C75.062347,167.217697 68.779564,168.089035 62.501175,168.990555 
	C53.863594,170.230881 50.148258,174.400085 49.115009,182.625046 
	C47.706001,193.841125 46.831161,205.133896 46.037510,216.415604 
	C44.570980,237.262238 43.368546,258.127319 41.975468,278.979309 
	C41.428921,287.160126 40.497280,295.317719 40.069962,303.503052 
	C39.845707,307.798676 37.936596,310.559814 34.105980,312.661804 
	C29.310745,313.000000 24.621489,313.000000 19.465687,312.607697 
	C13.464267,299.828705 13.782610,286.672028 14.034379,273.555328 
	C14.176965,266.126862 14.787405,258.708099 14.974369,251.279617 
	C15.387645,234.859238 15.649079,218.435074 16.024805,202.013641 
	C16.065674,200.227463 16.621988,198.451202 16.643353,196.666809 
	C16.721437,190.144882 16.674244,183.621460 16.674244,178.000000 
	C11.148925,178.000000 6.074462,178.000000 1.000000,178.000000 
	C1.000000,175.629440 1.000000,173.258896 1.334032,170.358017 
	C5.931100,165.236618 10.593146,160.944275 14.327169,155.957108 
	C17.162249,152.170563 20.006821,147.703003 20.778227,143.185211 
	C23.352964,128.106018 24.558657,112.793289 27.125910,97.712532 
	C29.482552,83.868996 32.606087,70.131470 35.985970,56.494503 
	C38.644852,45.766575 44.862309,36.841694 51.867008,28.358088 
	C61.569008,16.607704 73.337029,8.108415 88.065895,4.066805 
	C93.266212,2.639835 98.682381,1.999489 104.000000,1.000000 
	C106.041664,1.000000 108.083336,1.000000 110.678726,1.345404 
	C112.488304,1.460539 113.744148,1.230269 115.000000,1.000000 
	C126.687561,1.000000 138.375122,1.000000 150.531342,1.000000 
z"/>
<path fill="#FFFFFF" opacity="1.000000" stroke="none" 
	d="
M103.531342,1.000000 
	C98.682381,1.999489 93.266212,2.639835 88.065895,4.066805 
	C73.337029,8.108415 61.569008,16.607704 51.867008,28.358088 
	C44.862309,36.841694 38.644852,45.766575 35.985970,56.494503 
	C32.606087,70.131470 29.482552,83.868996 27.125910,97.712532 
	C24.558657,112.793289 23.352964,128.106018 20.778227,143.185211 
	C20.006821,147.703003 17.162249,152.170563 14.327169,155.957108 
	C10.593146,160.944275 5.931100,165.236618 1.334032,169.913849 
	C1.000000,113.757393 1.000000,57.514786 1.000000,1.000000 
	C35.020409,1.000000 69.041550,1.000000 103.531342,1.000000 
z"/>
<path fill="#FFFFFF" opacity="1.000000" stroke="none" 
	d="
M1.000000,178.468658 
	C6.074462,178.000000 11.148925,178.000000 16.674244,178.000000 
	C16.674244,183.621460 16.721437,190.144882 16.643353,196.666809 
	C16.621988,198.451202 16.065674,200.227463 16.024805,202.013641 
	C15.649079,218.435074 15.387645,234.859238 14.974369,251.279617 
	C14.787405,258.708099 14.176965,266.126862 14.034379,273.555328 
	C13.782610,286.672028 13.464267,299.828705 18.999571,312.607697 
	C13.017206,313.000000 7.034411,313.000000 1.000000,313.000000 
	C1.000000,268.312439 1.000000,223.624878 1.000000,178.468658 
z"/>
<path fill="#FFFFFF" opacity="1.000000" stroke="none" 
	d="
M114.600021,1.000000 
	C113.744148,1.230269 112.488304,1.460539 111.116226,1.345404 
	C112.066681,1.000000 113.133362,1.000000 114.600021,1.000000 
z"/>
<path fill="#005295" opacity="1.000000" stroke="none" 
	d="
M335.167206,268.874329 
	C335.127899,268.636566 335.088562,268.398834 335.560059,267.980713 
	C336.970398,267.425323 337.869873,267.050323 338.769348,266.675323 
	C337.901978,265.741669 337.034576,264.807983 336.167206,263.874329 
	C336.127899,263.636566 336.088562,263.398834 336.560059,262.980713 
	C337.970428,262.425323 338.869873,262.050323 339.769348,261.675323 
	C338.901978,260.741669 338.034576,259.807983 337.167206,258.874329 
	C337.127716,258.635956 337.088196,258.397614 337.540924,257.976868 
	C338.857635,257.514740 339.682068,257.234955 340.506531,256.955139 
	C339.726715,256.260773 338.946930,255.566376 338.167114,254.871964 
	C338.127838,254.634598 338.088531,254.397217 338.560059,253.980042 
	C339.970367,253.425247 340.869843,253.050247 341.769318,252.675247 
	C340.901947,251.741608 340.034576,250.807968 339.167206,249.874329 
	C339.127655,249.635986 339.088135,249.397644 339.540924,248.976929 
	C340.857635,248.514755 341.682068,248.234955 342.506500,247.955139 
	C341.726685,247.260757 340.946899,246.566360 340.167114,245.871964 
	C340.127594,245.634003 340.088104,245.396057 340.540894,244.976334 
	C341.857635,244.514755 342.682068,244.234955 343.506500,243.955154 
	C342.726715,243.260757 341.946930,242.566360 341.167114,241.871964 
	C341.127747,241.633575 341.088379,241.395203 341.516052,240.959015 
	C342.458740,240.505661 342.934418,240.250122 343.410095,239.994598 
	C342.995728,239.614319 342.581360,239.234055 342.166992,238.853790 
	C342.127563,238.618835 342.088135,238.383881 342.540955,237.971741 
	C343.857635,237.514755 344.682068,237.234955 345.506500,236.955154 
	C344.726685,236.260773 343.946899,235.566376 343.167114,234.871979 
	C343.127747,234.633575 343.088379,234.395203 343.516052,233.959015 
	C344.458740,233.505661 344.934418,233.250122 345.410095,232.994598 
	C344.995728,232.614334 344.581360,232.234070 344.166992,231.853806 
	C344.127563,231.618835 344.088135,231.383881 344.540955,230.971756 
	C345.857635,230.514771 346.682068,230.234970 347.506500,229.955170 
	C346.726715,229.260757 345.946899,228.566360 345.167114,227.871964 
	C345.127594,227.634003 345.088104,227.396057 345.540894,226.976318 
	C346.857635,226.514755 347.682068,226.234955 348.506500,225.955139 
	C347.726715,225.260742 346.946930,224.566345 346.167114,223.871948 
	C346.127747,223.633575 346.088379,223.395203 346.516052,222.959015 
	C347.458740,222.505661 347.934418,222.250122 348.410095,221.994598 
	C347.995728,221.614334 347.581360,221.234070 347.166992,220.853806 
	C347.129608,220.610657 347.092194,220.367523 347.606049,219.959412 
	C349.096893,219.022736 350.847534,218.235825 350.833405,217.481995 
	C350.776947,214.472137 352.388092,210.738190 348.166626,209.000275 
	C345.289337,205.356155 344.841400,207.392242 342.614258,210.254211 
	C336.153046,218.557144 328.699097,226.090210 321.597748,233.891739 
	C310.031860,246.598114 295.699127,254.811981 279.030884,258.346649 
	C264.974976,261.327332 254.809586,257.785431 249.023163,242.505692 
	C247.708435,239.034027 246.709396,235.443298 245.417892,231.961975 
	C245.134659,231.198486 244.223557,230.667938 243.601593,230.030121 
	C243.055328,230.651352 242.477325,231.247696 241.967697,231.897629 
	C236.379730,239.024185 230.939056,246.271652 225.183090,253.259521 
	C219.611328,260.023743 214.117645,266.943298 207.793396,272.957306 
	C204.744019,275.857086 199.989807,278.002502 195.789719,278.451569 
	C184.871414,279.618896 173.593124,280.431732 164.965332,271.338318 
	C163.242630,269.522675 162.319595,266.948303 161.465027,264.264801 
	C162.267044,262.118439 162.947037,260.426117 162.921036,258.744751 
	C162.884293,256.368408 162.269852,254.006424 162.001282,251.627136 
	C161.278641,245.224777 160.705872,238.802780 159.808304,232.425919 
	C159.679581,231.511398 158.083603,230.803406 157.166656,229.999832 
	C156.161346,224.994049 153.722382,227.219101 151.633362,229.017136 
	C145.602875,234.207581 139.663193,239.503510 133.343781,244.347870 
	C132.998154,241.202194 133.300629,238.417358 132.868469,235.751648 
	C132.647842,234.390808 131.109436,233.243591 130.166656,231.999832 
	C131.861252,227.090942 133.555862,222.182037 135.957932,217.126877 
	C142.248795,216.179367 145.355392,212.304428 143.952637,207.891052 
	C153.723709,194.678528 163.494797,181.466003 173.964600,168.117035 
	C175.902267,167.672287 177.511292,167.755249 178.319031,166.991150 
	C182.981705,162.580505 187.564178,158.069321 191.887970,153.331329 
	C192.631775,152.516281 192.002319,150.447983 192.007202,148.958603 
	C192.007217,148.958603 192.244171,148.681808 192.890518,148.792236 
	C197.025528,148.935043 200.525330,149.139297 203.997299,148.914215 
	C205.362991,148.825684 206.666504,147.777710 207.998337,147.166656 
	C210.141068,151.891159 209.573685,156.700302 208.064148,161.374023 
	C203.824463,174.500732 199.268646,187.526337 195.115250,200.679504 
	C192.846832,207.863220 190.877533,215.166245 189.248398,222.520691 
	C187.209167,231.726379 189.273178,240.498093 193.523819,248.718826 
	C193.885681,249.418640 196.544098,248.930954 198.854431,249.118149 
	C200.991837,249.320679 202.932022,250.031525 203.736389,249.367172 
	C206.797470,246.838867 209.649353,243.999512 212.210358,240.964951 
	C212.836273,240.223267 212.059952,238.298203 211.928329,236.917206 
	C211.928329,236.917206 211.984802,236.999481 212.332489,236.987015 
	C218.472412,236.101379 223.328278,230.295578 221.928329,225.917206 
	C221.928329,225.917206 221.984802,225.999481 222.334381,225.987030 
	C228.207809,225.174744 230.374603,222.380646 228.952637,217.891052 
	C235.627563,208.647781 242.212021,199.337006 249.029816,190.200317 
	C251.214462,187.272614 254.016037,184.805222 257.287781,182.484558 
	C262.763855,184.083557 267.509857,185.786469 271.998383,182.166656 
	C277.673950,186.247147 276.530029,192.740112 276.794556,198.186844 
	C277.238159,207.322250 277.884033,216.276352 282.320129,224.381226 
	C283.265564,226.108536 286.262543,226.712952 288.754944,228.365906 
	C290.052887,229.016861 290.910248,229.136597 291.767578,229.256317 
	C291.998383,229.184631 292.231415,229.120926 292.800720,229.511871 
	C294.975677,230.158432 297.155823,231.077652 298.584686,230.403824 
	C301.302338,229.122238 303.772247,227.119766 305.965485,225.020187 
	C306.816071,224.205917 306.637756,222.316833 306.928162,220.917389 
	C306.928162,220.917389 306.984802,220.999695 307.332520,220.987122 
	C313.472382,220.101364 318.328308,214.295471 316.928345,209.917221 
	C316.928345,209.917221 316.984772,209.999527 317.334320,209.987061 
	C323.213470,209.175934 325.388336,206.369675 323.928345,201.917221 
	C323.928345,201.917221 323.984772,201.999527 324.334320,201.987061 
	C330.213470,201.175934 332.388336,198.369675 330.928345,193.917221 
	C330.928345,193.917221 330.984772,193.999527 331.334320,193.987061 
	C337.213470,193.175934 339.388336,190.369675 337.928345,185.917221 
	C337.928345,185.917221 337.984772,185.999527 338.333313,185.987061 
	C344.251587,185.178329 347.367310,181.283997 345.928345,176.917221 
	C345.928345,176.917221 345.984772,176.999527 346.332764,176.987030 
	C352.468567,176.091980 356.342499,171.368011 354.928345,166.917221 
	C354.928345,166.917221 354.984772,166.999527 355.332306,166.987030 
	C361.837494,166.303009 364.143555,160.861267 367.716949,157.050369 
	C368.123199,156.617081 367.238647,154.973450 366.952637,153.891052 
	C368.800201,152.655106 370.647766,151.419159 373.359863,150.477997 
	C376.351929,150.848511 378.514038,151.193359 380.597565,150.925903 
	C382.770630,150.646927 384.867950,149.777786 386.998383,149.166656 
	C393.870941,154.679199 395.469452,162.573669 394.920593,170.459015 
	C394.455627,177.138870 392.296570,183.816727 390.122650,190.236557 
	C386.131744,202.022156 381.411621,213.560364 377.390106,225.336456 
	C376.519958,227.884491 377.317963,231.002167 377.748260,234.349899 
	C379.931458,234.561966 382.717773,234.894272 383.326294,233.897339 
	C386.282227,229.054413 394.878571,228.023392 392.928345,219.917221 
	C392.928345,219.917221 392.984772,219.999527 393.332306,219.987030 
	C395.515350,219.087433 397.724060,218.589417 399.123322,217.247437 
	C406.040619,210.613205 412.706970,203.718277 419.544128,196.999008 
	C421.706360,194.874039 424.558929,193.323380 426.291534,190.928268 
	C427.790771,188.855713 431.693085,187.711716 429.952698,183.890991 
	C430.829926,183.301651 431.707153,182.712326 433.288086,182.469208 
	C435.051422,183.183121 436.273987,184.093002 437.144531,183.831421 
	C443.225769,182.004028 449.036682,183.157349 454.833374,185.000916 
	C461.220337,189.771332 464.721252,196.523926 467.669586,203.662216 
	C470.612518,210.787476 473.199463,218.097122 476.702393,224.936752 
	C478.266174,227.990128 481.622589,230.150299 485.781464,228.083481 
	C487.490265,227.234253 489.351410,226.691544 491.853333,226.123291 
	C494.052979,226.025436 495.872650,226.289536 496.977478,225.523117 
	C503.172760,221.225525 509.560242,217.091385 515.185364,212.114029 
	C522.252747,205.860489 528.746216,198.939743 535.226196,192.060928 
	C536.192017,191.035690 535.729858,188.665329 535.928284,186.917252 
	C535.928284,186.917252 535.984924,186.999573 536.332397,186.987061 
	C538.038208,186.555939 539.764587,186.527924 540.693176,185.653122 
	C545.478394,181.144699 550.183350,176.532120 554.601379,171.669708 
	C555.439087,170.747726 554.855835,168.534607 554.928284,166.917252 
	C554.928284,166.917252 554.984924,166.999573 555.332397,166.987045 
	C557.403625,166.199020 559.469482,165.799011 560.797363,164.589081 
	C572.209351,154.190994 581.575317,141.553833 595.068909,133.401749 
	C595.802673,132.958405 595.677917,131.093887 595.952759,129.890900 
	C596.400391,129.593521 596.848022,129.296158 597.933838,129.119537 
	C600.961060,129.740265 611.300598,124.326767 611.714478,122.137749 
	C611.903198,121.139175 611.233215,119.978249 610.952759,118.890968 
	C619.246460,101.156334 627.540161,83.421692 636.354187,65.333633 
	C637.421387,64.609085 637.968262,64.237953 638.515137,63.866821 
	C638.065735,63.525234 637.616333,63.183647 637.166931,62.842052 
	C637.127686,62.608593 637.088379,62.375134 637.516113,61.951431 
	C638.458740,61.505676 638.934448,61.250160 639.410095,60.994637 
	C638.995728,60.614365 638.581360,60.234100 638.166992,59.853836 
	C638.127686,59.618439 638.088379,59.383034 638.516113,58.954399 
	C639.458740,58.505646 639.934448,58.250130 640.410095,57.994617 
	C639.995728,57.614357 639.581360,57.234093 639.166992,56.853836 
	C639.127686,56.618439 639.088379,56.383034 639.516113,55.954407 
	C640.458740,55.505669 640.934448,55.250156 641.410095,54.994637 
	C640.995728,54.614372 640.581360,54.234108 640.166992,53.853844 
	C640.127686,53.618439 640.088379,53.383034 640.516113,52.954407 
	C641.458740,52.505669 641.934448,52.250153 642.410095,51.994633 
	C641.995728,51.614365 641.581360,51.234100 641.166992,50.853836 
	C641.127686,50.618439 641.088379,50.383034 641.516113,49.954407 
	C642.458740,49.505665 642.934448,49.250149 643.410095,48.994629 
	C642.995728,48.614357 642.581360,48.234093 642.166992,47.853836 
	C642.127686,47.618439 642.088379,47.383034 642.516113,46.954407 
	C643.458740,46.505661 643.934448,46.250145 644.410095,45.994633 
	C643.995728,45.614372 643.581360,45.234108 643.166992,44.853844 
	C643.127563,44.618877 643.088135,44.383915 643.540955,43.971771 
	C644.857666,43.514805 645.682068,43.235020 646.506531,42.955231 
	C645.726746,42.260784 644.946899,41.566334 644.167114,40.871887 
	C644.127747,40.633511 644.088440,40.395130 644.516113,39.958969 
	C645.458740,39.505672 645.934448,39.250156 646.410095,38.994637 
	C645.995728,38.614372 645.581360,38.234108 645.166992,37.853844 
	C645.127563,37.618877 645.088135,37.383915 645.540955,36.971771 
	C646.857666,36.514805 647.682068,36.235016 648.506531,35.955231 
	C647.726746,35.260784 646.946899,34.566334 646.167114,33.871887 
	C646.127747,33.633511 646.088440,33.395138 646.516113,32.958981 
	C647.458740,32.505680 647.934448,32.250156 648.410095,31.994629 
	C647.995728,31.614359 647.581360,31.234095 647.166992,30.853832 
	C647.128479,30.615803 647.090027,30.377769 647.531128,29.953121 
	C648.174927,28.613756 648.339233,27.461002 648.503540,26.308247 
	C650.086670,22.962181 651.669800,19.616119 653.958374,16.125320 
	C656.839294,14.756980 659.712952,14.048809 661.064941,12.217359 
	C665.977173,5.562687 672.084595,3.569630 679.833374,6.000936 
	C680.125183,11.203679 681.528381,16.645592 680.471252,21.558054 
	C678.436890,31.011244 675.106140,40.195679 672.136536,49.434818 
	C668.305908,61.352638 664.556396,73.306580 660.307556,85.077370 
	C655.159058,99.340668 649.542664,113.435501 644.095703,127.590546 
	C640.561707,136.774384 635.831909,145.683899 633.730164,155.179443 
	C631.731384,164.210083 629.978149,173.382095 632.001343,183.340561 
	C633.461914,190.529709 634.247375,198.037155 636.543884,205.070251 
	C639.486084,214.080521 644.337219,221.706055 654.848877,223.412430 
	C661.833008,224.546158 668.004150,221.603973 673.669617,218.519836 
	C684.785461,212.468658 694.329346,204.267426 703.388916,195.325577 
	C716.908936,181.981262 730.777954,168.936890 745.171204,156.546478 
	C758.712097,144.889847 772.591919,133.478302 788.883118,125.623032 
	C791.778015,124.227150 794.802185,122.987892 797.893372,122.136642 
	C802.505188,120.866653 809.152527,122.924675 810.965027,125.812180 
	C813.408875,129.705460 812.960571,136.330185 808.861023,140.437469 
	C802.193604,147.117447 794.905396,153.174667 787.944092,159.565460 
	C782.582581,164.487534 777.107971,169.313202 772.062866,174.547272 
	C763.695435,183.228256 755.559570,192.136612 747.462402,201.072693 
	C739.508118,209.851273 731.665527,218.733536 723.918640,227.695328 
	C722.536377,229.294312 721.858887,231.502563 720.391663,234.321640 
	C728.991516,231.614410 734.427307,226.208481 740.170776,221.310333 
	C754.151855,209.386932 768.074890,197.395538 782.036804,185.449738 
	C787.624512,180.668915 794.387512,180.542740 801.129517,181.171341 
	C802.517273,181.300781 804.615540,183.389450 804.828918,184.809143 
	C805.584167,189.834167 805.447754,194.986664 806.054382,200.042236 
	C806.827026,206.481155 807.704712,212.935013 809.066956,219.268463 
	C810.630737,226.538940 818.803162,231.047134 825.986633,226.377777 
	C832.786926,221.957489 839.221924,216.934357 845.568604,211.864716 
	C864.203064,196.979660 882.536377,181.712555 901.333313,167.037796 
	C914.522095,156.741302 928.535400,147.586472 943.846497,140.616547 
	C945.601135,139.817810 947.336731,138.916809 949.172058,138.366272 
	C956.724487,136.100784 962.030212,140.640762 963.183228,148.318115 
	C964.819458,159.212051 957.937805,164.283813 950.798279,169.661346 
	C933.113831,182.981369 915.399048,196.262802 897.839050,209.745499 
	C890.202087,215.609238 886.552246,223.980469 885.058228,233.239151 
	C883.688354,241.728638 889.212952,247.921341 896.480530,250.692429 
	C906.183228,254.391953 915.822693,253.720551 925.355896,249.289764 
	C947.974548,238.777191 966.231079,222.636322 982.784607,204.501312 
	C991.688904,194.746445 999.383362,183.896744 1007.846130,173.726074 
	C1013.404663,167.045670 1020.851501,168.161743 1027.790527,170.483566 
	C1034.082275,172.588821 1039.359497,178.927170 1040.117554,186.174133 
	C1041.353271,197.989914 1043.178711,209.754166 1045.134155,221.476974 
	C1045.592651,224.225784 1047.234253,226.963211 1048.918701,229.278580 
	C1051.533325,232.872513 1056.660156,234.001404 1061.111694,231.237366 
	C1069.779663,225.855194 1078.714722,220.581100 1086.326782,213.884262 
	C1104.805054,197.627731 1122.598267,180.592072 1140.646484,163.847504 
	C1146.348511,158.557343 1151.907837,153.111496 1157.670410,147.889114 
	C1163.388550,142.707062 1170.176147,141.664520 1177.236572,144.253082 
	C1179.937500,145.243408 1182.380127,147.524094 1179.999268,151.237625 
	C1178.796875,153.113144 1177.927612,155.202377 1177.026001,156.963974 
	C1184.124634,155.635544 1191.127563,153.498657 1198.215820,153.163208 
	C1215.224487,152.358261 1224.461548,163.600204 1227.882568,178.424271 
	C1230.634521,190.348175 1228.926270,202.273331 1224.862671,213.624542 
	C1221.405518,223.281891 1215.780884,231.738190 1209.063110,239.701324 
	C1197.035278,253.958908 1182.026733,264.341064 1166.345215,273.687653 
	C1153.576904,281.297913 1139.380005,279.982880 1125.385376,276.741058 
	C1108.671509,272.869354 1102.554321,258.570343 1105.740845,243.377213 
	C1106.812134,238.269272 1106.756104,232.924927 1107.290894,226.828506 
	C1096.818359,234.654831 1087.053223,242.101471 1077.123779,249.321945 
	C1070.169189,254.379150 1063.176514,259.430542 1055.862061,263.934387 
	C1047.346802,269.177490 1038.950684,268.270782 1032.507690,260.778839 
	C1025.193970,252.274307 1018.636353,243.096466 1012.081360,233.973312 
	C1009.357788,230.182693 1007.400024,225.822647 1005.265137,221.634323 
	C1003.520142,218.210953 1001.858826,216.480804 998.351013,220.051437 
	C993.955078,224.526062 989.150146,228.595810 984.595886,232.918427 
	C965.309082,251.224319 944.408752,267.228149 919.890991,277.995239 
	C899.768494,286.832123 879.963318,285.354645 860.985046,274.851746 
	C853.880981,270.920227 850.795593,263.734283 849.959900,255.629837 
	C849.379456,250.000320 848.421570,244.409698 847.451233,237.515182 
	C845.087524,239.269623 843.427551,240.511856 841.757202,241.739868 
	C834.029541,247.421127 826.766846,253.954224 818.426025,258.514740 
	C811.360168,262.378113 802.825317,264.351196 794.961243,260.202850 
	C791.137695,258.185883 787.233704,254.851028 785.252075,251.112976 
	C780.880493,242.866196 777.705017,233.985413 773.908325,225.049896 
	C761.194580,235.238998 748.869812,245.311554 736.325623,255.103058 
	C727.486694,262.002472 718.661438,269.004181 709.252441,275.063263 
	C700.930969,280.421997 691.932129,278.778381 683.855042,273.851135 
	C679.377380,271.119659 679.480713,265.938629 680.111755,261.361145 
	C680.993591,254.964630 682.458374,248.648468 683.495667,243.228241 
	C675.925110,246.856201 668.247986,251.257202 660.059082,254.265335 
	C651.086426,257.561371 641.732178,258.297607 632.753174,253.327332 
	C625.903748,249.535828 621.919006,243.225388 618.026733,236.886597 
	C612.348938,227.639816 606.851685,218.278854 601.461182,208.861420 
	C600.181763,206.626129 598.943176,206.187363 597.477661,208.138550 
	C591.146301,216.568054 585.292053,225.378265 578.629700,233.531464 
	C569.036255,245.271713 559.505371,257.178802 548.780762,267.840820 
	C540.787903,275.787048 531.572815,282.941833 519.330566,283.984985 
	C513.968140,284.441986 506.623535,280.491455 503.512177,274.281067 
	C504.927704,270.595520 503.753601,266.607758 501.167206,264.873932 
	C501.128479,264.633026 501.089783,264.392120 501.574127,263.974304 
	C503.027802,263.253845 503.958435,262.710236 504.889069,262.166626 
	C503.981781,261.069519 503.074524,259.972382 502.167236,258.875244 
	C502.127716,258.636719 502.088165,258.398193 502.540924,257.977112 
	C503.857635,257.514740 504.682068,257.234955 505.506531,256.955139 
	C504.726715,256.260773 503.946930,255.566360 503.167114,254.871964 
	C503.127747,254.633575 503.088379,254.395203 503.516052,253.959015 
	C504.458740,253.505661 504.934418,253.250122 505.410095,252.994598 
	C504.995728,252.614349 504.581360,252.234085 504.166992,251.853821 
	C504.127716,251.618423 504.088409,251.383041 504.516113,250.954437 
	C505.458740,250.505676 505.934418,250.250137 506.410095,249.994598 
	C505.995728,249.614334 505.581360,249.234070 505.166992,248.853806 
	C505.127716,248.618423 505.088409,248.383041 505.516113,247.954437 
	C506.458740,247.505661 506.934418,247.250122 507.410095,246.994598 
	C506.995728,246.614334 506.581360,246.234070 506.166992,245.853806 
	C506.128510,245.615768 506.090057,245.377716 506.531189,244.953079 
	C507.175049,243.613754 507.339325,242.460999 507.503601,241.308258 
	C507.906433,240.201721 508.309235,239.095200 508.712067,237.988663 
	C508.361847,237.610962 508.011597,237.233261 507.661377,236.855560 
	C504.378296,239.132126 500.953186,241.231293 497.841644,243.722137 
	C491.351807,248.917282 486.791351,256.082214 479.408203,260.544281 
	C471.508301,265.318634 462.724457,265.771820 456.708435,258.933044 
	C451.056274,252.507904 446.530914,245.086609 441.564331,238.064987 
	C438.568695,233.829773 435.932800,229.313950 432.678772,225.293671 
	C427.813049,219.282211 421.561859,219.484909 415.955902,224.963715 
	C409.999786,230.784805 403.366364,235.943054 397.681824,242.003372 
	C391.991028,248.070343 387.197144,254.969864 381.831024,261.353943 
	C379.216675,264.464264 376.151733,267.191681 373.366425,270.163361 
	C368.608734,275.239380 363.959076,280.417053 359.173157,285.465942 
	C354.893616,289.980560 342.334015,295.506226 337.641846,291.856506 
	C336.428101,290.912445 335.367004,289.772156 334.565094,288.268036 
	C336.614105,284.929840 337.044861,282.366486 333.167267,280.875549 
	C333.129028,280.631958 333.090759,280.388336 333.584656,279.970032 
	C335.064911,279.082703 336.919128,277.963348 336.811829,277.724182 
	C336.184875,276.327118 335.098511,275.136200 334.167267,273.875671 
	C334.127930,273.637695 334.088562,273.399719 334.560059,272.981018 
	C335.970428,272.425323 336.869873,272.050323 337.769348,271.675323 
	C336.901947,270.741669 336.034576,269.808014 335.167206,268.874329 
M562.230164,224.248901 
	C563.925476,222.223846 565.644714,220.218323 567.312256,218.170670 
	C581.424500,200.841660 593.691711,182.335159 602.972351,161.947479 
	C604.093872,159.483719 604.782349,156.822830 605.671509,154.253311 
	C601.439758,155.879181 597.869324,157.927444 594.971375,160.682938 
	C591.716858,163.777466 589.069458,167.510513 586.158630,170.966400 
	C581.479492,176.521622 576.462524,181.831421 572.203735,187.692108 
	C566.239563,195.899567 560.768799,204.470871 555.222473,212.974930 
	C550.980225,219.479416 546.484924,225.893494 543.079468,232.827759 
	C541.925354,235.177811 538.311279,239.099274 543.135315,242.832748 
	C544.230103,242.909546 545.742798,243.490677 546.354065,242.984039 
	C551.667725,238.580078 556.918274,234.084579 561.912842,229.327728 
	C562.658264,228.617813 561.974792,226.407562 562.230164,224.248901 
M1160.442383,251.039764 
	C1172.175415,244.538956 1182.315918,236.239700 1188.981201,224.407410 
	C1192.842163,217.553513 1197.779907,210.839539 1196.935425,202.366196 
	C1195.875122,191.728973 1191.039673,187.914291 1181.824341,189.263611 
	C1177.355347,189.917938 1172.809204,192.703674 1169.159790,195.607590 
	C1164.830444,199.052582 1161.970703,204.411987 1157.524536,207.629608 
	C1144.061523,217.372437 1141.115234,231.518478 1141.315796,246.413788 
	C1141.417480,253.966995 1146.896118,256.309753 1152.811646,254.620850 
	C1155.265381,253.920334 1157.547485,252.619339 1160.442383,251.039764 
z"/>
<path fill="#005295" opacity="1.000000" stroke="none" 
	d="
M2240.797607,97.711349 
	C2251.996582,89.546005 2263.544922,82.794678 2276.618896,78.997375 
	C2286.499512,76.127625 2296.490967,74.439461 2306.854492,73.822517 
	C2328.219971,72.550629 2348.122314,76.896103 2366.828125,87.001389 
	C2384.588379,96.595879 2398.573975,110.115753 2409.143066,127.399452 
	C2420.998535,146.786346 2425.340332,167.923004 2423.868164,190.185623 
	C2422.265381,214.426361 2413.119629,235.703720 2396.700928,253.912689 
	C2382.840576,269.284271 2366.279541,280.340881 2346.498535,286.040283 
	C2308.945557,296.860168 2273.912354,291.657440 2242.359375,267.818604 
	C2219.679443,250.683594 2205.874023,227.785400 2201.218018,199.922745 
	C2197.853027,179.786179 2199.778809,159.836121 2208.000977,140.774673 
	C2214.096924,126.642303 2222.622070,114.259842 2233.812256,103.716736 
	C2235.957031,101.696060 2238.295410,99.880928 2240.797607,97.711349 
M2356.542969,214.961166 
	C2357.281006,213.512482 2358.088135,212.094559 2358.745605,210.610229 
	C2364.236328,198.211975 2366.586670,185.095001 2364.689697,171.799713 
	C2362.555908,156.844559 2355.154541,144.215637 2343.678711,134.212570 
	C2335.364258,126.965439 2325.741699,122.341408 2314.626953,122.080772 
	C2297.534668,121.679985 2283.876221,128.545975 2273.255859,142.124146 
	C2259.088867,160.236328 2256.102539,180.329880 2262.141602,201.918869 
	C2265.685059,214.586777 2273.169434,224.993454 2283.631348,233.094696 
	C2291.392578,239.104706 2300.205811,243.127396 2310.022461,242.862442 
	C2330.239014,242.316788 2345.765625,233.163712 2356.542969,214.961166 
z"/>
<path fill="#005295" opacity="1.000000" stroke="none" 
	d="
M1857.959473,73.000038 
	C1875.253540,74.032570 1891.805786,76.859550 1906.847900,84.635078 
	C1915.708740,89.215401 1923.843994,95.372810 1931.812866,101.465424 
	C1944.239746,110.966736 1952.719604,123.688881 1959.286011,137.731216 
	C1964.058472,147.937180 1966.749634,158.631638 1968.147217,169.882126 
	C1970.854858,191.678040 1966.859619,212.147476 1957.046997,231.451874 
	C1944.605957,255.927170 1925.089966,272.634521 1899.716919,283.229187 
	C1881.717651,290.744781 1863.019165,292.487793 1844.247314,290.707855 
	C1821.241943,288.526581 1800.556641,279.727783 1782.663574,264.361053 
	C1762.633911,247.159393 1750.576782,225.534042 1746.259766,199.958344 
	C1742.633301,178.473694 1745.413452,157.398605 1754.850830,137.328964 
	C1760.853149,124.564224 1768.593018,113.158333 1778.921021,103.689476 
	C1794.405762,89.493042 1812.324829,79.679062 1833.217651,76.057846 
	C1841.246094,74.666306 1849.399780,73.997894 1857.959473,73.000038 
M1906.951050,203.219055 
	C1907.966797,198.309738 1909.509766,193.441956 1909.900513,188.483383 
	C1911.116211,173.059418 1907.606812,158.658066 1898.932495,145.759338 
	C1888.601685,130.397476 1868.894043,118.887909 1849.536011,122.791245 
	C1822.675293,128.207504 1805.601685,153.085724 1804.115234,176.994370 
	C1803.063965,193.903778 1807.495728,209.506744 1818.000366,223.166809 
	C1827.978027,236.141663 1849.033936,246.449234 1867.425781,241.339737 
	C1887.382568,235.795471 1899.479858,222.640228 1906.951050,203.219055 
z"/>
<path fill="#005295" opacity="1.000000" stroke="none" 
	d="
M2626.000000,193.000046 
	C2626.052734,179.194839 2626.571045,165.852585 2622.046631,152.994522 
	C2615.417480,134.155441 2599.685791,121.350174 2579.033936,123.205360 
	C2559.007812,125.004349 2543.737793,135.133789 2535.591309,154.107239 
	C2533.784912,158.314133 2533.131836,163.306274 2533.108154,167.942764 
	C2532.916016,205.605713 2533.000000,243.270065 2533.000000,280.933990 
	C2533.000000,282.747040 2533.000000,284.560089 2533.000000,286.685730 
	C2514.365967,286.685730 2495.969482,286.685730 2477.285645,286.685730 
	C2477.285645,217.953308 2477.285645,149.204422 2477.285645,79.474602 
	C2481.479248,81.297859 2485.439697,82.845779 2489.246094,84.708603 
	C2499.150879,89.555931 2509.726562,92.594322 2520.513672,90.703659 
	C2530.272949,88.993156 2539.749512,85.309998 2549.131592,81.894722 
	C2562.507080,77.025925 2576.058350,72.693298 2590.371582,73.120743 
	C2617.638672,73.935028 2641.529053,83.179642 2659.662842,104.297447 
	C2670.639893,117.080658 2677.616943,132.138397 2679.840820,148.843628 
	C2681.637695,162.340729 2682.648193,176.018356 2682.864746,189.634094 
	C2683.312988,217.791580 2683.034668,245.961243 2682.962646,274.125671 
	C2682.951904,278.325287 2682.439209,282.523651 2682.150879,286.839417 
	C2663.213379,286.839417 2644.925537,286.839417 2626.000000,286.839417 
	C2626.000000,255.681076 2626.000000,224.590546 2626.000000,193.000046 
z"/>
<path fill="#005295" opacity="1.000000" stroke="none" 
	d="
M1517.730713,119.674118 
	C1526.954224,105.512604 1539.145874,95.227173 1553.303711,86.861458 
	C1564.809937,80.062492 1577.205444,75.525627 1590.215820,74.324799 
	C1604.748779,72.983444 1619.524292,73.208969 1633.866089,77.378792 
	C1653.521729,83.093613 1670.865234,92.615761 1684.529663,108.114227 
	C1687.466675,111.445511 1689.775146,115.331062 1692.383911,118.976471 
	C1681.542236,127.084358 1671.287964,134.551407 1661.303833,142.363632 
	C1658.861694,144.274490 1657.695801,144.050552 1655.529419,142.160446 
	C1651.238037,138.416168 1646.833618,134.693283 1642.035400,131.657715 
	C1625.322021,121.083725 1607.490601,118.262840 1589.130371,126.583870 
	C1579.693848,130.860580 1572.283813,138.058319 1566.935913,147.210403 
	C1559.923096,159.211868 1556.247803,172.160187 1557.115723,185.947266 
	C1558.525024,208.332352 1568.067871,226.518982 1588.185425,237.479141 
	C1609.632324,249.163437 1641.746826,241.267319 1654.515869,222.202194 
	C1655.242554,221.117172 1658.157593,220.082016 1658.864258,220.611542 
	C1669.557861,228.623703 1680.052490,236.901413 1690.588623,245.123535 
	C1690.711182,245.219162 1690.764771,245.403214 1691.075195,245.919556 
	C1685.135010,257.205475 1675.873047,265.639069 1665.438965,272.833008 
	C1643.364136,288.053040 1618.563354,293.124512 1592.263550,290.876892 
	C1573.937500,289.310730 1557.272339,282.282288 1542.802246,271.097626 
	C1523.093994,255.863998 1508.435791,236.741776 1501.710571,212.287994 
	C1497.838379,198.208221 1497.164429,183.972183 1498.861206,169.422043 
	C1500.483521,155.509903 1504.554565,142.524368 1511.017212,130.227005 
	C1512.893188,126.657356 1515.333862,123.384521 1517.730713,119.674118 
z"/>
<path fill="#005295" opacity="1.000000" stroke="none" 
	d="
M2146.833496,77.000526 
	C2146.882568,99.024689 2146.931641,121.048851 2146.670410,143.542175 
	C2146.360107,144.011337 2145.887207,144.042862 2145.887207,144.042862 
	C2136.815918,135.632416 2126.078613,130.645187 2113.735352,131.140854 
	C2093.426514,131.956406 2078.147461,146.026016 2078.049561,167.175323 
	C2077.874023,205.166031 2078.000000,243.158142 2078.000000,281.149658 
	C2078.000000,282.942810 2078.000000,284.735992 2078.000000,286.761719 
	C2059.213135,286.761719 2040.819214,286.761719 2022.212524,286.761719 
	C2022.212524,217.285263 2022.212524,148.014435 2022.212524,77.709213 
	C2045.024048,94.831039 2068.533447,94.508873 2093.278320,81.451630 
	C2097.725098,80.836380 2101.343262,79.691666 2105.049316,79.071060 
	C2118.887451,76.753815 2132.792236,75.391373 2146.833496,77.000526 
z"/>
<path fill="#005295" opacity="1.000000" stroke="none" 
	d="
M1276.299683,210.203751 
	C1270.767212,216.722092 1265.942261,223.445053 1260.122314,229.153473 
	C1252.629761,236.502609 1244.555176,243.310471 1236.323853,249.837830 
	C1229.857788,254.965454 1222.936523,259.580170 1215.891602,263.889954 
	C1212.631470,265.884308 1208.594971,266.609253 1204.603027,268.018250 
	C1203.958496,259.898407 1208.323364,255.635086 1212.385498,251.037979 
	C1223.256226,238.735657 1233.870972,226.207382 1244.688721,213.857727 
	C1250.877930,206.791992 1257.167358,199.808167 1263.584106,192.948853 
	C1275.347534,180.374374 1287.086548,167.769516 1299.166626,155.503006 
	C1302.958740,151.652390 1307.177124,148.214401 1313.427734,147.843170 
	C1322.958496,147.277130 1330.078979,155.845551 1329.795654,164.248596 
	C1329.557983,171.298065 1328.086182,178.440079 1326.189453,185.271347 
	C1322.303467,199.266449 1317.718994,213.066605 1313.547852,226.984680 
	C1312.946167,228.992233 1313.041504,231.208679 1312.651489,234.847900 
	C1317.171631,229.937973 1320.605835,225.886597 1324.376099,222.176773 
	C1333.161987,213.531586 1342.036011,204.972412 1351.026489,196.540527 
	C1354.841675,192.962479 1359.022705,189.772415 1363.064209,186.438416 
	C1375.842163,175.897293 1391.413208,179.215637 1397.951660,194.052765 
	C1401.591553,202.312164 1404.429810,210.928406 1408.162720,219.141296 
	C1409.532837,222.155579 1412.072510,224.953888 1414.738525,226.984268 
	C1418.141968,229.576050 1421.604248,227.998367 1424.313965,225.130020 
	C1427.823730,221.414810 1431.421265,217.749786 1434.585815,213.750473 
	C1437.690308,209.827042 1440.299805,205.511932 1443.849365,200.309280 
	C1444.748291,202.814407 1446.083008,204.641891 1445.887573,206.287659 
	C1444.281006,219.816132 1442.831665,233.533691 1433.982910,244.738190 
	C1425.308838,255.721664 1414.836304,264.392792 1399.906250,263.720947 
	C1395.682739,263.530914 1390.256714,261.015900 1387.730469,257.750519 
	C1380.914062,248.940033 1375.376343,239.142136 1369.298462,229.757294 
	C1367.889648,227.581741 1366.592041,225.256454 1364.811035,223.419067 
	C1362.527100,221.062927 1359.623657,219.800064 1356.446655,221.931854 
	C1353.081787,224.189789 1349.299683,226.132263 1346.622192,229.056900 
	C1332.617432,244.354172 1319.085571,260.086029 1305.000854,275.307312 
	C1299.630371,281.111084 1293.772827,286.815552 1287.160156,291.033386 
	C1277.961548,296.900635 1268.531738,291.354187 1268.796387,280.082336 
	C1269.127197,265.987488 1273.268555,252.888794 1276.739258,239.524963 
	C1279.416260,229.217453 1281.595093,218.780090 1283.931519,208.386093 
	C1284.047241,207.871582 1283.550781,207.219482 1283.090088,205.938416 
	C1280.728271,207.393097 1278.646606,208.675262 1276.299683,210.203751 
z"/>
<path fill="#005295" opacity="1.000000" stroke="none" 
	d="
M1042.746948,107.757843 
	C1035.403564,113.667526 1027.510864,115.971596 1018.785461,112.836319 
	C1014.067688,111.141098 1010.983948,104.792000 1012.067932,100.015427 
	C1017.294495,76.984406 1031.519165,62.563095 1054.207153,56.395443 
	C1058.065063,55.346725 1062.535034,57.907055 1062.803101,62.150524 
	C1063.162354,67.842003 1063.315552,73.891182 1061.787476,79.285385 
	C1058.603882,90.522903 1052.960327,100.556152 1042.746948,107.757843 
z"/>
<path fill="#005295" opacity="1.000000" stroke="none" 
	d="
M1172.372925,94.249405 
	C1185.251221,89.593735 1197.759521,84.777214 1207.831543,75.879425 
	C1215.745117,68.888168 1222.545044,60.648518 1230.031006,53.154625 
	C1232.973511,50.209152 1236.421631,47.765099 1239.685425,45.150185 
	C1240.004761,44.894413 1240.837646,44.813618 1241.113892,45.039925 
	C1245.407959,48.557034 1250.274170,51.628857 1253.719971,55.854179 
	C1256.891113,59.742832 1255.677612,65.167274 1252.511597,68.553818 
	C1249.284668,72.005676 1244.762573,74.377045 1240.539917,76.743736 
	C1227.581787,84.006538 1214.798828,91.694725 1201.351807,97.933075 
	C1192.390015,102.090714 1182.446655,104.184784 1172.850586,106.873421 
	C1171.224121,107.329086 1168.873535,106.529320 1167.328857,105.559105 
	C1165.894043,104.657883 1164.240356,102.750664 1164.246216,101.292557 
	C1164.251831,99.843025 1166.009399,98.172737 1167.358643,97.020706 
	C1168.683716,95.889328 1170.461182,95.287865 1172.372925,94.249405 
z"/>
<path fill="#005295" opacity="1.000000" stroke="none" 
	d="
M535.618896,187.046036 
	C535.729858,188.665329 536.192017,191.035690 535.226196,192.060928 
	C528.746216,198.939743 522.252747,205.860489 515.185364,212.114029 
	C509.560242,217.091385 503.172760,221.225525 496.977478,225.523117 
	C495.872650,226.289536 494.052979,226.025436 492.228516,226.093781 
	C508.291504,215.181641 521.622253,200.978699 535.618896,187.046036 
z"/>
<path fill="#005295" opacity="1.000000" stroke="none" 
	d="
M595.629517,130.032593 
	C595.677917,131.093887 595.802673,132.958405 595.068909,133.401749 
	C581.575317,141.553833 572.209351,154.190994 560.797363,164.589081 
	C559.469482,165.799011 557.403625,166.199020 555.291565,166.958176 
	C555.080872,166.326019 555.065674,165.513702 555.463989,165.122864 
	C568.092407,152.731583 579.511658,138.954819 595.629517,130.032593 
z"/>
<path fill="#005295" opacity="1.000000" stroke="none" 
	d="
M429.633850,184.028961 
	C431.693085,187.711716 427.790771,188.855713 426.291534,190.928268 
	C424.558929,193.323380 421.706360,194.874039 419.544128,196.999008 
	C412.706970,203.718277 406.040619,210.613205 399.123322,217.247437 
	C397.724060,218.589417 395.515350,219.087433 393.291565,219.958221 
	C393.426880,218.970139 393.750610,217.793869 394.504181,217.057465 
	C405.132904,206.670807 415.810638,196.334106 426.512421,186.022598 
	C427.305908,185.258026 428.374359,184.778824 429.633850,184.028961 
z"/>
<path fill="#005295" opacity="1.000000" stroke="none" 
	d="
M2146.896484,76.596680 
	C2132.792236,75.391373 2118.887451,76.753815 2105.049316,79.071060 
	C2101.343262,79.691666 2097.725098,80.836380 2093.652832,81.522873 
	C2101.683838,78.870201 2110.000488,75.661858 2118.612061,74.240326 
	C2125.732910,73.064888 2133.207520,73.836128 2140.512695,74.100731 
	C2142.684082,74.179382 2144.811523,75.461929 2146.896484,76.596680 
z"/>
<path fill="#005295" opacity="1.000000" stroke="none" 
	d="
M554.618896,167.046036 
	C554.855835,168.534607 555.439087,170.747726 554.601379,171.669708 
	C550.183350,176.532120 545.478394,181.144699 540.693176,185.653122 
	C539.764587,186.527924 538.038208,186.555939 536.291626,186.958191 
	C537.947327,184.449585 539.852722,181.825806 542.065613,179.493790 
	C546.049683,175.295227 550.218079,171.271545 554.618896,167.046036 
z"/>
<path fill="#005295" opacity="1.000000" stroke="none" 
	d="
M679.797607,5.639382 
	C672.084595,3.569630 665.977173,5.562687 661.064941,12.217359 
	C659.712952,14.048809 656.839294,14.756980 654.274414,15.969320 
	C657.631165,9.681797 662.509705,4.255269 669.635925,2.474185 
	C672.592896,1.735138 676.362000,4.245286 679.797607,5.639382 
z"/>
<path fill="#005295" opacity="1.000000" stroke="none" 
	d="
M157.093170,230.435791 
	C158.083603,230.803406 159.679581,231.511398 159.808304,232.425919 
	C160.705872,238.802780 161.278641,245.224777 162.001282,251.627136 
	C162.269852,254.006424 162.884293,256.368408 162.921036,258.744751 
	C162.947037,260.426117 162.267044,262.118439 161.534424,263.901947 
	C160.464859,260.065155 159.568497,256.155090 159.103897,252.194351 
	C158.272049,245.102905 157.700195,237.980957 157.093170,230.435791 
z"/>
<path fill="#005295" opacity="1.000000" stroke="none" 
	d="
M191.706650,149.046997 
	C192.002319,150.447983 192.631775,152.516281 191.887970,153.331329 
	C187.564178,158.069321 182.981705,162.580505 178.319031,166.991150 
	C177.511292,167.755249 175.902267,167.672287 174.274109,167.969345 
	C176.134140,165.261169 178.258255,162.446289 180.662415,159.895325 
	C184.137192,156.208374 187.814941,152.712692 191.706650,149.046997 
z"/>
<path fill="#005295" opacity="1.000000" stroke="none" 
	d="
M392.618896,220.045990 
	C394.878571,228.023392 386.282227,229.054413 383.326294,233.897339 
	C382.717773,234.894272 379.931458,234.561966 378.075409,234.504486 
	C382.771088,229.502701 387.540253,224.838730 392.618896,220.045990 
z"/>
<path fill="#005295" opacity="1.000000" stroke="none" 
	d="
M211.618896,237.045990 
	C212.059952,238.298203 212.836273,240.223267 212.210358,240.964951 
	C209.649353,243.999512 206.797470,246.838867 203.736389,249.367172 
	C202.932022,250.031525 200.991837,249.320679 199.233459,249.095810 
	C203.032257,245.025101 207.170868,241.099930 211.618896,237.045990 
z"/>
<path fill="#005295" opacity="1.000000" stroke="none" 
	d="
M366.642151,154.023285 
	C367.238647,154.973450 368.123199,156.617081 367.716949,157.050369 
	C364.143555,160.861267 361.837494,166.303009 355.291565,166.958206 
	C358.712708,162.679764 362.522156,158.417648 366.642151,154.023285 
z"/>
<path fill="#005295" opacity="1.000000" stroke="none" 
	d="
M454.800293,184.642593 
	C449.036682,183.157349 443.225769,182.004028 437.144531,183.831421 
	C436.273987,184.093002 435.051422,183.183121 433.627808,182.510315 
	C440.258820,178.697800 448.012207,179.088959 454.800293,184.642593 
z"/>
<path fill="#005295" opacity="1.000000" stroke="none" 
	d="
M306.611267,221.052887 
	C306.637756,222.316833 306.816071,224.205917 305.965485,225.020187 
	C303.772247,227.119766 301.302338,229.122238 298.584686,230.403824 
	C297.155823,231.077652 294.975677,230.158432 292.976318,229.562866 
	C297.309998,226.507568 301.802216,223.847977 306.611267,221.052887 
z"/>
<path fill="#005295" opacity="1.000000" stroke="none" 
	d="
M610.638794,119.026184 
	C611.233215,119.978249 611.903198,121.139175 611.714478,122.137749 
	C611.300598,124.326767 600.961060,129.740265 598.232849,129.095276 
	C602.037354,125.687317 606.181091,122.424362 610.638794,119.026184 
z"/>
<path fill="#005295" opacity="1.000000" stroke="none" 
	d="
M221.618866,226.046021 
	C223.328278,230.295578 218.472412,236.101379 212.291733,236.958206 
	C215.038681,233.352859 218.174042,229.763855 221.618866,226.046021 
z"/>
<path fill="#005295" opacity="1.000000" stroke="none" 
	d="
M316.618866,210.046021 
	C318.328308,214.295471 313.472382,220.101364 307.291748,220.958221 
	C310.038666,217.352875 313.174011,213.763855 316.618866,210.046021 
z"/>
<path fill="#005295" opacity="1.000000" stroke="none" 
	d="
M354.618805,167.046082 
	C356.342499,171.368011 352.468567,176.091980 346.292023,176.958221 
	C348.705261,173.686234 351.507263,170.430588 354.618805,167.046082 
z"/>
<path fill="#005295" opacity="1.000000" stroke="none" 
	d="
M130.093170,232.458984 
	C131.109436,233.243591 132.647842,234.390808 132.868469,235.751648 
	C133.300629,238.417358 132.998154,241.202194 132.999451,244.385529 
	C132.310287,245.231033 131.621414,245.628708 130.019684,246.553375 
	C130.019684,241.588486 130.019684,237.253311 130.093170,232.458984 
z"/>
<path fill="#005295" opacity="1.000000" stroke="none" 
	d="
M271.618622,181.969177 
	C267.509857,185.786469 262.763855,184.083557 257.652527,182.524475 
	C261.922882,182.061935 266.580872,181.916809 271.618622,181.969177 
z"/>
<path fill="#005295" opacity="1.000000" stroke="none" 
	d="
M207.622620,146.972504 
	C206.666504,147.777710 205.362991,148.825684 203.997299,148.914215 
	C200.525330,149.139297 197.025528,148.935043 193.065567,148.741730 
	C197.165436,145.435104 202.103592,145.272812 207.622620,146.972504 
z"/>
<path fill="#005295" opacity="1.000000" stroke="none" 
	d="
M345.618744,177.046143 
	C347.367310,181.283997 344.251587,185.178329 338.292603,185.958237 
	C340.371918,183.019623 342.840515,180.097351 345.618744,177.046143 
z"/>
<path fill="#005295" opacity="1.000000" stroke="none" 
	d="
M143.641937,208.023438 
	C145.355392,212.304428 142.248795,216.179367 136.275146,216.969360 
	C138.367004,214.024017 140.849106,211.089935 143.641937,208.023438 
z"/>
<path fill="#005295" opacity="1.000000" stroke="none" 
	d="
M386.624634,148.974228 
	C384.867950,149.777786 382.770630,150.646927 380.597565,150.925903 
	C378.514038,151.193359 376.351929,150.848511 373.734863,150.560074 
	C377.299713,147.492798 381.667267,147.240036 386.624634,148.974228 
z"/>
<path fill="#005295" opacity="1.000000" stroke="none" 
	d="
M337.618591,186.046234 
	C339.388336,190.369675 337.213470,193.175934 331.293579,193.958252 
	C333.038483,191.353012 335.173676,188.764145 337.618591,186.046234 
z"/>
<path fill="#005295" opacity="1.000000" stroke="none" 
	d="
M228.641815,218.023544 
	C230.374603,222.380646 228.207809,225.174744 222.293625,225.958221 
	C224.045868,223.346588 226.188431,220.751312 228.641815,218.023544 
z"/>
<path fill="#005295" opacity="1.000000" stroke="none" 
	d="
M330.618591,194.046234 
	C332.388336,198.369675 330.213470,201.175934 324.293579,201.958252 
	C326.038483,199.353012 328.173676,196.764130 330.618591,194.046234 
z"/>
<path fill="#005295" opacity="1.000000" stroke="none" 
	d="
M323.618591,202.046234 
	C325.388336,206.369675 323.213470,209.175934 317.293579,209.958252 
	C319.038483,207.352997 321.173676,204.764130 323.618591,202.046234 
z"/>
<path fill="#005295" opacity="1.000000" stroke="none" 
	d="
M348.093262,209.450989 
	C352.388092,210.738190 350.776947,214.472137 350.833405,217.481995 
	C350.847534,218.235825 349.096893,219.022736 347.719055,219.608139 
	C347.527191,216.248474 347.773529,213.075089 348.093262,209.450989 
z"/>
<path fill="#005295" opacity="1.000000" stroke="none" 
	d="
M501.093262,265.226562 
	C503.753601,266.607758 504.927704,270.595520 503.491882,273.936218 
	C502.450836,271.191803 501.735077,268.385468 501.093262,265.226562 
z"/>
<path fill="#005295" opacity="1.000000" stroke="none" 
	d="
M333.093262,281.236542 
	C337.044861,282.366486 336.614105,284.929840 334.530518,287.906067 
	C333.784149,285.864532 333.401672,283.731049 333.093262,281.236542 
z"/>
<path fill="#005295" opacity="1.000000" stroke="none" 
	d="
M334.093567,274.234253 
	C335.098511,275.136200 336.184875,276.327118 336.811829,277.724182 
	C336.919128,277.963348 335.064911,279.082703 333.689697,279.615356 
	C333.515015,277.821136 333.767426,276.206970 334.093567,274.234253 
z"/>
<path fill="#005295" opacity="1.000000" stroke="none" 
	d="
M502.093811,259.215637 
	C503.074524,259.972382 503.981781,261.069519 504.889069,262.166626 
	C503.958435,262.710236 503.027802,263.253845 501.673645,263.622101 
	C501.506866,262.149841 501.763611,260.852966 502.093811,259.215637 
z"/>
<path fill="#005295" opacity="1.000000" stroke="none" 
	d="
M339.093994,250.190277 
	C340.034576,250.807968 340.901947,251.741608 341.769318,252.675247 
	C340.869843,253.050247 339.970367,253.425247 338.652771,253.631226 
	C338.496674,252.476883 338.758728,251.491562 339.093994,250.190277 
z"/>
<path fill="#005295" opacity="1.000000" stroke="none" 
	d="
M335.093994,269.190308 
	C336.034576,269.808014 336.901947,270.741669 337.769348,271.675323 
	C336.869873,272.050323 335.970428,272.425323 334.652771,272.631287 
	C334.496674,271.476959 334.758728,270.491608 335.093994,269.190308 
z"/>
<path fill="#005295" opacity="1.000000" stroke="none" 
	d="
M336.093994,264.190308 
	C337.034576,264.807983 337.901978,265.741669 338.769348,266.675323 
	C337.869873,267.050323 336.970398,267.425323 335.652771,267.631287 
	C335.496643,266.476959 335.758698,265.491608 336.093994,264.190308 
z"/>
<path fill="#005295" opacity="1.000000" stroke="none" 
	d="
M337.093994,259.190308 
	C338.034576,259.807983 338.901978,260.741669 339.769348,261.675323 
	C338.869873,262.050323 337.970428,262.425323 336.652771,262.631287 
	C336.496674,261.476959 336.758728,260.491608 337.093994,259.190308 
z"/>
<path fill="#005295" opacity="1.000000" stroke="none" 
	d="
M345.093597,228.149902 
	C345.946899,228.566360 346.726715,229.260757 347.506500,229.955170 
	C346.682068,230.234970 345.857635,230.514771 344.631592,230.626068 
	C344.493347,229.780991 344.756714,229.104401 345.093597,228.149902 
z"/>
<path fill="#005295" opacity="1.000000" stroke="none" 
	d="
M340.093597,246.149902 
	C340.946899,246.566360 341.726685,247.260757 342.506500,247.955139 
	C341.682068,248.234955 340.857635,248.514755 339.631592,248.626068 
	C339.493347,247.780991 339.756714,247.104401 340.093597,246.149902 
z"/>
<path fill="#005295" opacity="1.000000" stroke="none" 
	d="
M341.093597,242.149902 
	C341.946930,242.566360 342.726715,243.260757 343.506500,243.955154 
	C342.682068,244.234955 341.857635,244.514755 340.631592,244.626068 
	C340.493347,243.780991 340.756714,243.104401 341.093597,242.149902 
z"/>
<path fill="#005295" opacity="1.000000" stroke="none" 
	d="
M343.093567,235.149902 
	C343.946899,235.566376 344.726685,236.260773 345.506500,236.955154 
	C344.682068,237.234955 343.857635,237.514755 342.631592,237.626068 
	C342.493317,236.780975 342.756683,236.104401 343.093567,235.149902 
z"/>
<path fill="#005295" opacity="1.000000" stroke="none" 
	d="
M338.093597,255.149872 
	C338.946930,255.566376 339.726715,256.260773 340.506531,256.955139 
	C339.682068,257.234955 338.857635,257.514740 337.631653,257.625977 
	C337.493408,256.780884 337.756744,256.104340 338.093597,255.149872 
z"/>
<path fill="#005295" opacity="1.000000" stroke="none" 
	d="
M644.093628,41.149826 
	C644.946899,41.566334 645.726746,42.260784 646.506531,42.955231 
	C645.682068,43.235020 644.857666,43.514805 643.631592,43.626076 
	C643.493286,42.780960 643.756714,42.104366 644.093628,41.149826 
z"/>
<path fill="#005295" opacity="1.000000" stroke="none" 
	d="
M503.093567,255.149872 
	C503.946930,255.566360 504.726715,256.260773 505.506531,256.955139 
	C504.682068,257.234955 503.857635,257.514740 502.631622,257.625977 
	C502.493378,256.780884 502.756714,256.104340 503.093567,255.149872 
z"/>
<path fill="#005295" opacity="1.000000" stroke="none" 
	d="
M346.093597,224.149887 
	C346.946930,224.566345 347.726715,225.260742 348.506500,225.955139 
	C347.682068,226.234955 346.857635,226.514755 345.631592,226.626068 
	C345.493347,225.780991 345.756714,225.104401 346.093597,224.149887 
z"/>
<path fill="#005295" opacity="1.000000" stroke="none" 
	d="
M646.093628,34.149841 
	C646.946899,34.566334 647.726746,35.260784 648.506531,35.955231 
	C647.682068,36.235016 646.857666,36.514805 645.631592,36.626083 
	C645.493347,35.780983 645.756775,35.104389 646.093628,34.149841 
z"/>
<path fill="#005295" opacity="1.000000" stroke="none" 
	d="
M637.079102,63.080322 
	C637.616333,63.183647 638.065735,63.525234 638.515137,63.866821 
	C637.968262,64.237953 637.421387,64.609085 636.520569,64.990547 
	C636.441528,64.440117 636.716370,63.879353 637.079102,63.080322 
z"/>
<path fill="#005295" opacity="1.000000" stroke="none" 
	d="
M648.286133,26.582581 
	C648.339233,27.461002 648.174927,28.613756 647.632263,29.605869 
	C647.525513,28.582457 647.797119,27.719687 648.286133,26.582581 
z"/>
<path fill="#005295" opacity="1.000000" stroke="none" 
	d="
M507.286194,241.582581 
	C507.339325,242.460999 507.175049,243.613754 506.632355,244.605804 
	C506.525543,243.582382 506.797180,242.719650 507.286194,241.582581 
z"/>
<path fill="#005295" opacity="1.000000" stroke="none" 
	d="
M342.083679,239.076172 
	C342.581360,239.234055 342.995728,239.614319 343.410095,239.994598 
	C342.934418,240.250122 342.458740,240.505661 341.608215,240.608551 
	C341.489044,240.070099 341.744690,239.684311 342.083679,239.076172 
z"/>
<path fill="#005295" opacity="1.000000" stroke="none" 
	d="
M643.083618,45.076195 
	C643.581360,45.234108 643.995728,45.614372 644.410095,45.994633 
	C643.934448,46.250145 643.458740,46.505661 642.608276,46.608490 
	C642.489075,46.070049 642.744690,45.684299 643.083618,45.076195 
z"/>
<path fill="#005295" opacity="1.000000" stroke="none" 
	d="
M504.083679,252.076172 
	C504.581360,252.234085 504.995728,252.614349 505.410095,252.994598 
	C504.934418,253.250122 504.458740,253.505661 503.608246,253.608551 
	C503.489075,253.070114 503.744720,252.684326 504.083679,252.076172 
z"/>
<path fill="#005295" opacity="1.000000" stroke="none" 
	d="
M642.083618,48.076176 
	C642.581360,48.234093 642.995728,48.614357 643.410095,48.994629 
	C642.934448,49.250149 642.458740,49.505665 641.608276,49.608475 
	C641.489014,49.070023 641.744629,48.684273 642.083618,48.076176 
z"/>
<path fill="#005295" opacity="1.000000" stroke="none" 
	d="
M505.083679,249.076172 
	C505.581360,249.234070 505.995728,249.614334 506.410095,249.994598 
	C505.934418,250.250137 505.458740,250.505676 504.608215,250.608551 
	C504.489044,250.070099 504.744690,249.684311 505.083679,249.076172 
z"/>
<path fill="#005295" opacity="1.000000" stroke="none" 
	d="
M506.083679,246.076172 
	C506.581360,246.234070 506.995728,246.614334 507.410095,246.994598 
	C506.934418,247.250122 506.458740,247.505661 505.608215,247.608521 
	C505.489044,247.070084 505.744690,246.684296 506.083679,246.076172 
z"/>
<path fill="#005295" opacity="1.000000" stroke="none" 
	d="
M344.083679,232.076172 
	C344.581360,232.234070 344.995728,232.614334 345.410095,232.994598 
	C344.934418,233.250122 344.458740,233.505661 343.608215,233.608536 
	C343.489044,233.070084 343.744690,232.684296 344.083679,232.076172 
z"/>
<path fill="#005295" opacity="1.000000" stroke="none" 
	d="
M638.083618,60.076187 
	C638.581360,60.234100 638.995728,60.614365 639.410095,60.994637 
	C638.934448,61.250160 638.458740,61.505676 637.608276,61.608490 
	C637.489075,61.070042 637.744690,60.684292 638.083618,60.076187 
z"/>
<path fill="#005295" opacity="1.000000" stroke="none" 
	d="
M291.524048,229.049866 
	C290.910248,229.136597 290.052887,229.016861 289.098145,228.531891 
	C289.760651,228.392242 290.520569,228.617828 291.524048,229.049866 
z"/>
<path fill="#005295" opacity="1.000000" stroke="none" 
	d="
M645.083618,38.076195 
	C645.581360,38.234108 645.995728,38.614372 646.410095,38.994637 
	C645.934448,39.250156 645.458740,39.505672 644.608276,39.608490 
	C644.489075,39.070042 644.744690,38.684292 645.083618,38.076195 
z"/>
<path fill="#005295" opacity="1.000000" stroke="none" 
	d="
M639.083679,57.076202 
	C639.581360,57.234093 639.995728,57.614357 640.410095,57.994617 
	C639.934448,58.250130 639.458740,58.505646 638.608276,58.608490 
	C638.489136,58.070072 638.744751,57.684322 639.083679,57.076202 
z"/>
<path fill="#005295" opacity="1.000000" stroke="none" 
	d="
M347.083679,221.076172 
	C347.581360,221.234070 347.995728,221.614334 348.410095,221.994598 
	C347.934418,222.250122 347.458740,222.505661 346.608246,222.608551 
	C346.489075,222.070099 346.744720,221.684326 347.083679,221.076172 
z"/>
<path fill="#005295" opacity="1.000000" stroke="none" 
	d="
M640.083618,54.076187 
	C640.581360,54.234108 640.995728,54.614372 641.410095,54.994637 
	C640.934448,55.250156 640.458740,55.505669 639.608276,55.608482 
	C639.489075,55.070034 639.744690,54.684284 640.083618,54.076187 
z"/>
<path fill="#005295" opacity="1.000000" stroke="none" 
	d="
M641.083618,51.076199 
	C641.581360,51.234100 641.995728,51.614365 642.410095,51.994633 
	C641.934448,52.250153 641.458740,52.505669 640.608276,52.608498 
	C640.489075,52.070061 640.744690,51.684311 641.083618,51.076199 
z"/>
<path fill="#005295" opacity="1.000000" stroke="none" 
	d="
M647.083679,31.076208 
	C647.581360,31.234095 647.995728,31.614359 648.410095,31.994629 
	C647.934448,32.250156 647.458740,32.505680 646.608276,32.608517 
	C646.489136,32.070084 646.744751,31.684336 647.083679,31.076208 
z"/>
<path fill="#005295" opacity="1.000000" stroke="none" 
	d="
M2145.980469,144.299530 
	C2145.887207,144.042862 2146.360107,144.011337 2146.596924,144.005661 
	C2146.580322,144.185379 2146.327148,144.370773 2145.980469,144.299530 
z"/>
<path fill="#FFFFFF" opacity="1.000000" stroke="none" 
	d="
M2806.236816,142.383041 
	C2811.756104,137.357544 2816.638672,131.984039 2822.495117,128.067184 
	C2836.493652,118.704895 2850.866211,120.061150 2864.453857,129.094284 
	C2877.868164,138.012253 2885.678223,151.184509 2888.702881,166.683380 
	C2892.446533,185.867523 2890.371582,204.445969 2878.968994,221.091736 
	C2870.233154,233.845093 2858.637207,242.465790 2842.742920,242.826050 
	C2832.799316,243.051437 2823.843750,239.174133 2816.056396,232.624756 
	C2798.396484,217.772446 2792.929443,198.091736 2794.173828,176.190323 
	C2794.859375,164.121582 2799.444336,152.928787 2806.236816,142.383041 
z"/>
<path fill="#FFFFFF" opacity="1.000000" stroke="none" 
	d="
M1160.175049,251.315582 
	C1157.547485,252.619339 1155.265381,253.920334 1152.811646,254.620850 
	C1146.896118,256.309753 1141.417480,253.966995 1141.315796,246.413788 
	C1141.115234,231.518478 1144.061523,217.372437 1157.524536,207.629608 
	C1161.970703,204.411987 1164.830444,199.052582 1169.159790,195.607590 
	C1172.809204,192.703674 1177.355347,189.917938 1181.824341,189.263611 
	C1191.039673,187.914291 1195.875122,191.728973 1196.935425,202.366196 
	C1197.779907,210.839539 1192.842163,217.553513 1188.981201,224.407410 
	C1182.315918,236.239700 1172.175415,244.538956 1160.175049,251.315582 
z"/>
<path fill="#FFFFFF" opacity="1.000000" stroke="none" 
	d="
M543.001465,242.166656 
	C538.311279,239.099274 541.925354,235.177811 543.079468,232.827759 
	C546.484924,225.893494 550.980225,219.479416 555.222473,212.974930 
	C560.768799,204.470871 566.239563,195.899567 572.203735,187.692108 
	C576.462524,181.831421 581.479492,176.521622 586.158630,170.966400 
	C589.069458,167.510513 591.716858,163.777466 594.971375,160.682938 
	C597.869324,157.927444 601.439758,155.879181 605.671509,154.253311 
	C604.782349,156.822830 604.093872,159.483719 602.972351,161.947479 
	C593.691711,182.335159 581.424500,200.841660 567.312256,218.170670 
	C565.644714,220.218323 563.925476,222.223846 561.780762,224.702332 
	C555.221375,230.826050 549.111450,236.496353 543.001465,242.166656 
z"/>
<path fill="#005295" opacity="1.000000" stroke="none" 
	d="
M543.068359,242.499710 
	C549.111450,236.496353 555.221375,230.826050 561.641846,225.023560 
	C561.974792,226.407562 562.658264,228.617813 561.912842,229.327728 
	C556.918274,234.084579 551.667725,238.580078 546.354065,242.984039 
	C545.742798,243.490677 544.230103,242.909546 543.068359,242.499710 
z"/>
<path fill="#FFFFFF" opacity="1.000000" stroke="none" 
	d="
M2356.303955,215.255066 
	C2345.765625,233.163712 2330.239014,242.316788 2310.022461,242.862442 
	C2300.205811,243.127396 2291.392578,239.104706 2283.631348,233.094696 
	C2273.169434,224.993454 2265.685059,214.586777 2262.141602,201.918869 
	C2256.102539,180.329880 2259.088867,160.236328 2273.255859,142.124146 
	C2283.876221,128.545975 2297.534668,121.679985 2314.626953,122.080772 
	C2325.741699,122.341408 2335.364258,126.965439 2343.678711,134.212570 
	C2355.154541,144.215637 2362.555908,156.844559 2364.689697,171.799713 
	C2366.586670,185.095001 2364.236328,198.211975 2358.745605,210.610229 
	C2358.088135,212.094559 2357.281006,213.512482 2356.303955,215.255066 
z"/>
<path fill="#FFFFFF" opacity="1.000000" stroke="none" 
	d="
M1906.758545,203.578552 
	C1899.479858,222.640228 1887.382568,235.795471 1867.425781,241.339737 
	C1849.033936,246.449234 1827.978027,236.141663 1818.000366,223.166809 
	C1807.495728,209.506744 1803.063965,193.903778 1804.115234,176.994370 
	C1805.601685,153.085724 1822.675293,128.207504 1849.536011,122.791245 
	C1868.894043,118.887909 1888.601685,130.397476 1898.932495,145.759338 
	C1907.606812,158.658066 1911.116211,173.059418 1909.900513,188.483383 
	C1909.509766,193.441956 1907.966797,198.309738 1906.758545,203.578552 
z"/>
</svg>