<svg version="1.1" id="Layer_1" xmlns="http://www.w3.org/2000/svg" xmlns:xlink="http://www.w3.org/1999/xlink" x="0px" y="0px"
	 width="100%" viewBox="0 0 496 352" enable-background="new 0 0 496 352" xml:space="preserve">
<path fill="#000000" opacity="1.000000" stroke="none" 
	d="
M1.000000,113.468658 
	C20.131542,113.396400 39.282349,112.331451 58.400204,113.748810 
	C64.574394,114.206551 70.567833,115.386276 76.324333,117.800797 
	C88.308945,122.827629 94.040634,132.076797 94.069588,144.745056 
	C94.098984,157.609314 88.113083,166.952927 76.248589,172.315109 
	C66.595245,176.677948 56.324406,177.225693 45.965965,177.207336 
	C37.328156,177.192017 37.322800,177.177628 37.317215,185.979095 
	C37.309402,198.298050 37.342014,210.617111 37.295441,222.935898 
	C37.269814,229.714157 36.453068,229.961945 29.690817,230.670273 
	C20.372488,231.646301 11.084102,228.698029 1.410465,230.933228 
	C1.000000,220.979111 1.000000,210.958206 1.097624,200.072815 
	C1.896694,192.131821 2.162167,185.059341 1.000000,178.000000 
	C1.000000,156.645767 1.000000,135.291550 1.000000,113.468658 
M49.449638,126.802933 
	C47.180973,126.339500 44.927696,125.770721 42.640144,125.436623 
	C38.942215,124.896553 37.170155,126.226295 37.258995,130.339493 
	C37.474293,140.307404 37.316906,150.283112 37.340744,160.255600 
	C37.345470,162.232635 37.144264,164.199341 39.995422,164.775970 
	C48.228252,166.441101 55.504330,162.194901 57.709305,154.037491 
	C59.205376,148.502716 59.269394,142.899368 58.063377,137.257919 
	C57.056309,132.547104 54.718296,128.991974 49.449638,126.802933 
z"/>
<path fill="#000000" opacity="1.000000" stroke="none" 
	d="
M497.000000,219.545898 
	C487.991791,223.030594 479.113586,223.996445 470.724670,218.198578 
	C468.902649,216.939301 467.624878,218.067810 466.217407,218.943771 
	C458.662628,223.645615 450.699066,223.311172 442.720703,220.473190 
	C435.801086,218.011826 433.016327,212.137527 431.859924,205.476913 
	C430.749298,199.079819 432.838104,193.671295 438.028168,189.566833 
	C441.914795,186.493164 446.555328,185.144104 451.150696,183.668701 
	C455.120026,182.394287 459.051239,181.018082 462.447937,178.502884 
	C465.099213,176.539627 466.463013,173.949341 465.348663,170.684982 
	C464.328857,167.697662 461.763123,167.169815 458.889801,167.085480 
	C450.536163,166.840332 447.880615,169.898682 449.633209,178.021484 
	C449.875824,179.146011 450.460236,180.220078 449.908691,181.401291 
	C443.347260,182.904419 437.506989,181.061157 436.196198,177.072708 
	C434.273071,171.221039 437.017090,164.999542 443.494934,162.560745 
	C456.907074,157.511322 470.550140,157.783752 484.019989,162.463852 
	C489.842834,164.487000 491.822083,169.506058 491.859406,175.199661 
	C491.924896,185.182663 491.831696,195.171844 491.520050,205.149521 
	C491.404785,208.839645 491.796539,211.223969 496.647217,209.982880 
	C497.000000,213.030594 497.000000,216.061188 497.000000,219.545898 
M457.476105,199.217026 
	C457.426117,200.862061 457.213623,202.522293 457.365692,204.148438 
	C457.574219,206.378601 457.425354,209.302368 460.519196,209.462479 
	C463.236328,209.603104 464.306000,207.171890 464.951721,204.865372 
	C466.300476,200.047562 465.632690,195.206558 465.511597,190.044785 
	C460.290802,191.018433 458.680511,194.448318 457.476105,199.217026 
z"/>
<path fill="#000000" opacity="1.000000" stroke="none" 
	d="
M497.000000,230.583344 
	C494.262115,229.945023 491.398285,230.337662 488.585724,230.337234 
	C343.133545,230.315430 197.681351,230.314865 52.229168,230.304581 
	C50.232117,230.304443 48.228188,230.292908 46.240433,230.129227 
	C44.901123,230.018951 44.150997,229.112366 44.264519,227.735550 
	C44.358822,226.591843 45.138603,225.959549 46.239082,225.849594 
	C47.396393,225.733978 48.566246,225.704575 49.730618,225.704544 
	C197.848862,225.700516 345.967102,225.702606 494.085358,225.708298 
	C494.750671,225.708328 495.415985,225.764221 496.540649,225.897003 
	C497.000000,227.388885 497.000000,228.777786 497.000000,230.583344 
z"/>
<path fill="#000000" opacity="1.000000" stroke="none" 
	d="
M497.000000,252.533875 
	C493.112000,252.372360 489.679413,248.853836 485.158051,251.927490 
	C483.392822,253.127487 480.974426,251.399017 479.821198,249.393829 
	C478.229675,246.626587 478.174286,243.658463 479.858795,240.914597 
	C481.165314,238.786362 483.666656,237.157547 485.712189,238.301178 
	C489.530487,240.435974 492.750824,238.137421 496.612244,237.995941 
	C497.000000,242.689255 497.000000,247.378510 497.000000,252.533875 
M483.573608,243.380768 
	C483.158142,246.205200 484.367401,247.078781 487.025604,246.302536 
	C489.878937,245.469315 492.618744,244.401077 495.298065,242.760757 
	C491.361694,242.598312 487.714539,244.502411 483.573608,243.380768 
z"/>
<path fill="#000000" opacity="1.000000" stroke="none" 
	d="
M370.732605,199.999969 
	C370.722260,194.171143 370.683228,188.841827 370.714264,183.512939 
	C370.730072,180.799820 370.207397,178.192978 369.118500,175.749313 
	C368.185608,173.655792 366.597992,171.989197 364.082397,172.567154 
	C361.734772,173.106506 362.023438,175.356155 362.004028,177.120590 
	C361.919861,184.780457 361.937347,192.441422 361.911102,200.101959 
	C361.892303,205.594421 361.720764,211.091309 361.892700,216.577591 
	C361.991455,219.728882 361.052368,221.224442 357.691437,221.122208 
	C352.366943,220.960236 347.031281,220.937378 341.706787,221.086472 
	C338.370941,221.179901 336.732178,219.950195 336.742737,216.515091 
	C336.787720,201.860916 336.455475,187.196777 336.902740,172.555878 
	C337.185272,163.307480 344.793793,158.032135 354.899628,159.231155 
	C359.914246,159.826126 364.648346,161.310074 368.686768,164.564331 
	C370.111206,165.712204 371.368744,166.647385 373.454102,165.011307 
	C382.893097,157.606018 390.096863,157.294449 400.446198,163.413055 
	C401.543304,164.061676 402.461029,165.208801 404.323730,164.900101 
	C403.844910,159.386063 407.052765,158.929947 411.451904,159.785324 
	C416.201569,160.708817 421.045105,160.846497 425.879761,160.704941 
	C428.827942,160.618652 430.119598,161.990784 430.116150,164.900940 
	C430.095551,182.386505 430.095245,199.872162 430.135010,217.357681 
	C430.142151,220.496201 428.476685,221.291946 425.676331,221.215149 
	C420.683868,221.078247 415.676910,220.934845 410.693451,221.167725 
	C406.321014,221.372040 404.657959,219.390594 404.671570,215.285049 
	C404.704163,205.459595 404.612366,195.633514 404.685944,185.808548 
	C404.708740,182.766968 404.301025,179.808823 403.416016,176.952866 
	C402.708130,174.668350 401.321320,172.277084 398.621307,172.658630 
	C395.824188,173.053925 396.175720,175.865372 396.163849,177.964111 
	C396.095123,190.120865 396.110321,202.278061 396.081879,214.435089 
	C396.066528,221.009155 396.052887,221.010406 389.417603,221.018219 
	C385.087677,221.023315 380.745270,220.820236 376.431366,221.084641 
	C372.209015,221.343399 370.724518,219.326416 370.741425,215.487198 
	C370.763458,210.491455 370.737946,205.495514 370.732605,199.999969 
z"/>
<path fill="#000000" opacity="1.000000" stroke="none" 
	d="
M327.277771,208.956573 
	C330.298401,210.886337 334.665863,210.180344 335.397949,215.058426 
	C335.746155,217.378571 335.718933,218.751205 333.172180,219.619766 
	C323.992279,222.750488 314.939636,223.772095 306.299896,218.219772 
	C303.801239,216.614014 302.229950,218.168259 300.432587,219.198334 
	C292.105011,223.970764 283.484009,223.420944 275.674500,218.874619 
	C264.180786,212.183517 265.369537,194.637360 277.327728,187.763428 
	C281.111908,185.588196 285.309479,184.460266 289.420135,183.117432 
	C292.914215,181.975998 296.359619,180.690598 299.211945,178.287079 
	C302.184540,175.782257 303.062805,172.566528 300.528839,169.505493 
	C297.228333,165.518478 292.549713,166.765457 288.425446,167.715668 
	C284.701965,168.573517 284.282898,171.880005 284.195618,175.290680 
	C284.137604,177.555847 287.499664,181.296432 282.254211,181.828262 
	C275.229034,182.540558 271.817993,179.951935 271.845825,174.443665 
	C271.879974,167.682114 275.974030,162.830353 283.682495,160.985870 
	C294.198181,158.469681 304.794250,158.290268 315.321106,160.948639 
	C323.136383,162.922272 326.738007,167.500900 326.877167,175.626678 
	C327.065338,186.611160 327.069489,197.598785 327.277771,208.956573 
M292.558319,199.185181 
	C292.546051,201.165375 292.293793,203.181931 292.586823,205.115875 
	C292.900726,207.188049 293.295013,209.555252 296.181732,209.735992 
	C298.985291,209.911560 300.706207,208.199631 301.192230,205.809280 
	C302.269714,200.510391 302.193054,195.152023 301.337280,189.661667 
	C295.415009,190.191299 293.780640,194.014786 292.558319,199.185181 
z"/>
<path fill="#000000" opacity="1.000000" stroke="none" 
	d="
M173.096893,168.983917 
	C181.292007,181.095261 181.268280,199.551285 173.337830,211.305756 
	C169.457382,217.057358 163.833328,220.224792 157.291275,221.378525 
	C143.141357,223.873901 127.481873,221.940796 120.105148,209.977036 
	C113.555618,199.354858 113.142097,181.184967 120.078400,170.950531 
	C124.465042,164.478088 131.059235,161.279816 138.552643,160.316437 
	C150.985672,158.717987 163.252747,158.477371 173.096893,168.983917 
M144.170883,210.213287 
	C148.192810,213.905548 150.399185,213.458572 151.694824,208.235947 
	C154.673325,196.229721 154.227966,184.168625 151.428726,172.188568 
	C150.908630,169.962753 150.032913,167.404602 147.145325,167.335449 
	C144.112961,167.262802 143.402527,169.970184 142.974411,172.162338 
	C140.531738,184.669693 139.869736,197.177429 144.170883,210.213287 
z"/>
<path fill="#000000" opacity="1.000000" stroke="none" 
	d="
M188.719009,169.752045 
	C199.726608,159.043686 212.464752,157.225388 226.441772,160.955872 
	C227.545685,161.250519 228.587524,161.868179 229.583755,162.460846 
	C235.128265,165.759491 238.148956,170.940552 237.269135,177.073608 
	C236.417175,183.012497 229.667007,181.568390 225.822800,184.791183 
	C224.207184,181.209244 225.066772,178.192627 224.818909,175.314972 
	C224.478333,171.361084 223.244690,168.031357 218.884567,167.156784 
	C214.287369,166.234619 211.065369,168.283890 209.344345,172.499619 
	C206.445694,179.599945 206.148254,187.098389 206.594391,194.610443 
	C206.820053,198.409988 207.431610,202.218369 208.234039,205.944077 
	C209.315399,210.964874 212.871170,212.932175 217.798248,212.876358 
	C223.422867,212.812622 226.493149,210.696564 228.006775,205.900024 
	C228.991486,202.779572 228.856873,199.649429 228.292999,196.511490 
	C227.642563,192.891724 229.224579,192.052719 232.511032,192.739182 
	C239.361450,194.170074 240.493896,195.729614 239.393692,202.711700 
	C237.485626,214.820496 229.475266,221.952972 217.162628,222.095215 
	C212.046906,222.154327 206.892029,222.712830 201.810226,221.022522 
	C186.638214,215.975967 179.461853,205.277908 180.898483,189.194519 
	C181.532608,182.095352 183.598297,175.480423 188.719009,169.752045 
z"/>
<path fill="#000000" opacity="1.000000" stroke="none" 
	d="
M240.976410,165.000000 
	C240.981918,158.169540 241.060425,151.838058 240.968613,145.509033 
	C240.920700,142.206131 242.123199,140.709961 245.635818,140.680878 
	C250.786880,140.638214 255.940994,140.209808 261.080383,139.783813 
	C264.444397,139.504974 266.041901,140.721085 266.015137,144.226028 
	C265.886658,161.049332 265.822174,177.873245 265.774902,194.697037 
	C265.757141,201.015961 265.878387,207.335175 265.880249,213.654282 
	C265.882385,220.986221 265.855713,220.970367 258.783478,220.938263 
	C254.618958,220.919357 250.443893,220.783386 246.292374,221.024200 
	C242.133240,221.265427 240.800110,219.580185 240.847763,215.474579 
	C241.041122,198.818115 240.959137,182.158478 240.976410,165.000000 
z"/>
<path fill="#000000" opacity="1.000000" stroke="none" 
	d="
M108.035248,159.792145 
	C116.470421,163.163605 119.208267,175.969650 113.304596,182.597885 
	C112.467285,183.537949 111.502357,184.028305 110.268501,184.038940 
	C108.771469,184.051849 107.267807,184.153900 105.778740,184.049728 
	C102.829247,183.843384 99.323593,185.165344 97.063789,183.126358 
	C94.505241,180.817841 97.773232,177.942154 97.704941,175.241074 
	C97.680702,174.282166 97.522690,173.326614 97.436485,172.475464 
	C95.385223,171.731567 94.801285,173.029892 94.229240,174.221588 
	C92.763016,177.276016 92.211746,180.523239 92.217728,183.899582 
	C92.235123,193.715103 92.277924,203.531311 92.186806,213.346085 
	C92.123421,220.173431 91.152008,221.016647 84.306366,220.982086 
	C79.980949,220.960236 75.652802,220.863129 71.330795,220.980698 
	C67.875954,221.074677 66.670891,219.534042 66.701843,216.163101 
	C66.808739,204.518478 66.787773,192.871536 66.677261,181.226807 
	C66.647560,178.097366 67.584877,176.180511 70.896187,175.617447 
	C77.187012,174.547745 81.761917,170.474060 86.896233,167.036575 
	C92.954933,162.980194 99.384354,158.250702 108.035248,159.792145 
z"/>
<path fill="#000000" opacity="1.000000" stroke="none" 
	d="
M464.006165,240.436768 
	C464.281189,242.313522 464.433685,243.804703 464.503815,245.299759 
	C464.785950,251.314575 461.220612,253.929779 455.722778,251.382843 
	C453.534760,250.369217 452.049591,250.266602 449.865631,251.394287 
	C446.110199,253.333450 442.688812,252.011780 440.115051,248.860733 
	C437.505615,245.665985 437.577911,239.869751 440.169189,236.710159 
	C442.684601,233.643082 446.076904,233.002686 449.662506,234.116882 
	C451.518463,234.693588 453.623016,235.954666 452.673431,238.454269 
	C451.960022,240.332108 450.254669,239.829163 448.906708,238.887695 
	C447.592468,237.969833 446.201355,237.066269 445.053650,238.813278 
	C443.660858,240.933365 443.970673,243.293106 445.012817,245.481430 
	C445.816071,247.168106 447.201965,247.783340 449.146118,247.384933 
	C452.801392,246.635895 455.606140,244.218704 459.874329,242.592636 
	C457.303192,242.157776 454.888763,244.751511 454.188599,241.838150 
	C453.544067,239.156326 456.202606,238.760300 458.034515,238.235764 
	C460.272308,237.595032 462.324219,238.119232 464.006165,240.436768 
z"/>
<path fill="#000000" opacity="1.000000" stroke="none" 
	d="
M399.331543,245.095612 
	C399.685333,241.922974 400.757629,239.555878 403.525482,238.456573 
	C405.313171,237.746521 406.736267,236.990463 406.993073,234.786957 
	C407.176910,233.209610 408.435699,232.685638 409.949738,232.904114 
	C411.358826,233.107452 411.927612,234.179092 411.939484,235.374268 
	C411.983734,239.833710 412.084259,244.306610 411.790192,248.749741 
	C411.632416,251.134018 409.344055,251.690460 407.365173,252.032455 
	C404.744843,252.485291 402.450348,251.728714 400.696320,249.644501 
	C399.686890,248.445053 399.479156,246.960709 399.331543,245.095612 
z"/>
<path fill="#000000" opacity="1.000000" stroke="none" 
	d="
M472.731842,242.884064 
	C472.801117,240.635254 472.713806,238.601456 475.421356,238.659409 
	C478.027344,238.715210 478.022339,240.671936 478.126312,242.570190 
	C478.535095,250.033081 476.228210,252.982834 470.570343,252.160568 
	C468.228973,251.820282 466.242706,250.703110 465.951202,248.297607 
	C465.582153,245.251709 464.465668,241.728088 466.737976,239.239243 
	C468.166504,237.674515 470.632935,238.156296 471.127686,240.963486 
	C471.439758,242.734116 471.355072,244.574646 471.479736,246.992432 
	C473.103485,245.710785 472.569000,244.370819 472.731842,242.884064 
z"/>
<path fill="#000000" opacity="1.000000" stroke="none" 
	d="
M415.351501,239.333572 
	C416.437775,238.786667 417.179840,238.315079 417.975677,238.192398 
	C420.754578,237.763962 423.069977,238.714981 423.976013,241.431320 
	C425.367798,245.603958 420.968140,244.799423 419.028442,246.583572 
	C420.662598,247.867310 422.277161,245.839264 423.966766,247.024139 
	C424.683044,249.656128 423.051422,251.092484 420.655212,251.827576 
	C417.756805,252.716782 415.246368,251.706177 413.834015,249.118408 
	C412.016693,245.788620 412.060089,242.427948 415.351501,239.333572 
z"/>
<path fill="#000000" opacity="1.000000" stroke="none" 
	d="
M429.580414,250.998413 
	C427.350250,252.077499 426.009033,251.605392 425.672211,249.428589 
	C424.934845,244.662979 425.305786,239.888046 425.703979,235.120316 
	C425.813293,233.811966 426.492157,232.963806 427.891876,232.919739 
	C429.594330,232.866135 430.276306,233.929031 430.280670,235.419601 
	C430.295532,240.518585 430.928680,245.636719 429.580414,250.998413 
z"/>
</svg>