<svg version="1.1" id="Layer_1" xmlns="http://www.w3.org/2000/svg" xmlns:xlink="http://www.w3.org/1999/xlink" x="0px" y="0px"
	 width="100%" viewBox="0 0 200 200" enable-background="new 0 0 200 200" xml:space="preserve">
<path fill="#FDFEFE" opacity="1.000000" stroke="none" 
	d="
M201.000000,161.000000 
	C201.000000,174.312698 201.000000,187.625397 201.000000,200.969055 
	C134.457153,200.969055 67.914284,200.969055 1.000000,200.969055 
	C1.000000,186.981293 1.000000,172.959305 1.363104,158.463272 
	C2.645327,158.667938 3.508622,159.443802 4.492754,160.009399 
	C10.250560,163.318466 17.832817,161.339050 20.158108,156.027771 
	C20.613337,156.016510 20.795397,156.010925 21.145746,156.310669 
	C24.444138,161.748001 33.868210,163.336411 38.356819,159.488541 
	C41.462204,156.826431 41.148140,151.401367 37.753452,149.066177 
	C32.633976,145.544510 24.024153,147.559540 20.686953,152.982513 
	C20.223532,152.965027 20.038080,152.960327 19.812044,152.607697 
	C17.810560,150.752762 16.061552,148.650833 13.845078,147.861420 
	C9.088740,146.167404 4.971915,148.631104 1.000000,151.000000 
	C1.000000,101.043686 1.000000,51.087376 1.000000,1.065531 
	C67.564674,1.065531 134.129425,1.065531 201.000000,1.065531 
	C201.000000,51.020477 201.000000,101.041580 200.677612,151.380646 
	C197.741974,145.890045 192.693085,147.357925 188.270279,148.042603 
	C185.622009,148.452576 181.459915,149.398941 185.838272,153.498764 
	C185.594910,153.720184 185.221603,153.897644 185.129410,154.170197 
	C184.557602,155.860626 183.120392,158.503174 183.707275,159.088623 
	C185.042068,160.420181 187.353058,161.261642 189.318359,161.369171 
	C193.193893,161.581192 197.104126,161.159561 201.000000,161.000000 
M47.575558,161.058212 
	C47.908367,160.690674 48.241180,160.323135 48.782665,159.107315 
	C48.875858,156.784210 48.969051,154.461105 49.733250,151.815628 
	C52.255745,150.419418 53.025635,151.841324 53.121475,154.030792 
	C53.220402,156.290726 53.143459,158.558365 53.143459,160.851929 
	C55.562992,160.851929 57.308537,160.851929 57.993507,160.851929 
	C59.492905,157.141632 60.747292,154.037643 62.648952,151.394241 
	C63.254112,154.517242 63.859276,157.640244 64.473862,160.811874 
	C66.177917,160.811874 67.897438,160.811874 69.572762,160.811874 
	C71.030243,148.515396 68.608513,145.424896 59.746948,149.018387 
	C54.141407,148.511215 48.535862,148.004028 42.507214,147.458572 
	C42.507214,150.303757 42.311344,152.426544 42.561211,154.495514 
	C42.821392,156.649918 43.511772,158.752350 44.749161,161.063446 
	C45.500050,161.004074 46.250942,160.944687 47.575558,161.058212 
M84.769691,43.179153 
	C80.085175,51.406189 75.364502,59.612885 70.723167,67.864204 
	C58.511955,89.573189 46.335243,111.301575 33.800900,133.541077 
	C33.477974,134.288406 33.155052,135.035736 32.423996,136.011093 
	C32.642471,136.224625 32.860950,136.438171 33.993156,136.815308 
	C76.637123,136.778870 119.281082,136.742447 162.773102,136.932388 
	C164.522491,136.876831 166.271896,136.821274 168.684280,136.904587 
	C169.125061,136.832336 169.565842,136.760086 170.428482,136.735825 
	C170.428482,136.735825 170.651031,136.375427 170.651031,136.375427 
	C170.651031,136.375427 170.327972,136.101349 170.285507,135.439987 
	C164.009338,123.708649 157.828171,111.924194 151.337128,100.312981 
	C150.522552,98.855873 148.131042,97.624840 146.371201,97.478401 
	C141.676849,97.087753 136.928543,97.345467 132.201691,97.345467 
	C132.092422,96.955910 131.983170,96.566345 131.873901,96.176788 
	C135.984268,93.619370 140.094620,91.061943 144.516724,88.310570 
	C135.533066,72.200439 126.799324,56.538467 117.570824,40.165096 
	C108.118401,40.108810 98.663811,39.940983 89.216026,40.124130 
	C87.895355,40.149731 86.608093,41.899059 84.769691,43.179153 
M139.606400,149.092773 
	C134.077377,146.568283 128.860779,146.610641 124.883003,149.981720 
	C124.660408,152.499268 124.806244,154.054825 124.348740,155.406082 
	C123.118576,159.039398 124.542763,161.015121 128.064240,161.238770 
	C132.342148,161.510437 136.650467,161.303284 141.713669,161.303284 
	C141.108170,156.796188 140.633179,153.260590 139.606400,149.092773 
M86.048836,154.790939 
	C83.635735,158.650681 85.160873,160.880142 89.224884,161.230881 
	C93.459549,161.596344 97.750259,161.312408 102.176849,161.312408 
	C102.176849,158.288696 102.047142,156.145905 102.204292,154.024353 
	C102.515968,149.816589 100.420288,147.845871 96.452118,147.701035 
	C94.164482,147.617523 91.731918,147.439713 89.604431,148.089554 
	C87.093658,148.856461 83.537361,150.048172 87.796364,153.444046 
	C87.404610,153.727798 87.012856,154.011551 86.048836,154.790939 
M175.758514,147.677368 
	C173.615875,147.754852 171.412552,147.539856 169.342896,147.969177 
	C164.661530,148.940216 162.426346,152.731644 163.997498,156.899155 
	C165.596558,161.140747 169.475113,161.558960 173.150101,161.417145 
	C176.438934,161.290237 180.541748,161.788376 181.236801,156.808136 
	C181.274094,156.540848 181.014389,156.232101 180.577301,155.190353 
	C178.749588,155.936386 176.972672,156.942215 175.068222,157.344986 
	C173.691193,157.636246 171.132706,157.530472 170.878204,156.892654 
	C170.293900,155.428329 170.390015,153.344452 171.053574,151.899490 
	C171.323456,151.311768 173.830261,151.485504 175.238022,151.748230 
	C177.364227,152.145081 179.419220,152.923340 181.504486,153.539520 
	C181.786652,152.850739 182.068832,152.161957 182.350998,151.473175 
	C180.410965,150.251709 178.470932,149.030258 175.758514,147.677368 
M117.217697,153.002884 
	C118.936058,153.002884 120.654419,153.002884 122.531906,153.002884 
	C121.784874,148.427155 118.546036,147.363403 115.480598,147.659775 
	C112.080933,147.988480 108.631874,149.270279 105.575783,150.853912 
	C104.575409,151.372314 104.157562,154.249115 104.475494,155.848114 
	C105.467400,160.836716 109.673943,161.494659 113.739532,161.450928 
	C117.325020,161.412369 121.482712,161.535782 122.241699,155.358582 
	C120.009422,155.899246 118.266930,156.454697 116.481415,156.714874 
	C114.817337,156.957352 113.107475,156.885757 111.417770,156.952423 
	C111.509285,155.230469 111.600800,153.508499 111.692314,151.786560 
	C113.350380,152.022751 115.008446,152.258942 117.217697,153.002884 
M151.821274,161.164993 
	C154.974731,160.684036 158.128189,160.203064 160.853516,159.787399 
	C160.853516,155.827835 160.853516,152.445145 160.853516,149.085022 
	C155.507172,148.888351 155.641922,148.908325 154.847519,154.268463 
	C154.654251,155.572540 153.256378,156.698090 152.412384,157.905716 
	C151.603806,156.698410 150.351715,155.579239 150.090225,154.263214 
	C149.693985,152.269043 149.986679,150.138000 149.986679,148.227570 
	C147.515488,148.227570 145.788422,148.227570 144.094604,148.227570 
	C143.299576,159.882172 143.936935,161.038452 151.821274,161.164993 
M82.440819,151.140060 
	C87.675858,147.948776 80.970482,148.382568 80.976067,148.248169 
	C82.158218,145.369186 82.791779,143.826218 83.425346,142.283249 
	C81.024086,142.432083 78.029480,141.750519 76.369446,142.936676 
	C74.219513,144.472900 73.133736,147.498413 71.589806,149.882736 
	C76.329437,152.358688 73.496361,157.189758 74.908432,160.810974 
	C76.836334,160.810974 78.709679,160.810974 80.535545,160.810974 
	C80.908943,157.423386 81.246353,154.362228 82.440819,151.140060 
z"/>
<path fill="#31356A" opacity="1.000000" stroke="none" 
	d="
M201.000000,160.550018 
	C197.104126,161.159561 193.193893,161.581192 189.318359,161.369171 
	C187.353058,161.261642 185.042068,160.420181 183.707275,159.088623 
	C183.120392,158.503174 184.557602,155.860626 185.129410,154.170197 
	C185.221603,153.897644 185.594910,153.720184 185.838272,153.498764 
	C181.459915,149.398941 185.622009,148.452576 188.270279,148.042603 
	C192.693085,147.357925 197.741974,145.890045 200.677612,151.849304 
	C201.000000,154.700012 201.000000,157.400024 201.000000,160.550018 
z"/>
<path fill="#313469" opacity="1.000000" stroke="none" 
	d="
M19.884943,156.033432 
	C17.832817,161.339050 10.250560,163.318466 4.492754,160.009399 
	C3.508622,159.443802 2.645327,158.667938 1.363104,157.994614 
	C1.000000,155.958328 1.000000,153.916672 1.000000,151.437500 
	C4.971915,148.631104 9.088740,146.167404 13.845078,147.861420 
	C16.061552,148.650833 17.810560,150.752762 19.393871,152.654556 
	C16.961838,152.460754 14.936546,151.697296 12.842190,151.348099 
	C11.552807,151.133133 9.152478,151.236160 8.994286,151.741806 
	C8.467171,153.426697 8.426708,155.436401 8.872923,157.145905 
	C9.003224,157.645096 11.422509,157.858368 12.717737,157.674698 
	C15.135761,157.331772 17.498941,156.602142 19.884943,156.033432 
z"/>
<path fill="#454571" opacity="1.000000" stroke="none" 
	d="
M170.006622,136.687836 
	C169.565842,136.760086 169.125061,136.832336 168.318909,136.540909 
	C167.336288,135.457977 166.719040,134.738739 166.084045,133.652695 
	C160.618057,123.039146 155.247635,112.749252 149.621719,102.600998 
	C148.928940,101.351334 146.926697,100.267380 145.436691,100.129654 
	C141.649246,99.779594 137.784317,100.264038 133.997879,99.908592 
	C131.863785,99.708260 129.823669,98.506737 127.741226,97.756226 
	C129.224091,96.109169 130.506012,94.199059 132.236969,92.876778 
	C134.828110,90.897392 137.734879,89.331169 140.778610,87.418823 
	C132.507950,72.192795 124.441681,57.343044 116.710892,42.282635 
	C117.386116,41.673485 117.725853,41.274990 118.065590,40.876495 
	C126.799324,56.538467 135.533066,72.200439 144.516724,88.310570 
	C140.094620,91.061943 135.984268,93.619370 131.873901,96.176788 
	C131.983170,96.566345 132.092422,96.955910 132.201691,97.345467 
	C136.928543,97.345467 141.676849,97.087753 146.371201,97.478401 
	C148.131042,97.624840 150.522552,98.855873 151.337128,100.312981 
	C157.828171,111.924194 164.009338,123.708649 170.223511,135.849518 
	C170.161530,136.259033 170.006622,136.687836 170.006622,136.687836 
z"/>
<path fill="#232859" opacity="1.000000" stroke="none" 
	d="
M32.832130,135.783066 
	C33.155052,135.035736 33.477974,134.288406 34.200279,133.199951 
	C35.291851,132.924301 35.984043,132.989761 36.885384,133.470367 
	C39.570896,134.020935 42.047070,134.270706 44.523640,134.274689 
	C83.662804,134.337769 122.802017,134.369278 161.911148,134.694550 
	C161.895737,135.556046 161.910400,136.131027 161.925049,136.706009 
	C119.281082,136.742447 76.637123,136.778870 33.532661,136.499786 
	C33.072163,136.184280 32.832130,135.783066 32.832130,135.783066 
z"/>
<path fill="#51547D" opacity="1.000000" stroke="none" 
	d="
M36.676231,133.055222 
	C35.984043,132.989761 35.291851,132.924301 34.372227,132.940521 
	C46.335243,111.301575 58.511955,89.573189 70.723167,67.864204 
	C75.364502,59.612885 80.085175,51.406189 85.583725,43.161812 
	C86.766228,43.219410 87.134705,43.294353 87.406693,43.709801 
	C82.510376,52.567101 77.743889,61.102905 72.904137,69.596962 
	C60.845936,90.759842 48.754391,111.903717 36.676231,133.055222 
z"/>
<path fill="#33376C" opacity="1.000000" stroke="none" 
	d="
M139.882294,149.408875 
	C140.633179,153.260590 141.108170,156.796188 141.713669,161.303284 
	C136.650467,161.303284 132.342148,161.510437 128.064240,161.238770 
	C124.542763,161.015121 123.118576,159.039398 124.348740,155.406082 
	C124.806244,154.054825 124.660408,152.499268 124.883003,149.981720 
	C128.860779,146.610641 134.077377,146.568283 139.882294,149.408875 
z"/>
<path fill="#33366C" opacity="1.000000" stroke="none" 
	d="
M86.334969,154.543121 
	C87.012856,154.011551 87.404610,153.727798 87.796364,153.444046 
	C83.537361,150.048172 87.093658,148.856461 89.604431,148.089554 
	C91.731918,147.439713 94.164482,147.617523 96.452118,147.701035 
	C100.420288,147.845871 102.515968,149.816589 102.204292,154.024353 
	C102.047142,156.145905 102.176849,158.288696 102.176849,161.312408 
	C97.750259,161.312408 93.459549,161.596344 89.224884,161.230881 
	C85.160873,160.880142 83.635735,158.650681 86.334969,154.543121 
z"/>
<path fill="#31356C" opacity="1.000000" stroke="none" 
	d="
M20.964924,152.995331 
	C24.024153,147.559540 32.633976,145.544510 37.753452,149.066177 
	C41.148140,151.401367 41.462204,156.826431 38.356819,159.488541 
	C33.868210,163.336411 24.444138,161.748001 21.221336,155.937866 
	C21.074068,154.504913 21.019495,153.750122 20.964924,152.995331 
M33.838470,156.151749 
	C33.091660,154.390945 32.444588,152.569229 31.458273,150.954742 
	C31.348259,150.774673 28.602678,151.512741 28.320658,152.280807 
	C27.810886,153.669128 27.708111,156.422058 28.386610,156.774628 
	C29.734316,157.474976 31.728062,156.932068 33.838470,156.151749 
z"/>
<path fill="#2F3468" opacity="1.000000" stroke="none" 
	d="
M176.144714,147.743073 
	C178.470932,149.030258 180.410965,150.251709 182.350998,151.473175 
	C182.068832,152.161957 181.786652,152.850739 181.504486,153.539520 
	C179.419220,152.923340 177.364227,152.145081 175.238022,151.748230 
	C173.830261,151.485504 171.323456,151.311768 171.053574,151.899490 
	C170.390015,153.344452 170.293900,155.428329 170.878204,156.892654 
	C171.132706,157.530472 173.691193,157.636246 175.068222,157.344986 
	C176.972672,156.942215 178.749588,155.936386 180.577301,155.190353 
	C181.014389,156.232101 181.274094,156.540848 181.236801,156.808136 
	C180.541748,161.788376 176.438934,161.290237 173.150101,161.417145 
	C169.475113,161.558960 165.596558,161.140747 163.997498,156.899155 
	C162.426346,152.731644 164.661530,148.940216 169.342896,147.969177 
	C171.412552,147.539856 173.615875,147.754852 176.144714,147.743073 
z"/>
<path fill="#32346A" opacity="1.000000" stroke="none" 
	d="
M116.942108,152.749023 
	C115.008446,152.258942 113.350380,152.022751 111.692314,151.786560 
	C111.600800,153.508499 111.509285,155.230469 111.417770,156.952423 
	C113.107475,156.885757 114.817337,156.957352 116.481415,156.714874 
	C118.266930,156.454697 120.009422,155.899246 122.241699,155.358582 
	C121.482712,161.535782 117.325020,161.412369 113.739532,161.450928 
	C109.673943,161.494659 105.467400,160.836716 104.475494,155.848114 
	C104.157562,154.249115 104.575409,151.372314 105.575783,150.853912 
	C108.631874,149.270279 112.080933,147.988480 115.480598,147.659775 
	C118.546036,147.363403 121.784874,148.427155 122.531906,153.002884 
	C120.654419,153.002884 118.936058,153.002884 116.942108,152.749023 
z"/>
<path fill="#272B68" opacity="1.000000" stroke="none" 
	d="
M151.455261,161.244064 
	C143.936935,161.038452 143.299576,159.882172 144.094604,148.227570 
	C145.788422,148.227570 147.515488,148.227570 149.986679,148.227570 
	C149.986679,150.138000 149.693985,152.269043 150.090225,154.263214 
	C150.351715,155.579239 151.603806,156.698410 152.412384,157.905716 
	C153.256378,156.698090 154.654251,155.572540 154.847519,154.268463 
	C155.641922,148.908325 155.507172,148.888351 160.853516,149.085022 
	C160.853516,152.445145 160.853516,155.827835 160.853516,159.787399 
	C158.128189,160.203064 154.974731,160.684036 151.455261,161.244064 
z"/>
<path fill="#2F336B" opacity="1.000000" stroke="none" 
	d="
M82.012299,151.220566 
	C81.246353,154.362228 80.908943,157.423386 80.535545,160.810974 
	C78.709679,160.810974 76.836334,160.810974 74.908432,160.810974 
	C73.496361,157.189758 76.329437,152.358688 71.589813,149.882736 
	C73.133736,147.498413 74.219513,144.472900 76.369446,142.936676 
	C78.029480,141.750519 81.024086,142.432083 83.425346,142.283249 
	C82.791779,143.826218 82.158218,145.369186 80.976067,148.248169 
	C80.970482,148.382568 87.675858,147.948776 82.012299,151.220566 
z"/>
<path fill="#32366B" opacity="1.000000" stroke="none" 
	d="
M62.001678,150.933640 
	C60.747292,154.037643 59.492905,157.141632 57.993507,160.851929 
	C57.308537,160.851929 55.562992,160.851929 53.143459,160.851929 
	C53.143459,158.558365 53.220402,156.290726 53.121475,154.030792 
	C53.025635,151.841324 52.255745,150.419418 49.321430,151.609695 
	C47.607800,150.549652 46.305984,149.695557 44.014050,148.191849 
	C44.014050,153.360916 44.014050,157.119217 44.014050,160.877518 
	C43.511772,158.752350 42.821392,156.649918 42.561211,154.495514 
	C42.311344,152.426544 42.507214,150.303757 42.507214,147.458572 
	C48.535862,148.004028 54.141407,148.511215 60.421967,149.054932 
	C61.398548,149.705536 61.700111,150.319580 62.001678,150.933640 
z"/>
<path fill="#2F3368" opacity="1.000000" stroke="none" 
	d="
M62.325317,151.163940 
	C61.700111,150.319580 61.398548,149.705536 60.772598,148.943512 
	C68.608513,145.424896 71.030243,148.515396 69.572762,160.811874 
	C67.897438,160.811874 66.177917,160.811874 64.473862,160.811874 
	C63.859276,157.640244 63.254112,154.517242 62.325317,151.163940 
z"/>
<path fill="#272853" opacity="1.000000" stroke="none" 
	d="
M87.503174,43.369301 
	C87.134705,43.294353 86.766228,43.219410 85.851562,42.997467 
	C86.608093,41.899059 87.895355,40.149731 89.216026,40.124130 
	C98.663811,39.940983 108.118401,40.108810 117.818207,40.520798 
	C117.725853,41.274990 117.386116,41.673485 116.290077,42.217171 
	C108.400757,42.352394 101.266380,42.261452 94.135513,42.380482 
	C91.919853,42.417469 89.713684,43.023685 87.503174,43.369301 
z"/>
<path fill="#E5E9F5" opacity="1.000000" stroke="none" 
	d="
M20.686953,152.982513 
	C21.019495,153.750122 21.074068,154.504913 21.053051,155.632523 
	C20.795397,156.010925 20.613337,156.016510 20.158108,156.027771 
	C17.498941,156.602142 15.135761,157.331772 12.717737,157.674698 
	C11.422509,157.858368 9.003224,157.645096 8.872923,157.145905 
	C8.426708,155.436401 8.467171,153.426697 8.994286,151.741806 
	C9.152478,151.236160 11.552807,151.133133 12.842190,151.348099 
	C14.936546,151.697296 16.961838,152.460754 19.434456,153.002502 
	C20.038080,152.960327 20.223532,152.965027 20.686953,152.982513 
z"/>
<path fill="#1E2666" opacity="1.000000" stroke="none" 
	d="
M44.381607,160.970490 
	C44.014050,157.119217 44.014050,153.360916 44.014050,148.191849 
	C46.305984,149.695557 47.607800,150.549652 48.985931,151.770874 
	C48.969051,154.461105 48.875858,156.784210 48.434837,159.550537 
	C47.725285,160.290939 47.363556,160.588135 47.001831,160.885315 
	C46.250942,160.944687 45.500050,161.004074 44.381607,160.970490 
z"/>
<path fill="#51547D" opacity="1.000000" stroke="none" 
	d="
M162.349075,136.819199 
	C161.910400,136.131027 161.895737,135.556046 162.313538,134.574966 
	C163.864594,134.119080 164.983185,134.069290 166.101791,134.019485 
	C166.719040,134.738739 167.336288,135.457977 167.987411,136.471466 
	C166.271896,136.821274 164.522491,136.876831 162.349075,136.819199 
z"/>
<path fill="#32366B" opacity="1.000000" stroke="none" 
	d="
M47.288696,160.971771 
	C47.363556,160.588135 47.725285,160.290939 48.330498,159.974670 
	C48.241180,160.323135 47.908367,160.690674 47.288696,160.971771 
z"/>
<path fill="#51547D" opacity="1.000000" stroke="none" 
	d="
M170.217560,136.711823 
	C170.006622,136.687836 170.161530,136.259033 170.244751,136.180191 
	C170.327972,136.101349 170.651031,136.375427 170.651031,136.375427 
	C170.651031,136.375427 170.428482,136.735825 170.217560,136.711823 
z"/>
<path fill="#51547D" opacity="1.000000" stroke="none" 
	d="
M32.628063,135.897079 
	C32.832130,135.783066 33.072163,136.184280 33.075794,136.417999 
	C32.860950,136.438171 32.642471,136.224625 32.628063,135.897079 
z"/>
<path fill="#EBEDF6" opacity="1.000000" stroke="none" 
	d="
M166.084045,133.652695 
	C164.983185,134.069290 163.864594,134.119080 162.343597,134.288452 
	C122.802017,134.369278 83.662804,134.337769 44.523640,134.274689 
	C42.047070,134.270706 39.570896,134.020935 36.885384,133.470367 
	C48.754391,111.903717 60.845936,90.759842 72.904137,69.596962 
	C77.743889,61.102905 82.510376,52.567101 87.406693,43.709801 
	C89.713684,43.023685 91.919853,42.417469 94.135513,42.380482 
	C101.266380,42.261452 108.400757,42.352394 115.954590,42.427826 
	C124.441681,57.343044 132.507950,72.192795 140.778610,87.418823 
	C137.734879,89.331169 134.828110,90.897392 132.236969,92.876778 
	C130.506012,94.199059 129.224091,96.109169 127.741226,97.756226 
	C129.823669,98.506737 131.863785,99.708260 133.997879,99.908592 
	C137.784317,100.264038 141.649246,99.779594 145.436691,100.129654 
	C146.926697,100.267380 148.928940,101.351334 149.621719,102.600998 
	C155.247635,112.749252 160.618057,123.039146 166.084045,133.652695 
M77.483650,121.035019 
	C75.845642,124.160324 74.207626,127.285637 72.428795,130.679626 
	C101.693352,130.679626 130.092056,130.679626 159.140091,130.679626 
	C154.373230,121.733131 149.866501,113.258095 145.329681,104.799210 
	C145.039078,104.257393 144.526886,103.439880 144.098328,103.427574 
	C139.775803,103.303429 135.387299,102.910950 131.161743,103.549522 
	C129.904755,103.739479 129.068069,106.917610 128.097198,108.757385 
	C124.209518,116.124588 115.851273,118.912697 108.517441,115.266479 
	C101.448166,111.751778 98.686432,103.193039 102.323311,96.070641 
	C106.025322,88.820709 114.535912,86.015152 121.956078,89.660698 
	C123.554535,90.446014 125.034859,91.471794 126.593170,92.400856 
	C129.567642,90.278038 132.364349,88.282089 135.371796,86.135742 
	C128.701965,74.627357 122.260712,63.513371 115.514290,51.872841 
	C102.695038,75.191238 90.271545,97.789734 77.483650,121.035019 
M101.811768,67.297668 
	C105.548096,60.567921 109.284416,53.838177 113.393120,46.437721 
	C105.897934,46.437721 99.432915,46.573410 92.978058,46.376312 
	C90.068230,46.287457 88.563095,47.388309 87.177399,49.902885 
	C73.214806,75.240318 59.112938,100.500992 45.065758,125.791862 
	C44.226265,127.303314 43.519428,128.888443 42.487480,130.970734 
	C49.485180,130.970734 55.638123,130.763962 61.767632,131.053467 
	C65.088829,131.210342 66.752472,130.014771 68.332977,127.148224 
	C79.251785,107.344872 90.377518,87.655602 101.811768,67.297668 
M105.514565,97.269897 
	C102.892868,104.283119 104.991676,110.257843 110.905121,112.615311 
	C116.454361,114.827591 122.615685,112.302223 125.024597,106.828102 
	C127.178314,101.933884 125.407761,96.202415 120.855560,93.332489 
	C116.073921,90.317924 110.375107,91.573914 105.514565,97.269897 
z"/>
<path fill="#EFF0F8" opacity="1.000000" stroke="none" 
	d="
M33.646656,156.527344 
	C31.728062,156.932068 29.734316,157.474976 28.386610,156.774628 
	C27.708111,156.422058 27.810886,153.669128 28.320658,152.280807 
	C28.602678,151.512741 31.348259,150.774673 31.458273,150.954742 
	C32.444588,152.569229 33.091660,154.390945 33.646656,156.527344 
z"/>
<path fill="#252A6A" opacity="1.000000" stroke="none" 
	d="
M77.665855,120.711624 
	C90.271545,97.789734 102.695038,75.191238 115.514290,51.872841 
	C122.260712,63.513371 128.701965,74.627357 135.371796,86.135742 
	C132.364349,88.282089 129.567642,90.278038 126.593170,92.400856 
	C125.034859,91.471794 123.554535,90.446014 121.956078,89.660698 
	C114.535912,86.015152 106.025322,88.820709 102.323311,96.070641 
	C98.686432,103.193039 101.448166,111.751778 108.517441,115.266479 
	C115.851273,118.912697 124.209518,116.124588 128.097198,108.757385 
	C129.068069,106.917610 129.904755,103.739479 131.161743,103.549522 
	C135.387299,102.910950 139.775803,103.303429 144.098328,103.427574 
	C144.526886,103.439880 145.039078,104.257393 145.329681,104.799210 
	C149.866501,113.258095 154.373230,121.733131 159.140091,130.679626 
	C130.092056,130.679626 101.693352,130.679626 72.428795,130.679626 
	C74.207626,127.285637 75.845642,124.160324 77.665855,120.711624 
z"/>
<path fill="#2F346B" opacity="1.000000" stroke="none" 
	d="
M101.624268,67.613678 
	C90.377518,87.655602 79.251785,107.344872 68.332977,127.148224 
	C66.752472,130.014771 65.088829,131.210342 61.767632,131.053467 
	C55.638123,130.763962 49.485180,130.970734 42.487480,130.970734 
	C43.519428,128.888443 44.226265,127.303314 45.065758,125.791862 
	C59.112938,100.500992 73.214806,75.240318 87.177399,49.902885 
	C88.563095,47.388309 90.068230,46.287457 92.978058,46.376312 
	C99.432915,46.573410 105.897934,46.437721 113.393120,46.437721 
	C109.284416,53.838177 105.548096,60.567921 101.624268,67.613678 
M60.021042,123.029053 
	C60.021042,123.029053 60.108852,123.044327 59.573921,123.337479 
	C59.386112,123.899231 59.198303,124.460991 59.071632,125.715393 
	C62.553501,128.336197 63.536140,125.304878 64.766899,123.120338 
	C77.697296,100.169426 90.602470,77.204308 103.493362,54.231186 
	C104.003815,53.321514 104.301643,52.292545 104.682732,51.357944 
	C100.160179,49.477020 100.165787,53.877285 97.911865,54.751236 
	C97.211121,54.145760 96.510376,53.540279 95.831558,52.169640 
	C93.589378,50.190544 92.296707,50.739361 90.865540,53.380207 
	C85.638779,63.024860 80.142212,72.523079 74.767212,82.087669 
	C66.561478,96.689461 58.372288,111.300560 50.176071,125.907707 
	C50.472115,126.313873 50.768162,126.720032 51.064205,127.126190 
	C52.405914,126.247253 54.079163,125.628983 55.018761,124.433907 
	C56.847862,122.107452 58.265774,119.457718 60.600941,117.081909 
	C61.119274,117.870499 61.637604,118.659081 62.101845,119.933250 
	C61.831104,120.319496 61.560364,120.705742 60.686962,121.333191 
	C60.483398,121.921799 60.279835,122.510399 60.021042,123.029053 
z"/>
<path fill="#262B69" opacity="1.000000" stroke="none" 
	d="
M105.723900,96.945595 
	C110.375107,91.573914 116.073921,90.317924 120.855560,93.332489 
	C125.407761,96.202415 127.178314,101.933884 125.024597,106.828102 
	C122.615685,112.302223 116.454361,114.827591 110.905121,112.615311 
	C104.991676,110.257843 102.892868,104.283119 105.723900,96.945595 
z"/>
<path fill="#E6E8F3" opacity="1.000000" stroke="none" 
	d="
M59.853992,116.941887 
	C58.265774,119.457718 56.847862,122.107452 55.018761,124.433907 
	C54.079163,125.628983 52.405914,126.247253 51.064205,127.126190 
	C50.768162,126.720032 50.472115,126.313873 50.176071,125.907707 
	C58.372288,111.300560 66.561478,96.689461 74.767212,82.087669 
	C80.142212,72.523079 85.638779,63.024860 90.865540,53.380207 
	C92.296707,50.739361 93.589378,50.190544 95.564499,52.770298 
	C94.729355,54.387600 94.160378,55.403751 93.593307,56.420959 
	C82.346741,76.594528 71.100388,96.768219 59.853992,116.941887 
z"/>
<path fill="#E7E9F4" opacity="1.000000" stroke="none" 
	d="
M61.289627,121.091995 
	C61.560364,120.705742 61.831104,120.319496 62.392021,119.447098 
	C74.520973,97.774673 86.359741,76.588409 98.198517,55.402145 
	C100.165787,53.877285 100.160179,49.477020 104.682732,51.357944 
	C104.301643,52.292545 104.003815,53.321514 103.493362,54.231186 
	C90.602470,77.204308 77.697296,100.169426 64.766899,123.120338 
	C63.536140,125.304878 62.553501,128.336197 59.294060,125.209213 
	C59.713947,124.150124 59.911400,123.597229 60.108852,123.044327 
	C60.108852,123.044327 60.021042,123.029053 60.288113,122.879227 
	C60.799999,122.183594 61.044815,121.637794 61.289627,121.091995 
z"/>
<path fill="#34386B" opacity="1.000000" stroke="none" 
	d="
M98.055191,55.076691 
	C86.359741,76.588409 74.520973,97.774673 62.419064,119.204300 
	C61.637604,118.659081 61.119274,117.870499 60.227467,117.011902 
	C71.100388,96.768219 82.346741,76.594528 93.593307,56.420959 
	C94.160378,55.403751 94.729355,54.387600 95.553543,53.152878 
	C96.510376,53.540279 97.211121,54.145760 98.055191,55.076691 
z"/>
<path fill="#34386B" opacity="1.000000" stroke="none" 
	d="
M59.841385,123.190903 
	C59.911400,123.597229 59.713947,124.150124 59.263493,124.862885 
	C59.198303,124.460991 59.386112,123.899231 59.841385,123.190903 
z"/>
<path fill="#34386B" opacity="1.000000" stroke="none" 
	d="
M60.988297,121.212593 
	C61.044815,121.637794 60.799999,122.183594 60.315727,122.914200 
	C60.279835,122.510399 60.483398,121.921799 60.988297,121.212593 
z"/>
</svg>